SplineFontDB: 3.0
FontName: RisingSun-DemiBoldItalic
FullName: Rising Sun DemiBold Italic
FamilyName: Rising Sun DemiBold
Weight: Demi
Copyright: Copyright (c) 2010 - 2013, Matt McInerney (matt@pixelspread.com), Pablo Impallari (impallari@gmail.com), Rodrigo Fuenzalida (hello@rfuenzalida.com) with Reserved Font Name RALEWAY.\nCopyright (c) 2016, Cristiano Sobral (cssobral2013@gmail.com), with Reserved Font Name RISING SUN.
Version: 1.000
ItalicAngle: -12
UnderlinePosition: -100
UnderlineWidth: 50
Ascent: 800
Descent: 200
InvalidEm: 0
sfntRevision: 0x00010000
LayerCount: 2
Layer: 0 1 "Back" 1
Layer: 1 1 "Fore" 0
XUID: [1021 368 144034212 7787]
StyleMap: 0x0021
FSType: 4
OS2Version: 3
OS2_WeightWidthSlopeOnly: 0
OS2_UseTypoMetrics: 0
CreationTime: 1372299720
ModificationTime: 1466169397
PfmFamily: 17
TTFWeight: 600
TTFWidth: 5
LineGap: 0
VLineGap: 0
Panose: 2 11 7 3 3 1 1 6 0 3
OS2TypoAscent: 800
OS2TypoAOffset: 0
OS2TypoDescent: -200
OS2TypoDOffset: 0
OS2TypoLinegap: 0
OS2WinAscent: 930
OS2WinAOffset: 0
OS2WinDescent: 246
OS2WinDOffset: 0
HheadAscent: 930
HheadAOffset: 0
HheadDescent: -246
HheadDOffset: 0
OS2SubXSize: 700
OS2SubYSize: 650
OS2SubXOff: 0
OS2SubYOff: 140
OS2SupXSize: 700
OS2SupYSize: 650
OS2SupXOff: 0
OS2SupYOff: 477
OS2StrikeYSize: 50
OS2StrikeYPos: 250
OS2CapHeight: 710
OS2XHeight: 523
OS2Vendor: 'pyrs'
OS2CodePages: 20000093.00000000
OS2UnicodeRanges: a00000ff.5000205b.00000000.00000000
Lookup: 1 0 0 "'aalt' Access All Alternates in Latin lookup 0" { "'aalt' Access All Alternates in Latin lookup 0 subtable"  } ['aalt' ('latn' <'dflt' > ) ]
Lookup: 3 0 0 "'aalt' Access All Alternates in Latin lookup 1" { "'aalt' Access All Alternates in Latin lookup 1 subtable"  } ['aalt' ('latn' <'dflt' > ) ]
Lookup: 1 0 0 "'smcp' Lowercase to Small Capitals in Latin lookup 2" { "'smcp' Lowercase to Small Capitals in Latin lookup 2 subtable"  } ['smcp' ('latn' <'dflt' > ) ]

StartChar: exclam
Encoding: 33 33 5
Width: 274
GlyphClass: 2
Flags: W
LayerCount: 2
Fore
SplineSet
72 253 m 1,0,-1
 170 717 l 1,1,-1
 280 717 l 1,2,-1
 182 253 l 1,3,-1
 72 253 l 1,0,-1
18 0 m 1,4,-1
 47 137 l 1,5,-1
 157 137 l 1,6,-1
 128 0 l 1,7,-1
 18 0 l 1,4,-1
EndSplineSet
EndChar

StartChar: quotedbl
Encoding: 34 34 6
Width: 351
GlyphClass: 2
Flags: W
LayerCount: 2
Fore
SplineSet
103 501 m 1,0,-1
 150 721 l 1,1,-1
 244 721 l 1,2,-1
 197 501 l 1,3,-1
 103 501 l 1,0,-1
236 501 m 1,4,-1
 283 721 l 1,5,-1
 377 721 l 1,6,-1
 330 501 l 1,7,-1
 236 501 l 1,4,-1
EndSplineSet
EndChar

StartChar: numbersign
Encoding: 35 35 7
Width: 678
GlyphClass: 2
Flags: W
LayerCount: 2
Fore
SplineSet
670 436 m 1,0,-1
 536 436 l 1,1,-1
 468 278 l 1,2,-1
 592 278 l 1,3,-1
 575 194 l 1,4,-1
 430 194 l 1,5,-1
 344 0 l 1,6,-1
 255 0 l 1,7,-1
 341 194 l 1,8,-1
 210 194 l 1,9,-1
 124 0 l 1,10,-1
 34 0 l 1,11,-1
 121 194 l 1,12,-1
 14 194 l 1,13,-1
 32 278 l 1,14,-1
 159 278 l 1,15,-1
 227 436 l 1,16,-1
 109 436 l 1,17,-1
 126 514 l 1,18,-1
 263 514 l 1,19,-1
 350 710 l 1,20,-1
 439 710 l 1,21,-1
 352 514 l 1,22,-1
 484 514 l 1,23,-1
 570 710 l 1,24,-1
 659 710 l 1,25,-1
 572 514 l 1,26,-1
 687 514 l 1,27,-1
 670 436 l 1,0,-1
379 278 m 1,28,-1
 447 436 l 1,29,-1
 316 436 l 1,30,-1
 248 278 l 1,31,-1
 379 278 l 1,28,-1
EndSplineSet
EndChar

StartChar: dollar
Encoding: 36 36 8
Width: 603
GlyphClass: 2
Flags: W
LayerCount: 2
Fore
SplineSet
537 543 m 1,0,1
 531 553 531 553 517 564.5 c 128,-1,2
 503 576 503 576 483.5 586.5 c 128,-1,3
 464 597 464 597 439.5 604.5 c 128,-1,4
 415 612 415 612 388 614 c 1,5,-1
 344 408 l 1,6,7
 376 397 376 397 411.5 386 c 128,-1,8
 447 375 447 375 477 357 c 128,-1,9
 507 339 507 339 526.5 310 c 128,-1,10
 546 281 546 281 546 236 c 0,11,12
 546 174 546 174 523 129.5 c 128,-1,13
 500 85 500 85 461 55 c 128,-1,14
 422 25 422 25 371 10 c 128,-1,15
 320 -5 320 -5 264 -7 c 1,16,-1
 242 -112 l 1,17,-1
 191 -112 l 1,18,-1
 214 -5 l 1,19,20
 147 0 147 0 89 23.5 c 128,-1,21
 31 47 31 47 -11 89 c 1,22,-1
 62 185 l 1,23,24
 69 173 69 173 86 159 c 128,-1,25
 103 145 103 145 126 132 c 128,-1,26
 149 119 149 119 178.5 109 c 128,-1,27
 208 99 208 99 241 95 c 1,28,-1
 285 302 l 1,29,30
 256 309 256 309 223 320.5 c 128,-1,31
 190 332 190 332 162 350 c 128,-1,32
 134 368 134 368 116 395 c 128,-1,33
 98 422 98 422 98 461 c 0,34,35
 98 517 98 517 119.5 562 c 128,-1,36
 141 607 141 607 177.5 639.5 c 128,-1,37
 214 672 214 672 262.5 691 c 128,-1,38
 311 710 311 710 366 714 c 1,39,-1
 388 815 l 1,40,-1
 439 815 l 1,41,-1
 417 714 l 1,42,43
 479 710 479 710 526.5 688 c 128,-1,44
 574 666 574 666 607 635 c 1,45,-1
 537 543 l 1,0,1
420 202 m 0,46,47
 420 236 420 236 393 255.5 c 128,-1,48
 366 275 366 275 319 291 c 1,49,-1
 278 94 l 1,50,51
 347 95 347 95 383.5 123.5 c 128,-1,52
 420 152 420 152 420 202 c 0,46,47
222 499 m 0,53,54
 222 467 222 467 244 449.5 c 128,-1,55
 266 432 266 432 310 418 c 1,56,-1
 352 614 l 1,57,58
 285 610 285 610 253.5 578.5 c 128,-1,59
 222 547 222 547 222 499 c 0,53,54
EndSplineSet
EndChar

StartChar: percent
Encoding: 37 37 9
Width: 732
GlyphClass: 2
Flags: W
LayerCount: 2
Fore
SplineSet
215 423 m 0,0,1
 159 423 159 423 125 458.5 c 128,-1,2
 91 494 91 494 91 546 c 0,3,4
 91 581 91 581 107 612.5 c 128,-1,5
 123 644 123 644 149 668 c 128,-1,6
 175 692 175 692 208.5 706 c 128,-1,7
 242 720 242 720 278 720 c 0,8,9
 306 720 306 720 329 710.5 c 128,-1,10
 352 701 352 701 368.5 684.5 c 128,-1,11
 385 668 385 668 394 645.5 c 128,-1,12
 403 623 403 623 403 597 c 0,13,14
 403 562 403 562 387 530.5 c 128,-1,15
 371 499 371 499 345 475 c 128,-1,16
 319 451 319 451 285 437 c 128,-1,17
 251 423 251 423 215 423 c 0,0,1
227 480 m 0,18,19
 245 480 245 480 262.5 489 c 128,-1,20
 280 498 280 498 293.5 513.5 c 128,-1,21
 307 529 307 529 315.5 549 c 128,-1,22
 324 569 324 569 324 590 c 0,23,24
 324 621 324 621 308 642 c 128,-1,25
 292 663 292 663 266 663 c 0,26,27
 248 663 248 663 231 653.5 c 128,-1,28
 214 644 214 644 200.5 629 c 128,-1,29
 187 614 187 614 178.5 594 c 128,-1,30
 170 574 170 574 170 553 c 0,31,32
 170 522 170 522 185.5 501 c 128,-1,33
 201 480 201 480 227 480 c 0,18,19
477 -10 m 0,34,35
 421 -10 421 -10 387 25.5 c 128,-1,36
 353 61 353 61 353 113 c 0,37,38
 353 148 353 148 369 179.5 c 128,-1,39
 385 211 385 211 411 235 c 128,-1,40
 437 259 437 259 470.5 273 c 128,-1,41
 504 287 504 287 540 287 c 0,42,43
 597 287 597 287 630.5 251.5 c 128,-1,44
 664 216 664 216 664 164 c 0,45,46
 664 129 664 129 648.5 97.5 c 128,-1,47
 633 66 633 66 606.5 42 c 128,-1,48
 580 18 580 18 546.5 4 c 128,-1,49
 513 -10 513 -10 477 -10 c 0,34,35
489 47 m 0,50,51
 507 47 507 47 524 56 c 128,-1,52
 541 65 541 65 555 80.5 c 128,-1,53
 569 96 569 96 577.5 116 c 128,-1,54
 586 136 586 136 586 157 c 0,55,56
 586 188 586 188 569.5 209 c 128,-1,57
 553 230 553 230 527 230 c 0,58,59
 509 230 509 230 492 221 c 128,-1,60
 475 212 475 212 461.5 196.5 c 128,-1,61
 448 181 448 181 439.5 161 c 128,-1,62
 431 141 431 141 431 120 c 0,63,64
 431 89 431 89 447 68 c 128,-1,65
 463 47 463 47 489 47 c 0,50,51
26 40 m 1,66,-1
 364 373 l 1,67,-1
 687 716 l 1,68,-1
 729 671 l 1,69,-1
 397 342 l 1,70,-1
 68 -6 l 1,71,-1
 26 40 l 1,66,-1
EndSplineSet
EndChar

StartChar: ampersand
Encoding: 38 38 10
Width: 684
GlyphClass: 2
Flags: W
LayerCount: 2
Fore
SplineSet
401 82 m 1,0,1
 352 37 352 37 298 13.5 c 128,-1,2
 244 -10 244 -10 190 -10 c 0,3,4
 150 -10 150 -10 117.5 3 c 128,-1,5
 85 16 85 16 62.5 39 c 128,-1,6
 40 62 40 62 28 92.5 c 128,-1,7
 16 123 16 123 16 159 c 0,8,9
 16 200 16 200 30.5 233.5 c 128,-1,10
 45 267 45 267 69 295 c 128,-1,11
 93 323 93 323 124.5 346.5 c 128,-1,12
 156 370 156 370 191 392 c 1,13,14
 165 434 165 434 152.5 466 c 128,-1,15
 140 498 140 498 140 528 c 0,16,17
 140 568 140 568 157.5 603 c 128,-1,18
 175 638 175 638 205 664 c 128,-1,19
 235 690 235 690 274.5 704.5 c 128,-1,20
 314 719 314 719 357 719 c 0,21,22
 414 719 414 719 458 689.5 c 128,-1,23
 502 660 502 660 522 603 c 1,24,-1
 446 550 l 1,25,26
 433 589 433 589 405 613 c 128,-1,27
 377 637 377 637 343 637 c 0,28,29
 323 637 323 637 305 629.5 c 128,-1,30
 287 622 287 622 273 609.5 c 128,-1,31
 259 597 259 597 251 580.5 c 128,-1,32
 243 564 243 564 243 546 c 0,33,34
 243 526 243 526 256 498 c 128,-1,35
 269 470 269 470 304 420 c 2,36,-1
 426 243 l 1,37,38
 446 281 446 281 460.5 324 c 128,-1,39
 475 367 475 367 483 416 c 1,40,-1
 662 416 l 1,41,-1
 647 334 l 1,42,-1
 557 334 l 1,43,44
 527 241 527 241 477 170 c 1,45,-1
 596 0 l 1,46,-1
 457 0 l 1,47,-1
 401 82 l 1,0,1
216 76 m 0,48,49
 252 76 252 76 288.5 94.5 c 128,-1,50
 325 113 325 113 357 146 c 1,51,-1
 238 322 l 1,52,53
 184 288 184 288 153.5 253 c 128,-1,54
 123 218 123 218 123 171 c 0,55,56
 123 125 123 125 150 100.5 c 128,-1,57
 177 76 177 76 216 76 c 0,48,49
EndSplineSet
EndChar

StartChar: quotesingle
Encoding: 39 39 11
Width: 219
GlyphClass: 2
Flags: W
LayerCount: 2
Fore
SplineSet
103 500 m 1,0,-1
 150 721 l 1,1,-1
 244 721 l 1,2,-1
 197 500 l 1,3,-1
 103 500 l 1,0,-1
EndSplineSet
EndChar

StartChar: parenleft
Encoding: 40 40 12
Width: 291
GlyphClass: 2
Flags: W
LayerCount: 2
Fore
SplineSet
39 262 m 0,0,1
 39 328 39 328 57.5 389 c 128,-1,2
 76 450 76 450 107.5 509.5 c 128,-1,3
 139 569 139 569 182 628 c 128,-1,4
 225 687 225 687 274 750 c 1,5,-1
 350 714 l 1,6,7
 317 673 317 673 280 620 c 128,-1,8
 243 567 243 567 212.5 508.5 c 128,-1,9
 182 450 182 450 162 388.5 c 128,-1,10
 142 327 142 327 142 270 c 0,11,12
 142 207 142 207 156 133.5 c 128,-1,13
 170 60 170 60 195 -6 c 1,14,-1
 105 -47 l 1,15,16
 90 -13 90 -13 78 25.5 c 128,-1,17
 66 64 66 64 57.5 104 c 128,-1,18
 49 144 49 144 44 184 c 128,-1,19
 39 224 39 224 39 262 c 0,0,1
EndSplineSet
EndChar

StartChar: parenright
Encoding: 41 41 13
Width: 290
GlyphClass: 2
Flags: W
LayerCount: 2
Fore
SplineSet
272 432 m 0,0,1
 272 367 272 367 253.5 305.5 c 128,-1,2
 235 244 235 244 203 184.5 c 128,-1,3
 171 125 171 125 128.5 67.5 c 128,-1,4
 86 10 86 10 38 -47 c 1,5,-1
 -35 -6 l 1,6,7
 9 49 9 49 46 102.5 c 128,-1,8
 83 156 83 156 110 209 c 128,-1,9
 137 262 137 262 152 315 c 128,-1,10
 167 368 167 368 167 424 c 0,11,12
 167 465 167 465 162 508 c 128,-1,13
 157 551 157 551 149.5 590 c 128,-1,14
 142 629 142 629 133 661.5 c 128,-1,15
 124 694 124 694 116 714 c 1,16,-1
 208 750 l 1,17,18
 235 674 235 674 253.5 591 c 128,-1,19
 272 508 272 508 272 432 c 0,0,1
EndSplineSet
EndChar

StartChar: asterisk
Encoding: 42 42 14
Width: 329
GlyphClass: 2
Flags: W
LayerCount: 2
Fore
SplineSet
126 530 m 1,0,-1
 183 597 l 1,1,-1
 122 619 l 1,2,-1
 148 669 l 1,3,-1
 209 640 l 1,4,-1
 221 716 l 1,5,-1
 281 716 l 1,6,-1
 261 640 l 1,7,-1
 336 669 l 1,8,-1
 340 619 l 1,9,-1
 269 597 l 1,10,-1
 298 530 l 1,11,-1
 248 500 l 1,12,-1
 221 571 l 1,13,-1
 163 500 l 1,14,-1
 126 530 l 1,0,-1
EndSplineSet
EndChar

StartChar: plus
Encoding: 43 43 15
Width: 421
GlyphClass: 2
Flags: W
LayerCount: 2
Fore
SplineSet
380 399 m 1,0,-1
 380 311 l 1,1,-1
 270 311 l 1,2,-1
 270 190 l 1,3,-1
 170 190 l 1,4,-1
 170 311 l 1,5,-1
 59 311 l 1,6,-1
 59 399 l 1,7,-1
 170 399 l 1,8,-1
 170 520 l 1,9,-1
 270 520 l 1,10,-1
 270 399 l 1,11,-1
 380 399 l 1,0,-1
EndSplineSet
EndChar

StartChar: comma
Encoding: 44 44 16
Width: 218
GlyphClass: 2
Flags: W
LayerCount: 2
Fore
SplineSet
-11 -97 m 1,0,-1
 34 6 l 1,1,-1
 -1 6 l 1,2,-1
 24 128 l 1,3,-1
 122 128 l 1,4,-1
 97 6 l 1,5,-1
 40 -97 l 1,6,-1
 -11 -97 l 1,0,-1
EndSplineSet
EndChar

StartChar: hyphen
Encoding: 45 45 17
Width: 404
GlyphClass: 2
Flags: W
LayerCount: 2
Fore
SplineSet
43 224 m 1,0,-1
 64 323 l 1,1,-1
 349 323 l 1,2,-1
 328 224 l 1,3,-1
 43 224 l 1,0,-1
EndSplineSet
EndChar

StartChar: period
Encoding: 46 46 18
Width: 212
GlyphClass: 2
Flags: W
LayerCount: 2
Fore
SplineSet
-3 0 m 1,0,-1
 24 128 l 1,1,-1
 116 128 l 1,2,-1
 88 0 l 1,3,-1
 -3 0 l 1,0,-1
EndSplineSet
EndChar

StartChar: slash
Encoding: 47 47 19
Width: 659
GlyphClass: 2
Flags: W
LayerCount: 2
Fore
SplineSet
711 710 m 1,0,-1
 96 0 l 1,1,-1
 -26 0 l 1,2,-1
 589 710 l 1,3,-1
 711 710 l 1,0,-1
EndSplineSet
EndChar

StartChar: zero
Encoding: 48 48 20
Width: 670
GlyphClass: 2
Flags: W
LayerCount: 2
Fore
SplineSet
269 -10 m 0,0,1
 210 -10 210 -10 168 15.5 c 128,-1,2
 126 41 126 41 99 82.5 c 128,-1,3
 72 124 72 124 59.5 175 c 128,-1,4
 47 226 47 226 47 277 c 0,5,6
 47 326 47 326 60.5 377.5 c 128,-1,7
 74 429 74 429 98.5 477 c 128,-1,8
 123 525 123 525 157.5 567.5 c 128,-1,9
 192 610 192 610 233.5 641.5 c 128,-1,10
 275 673 275 673 322.5 691.5 c 128,-1,11
 370 710 370 710 422 710 c 0,12,13
 481 710 481 710 523 684 c 128,-1,14
 565 658 565 658 592 616.5 c 128,-1,15
 619 575 619 575 631.5 523.5 c 128,-1,16
 644 472 644 472 644 421 c 0,17,18
 644 347 644 347 614.5 270 c 128,-1,19
 585 193 585 193 534 131 c 128,-1,20
 483 69 483 69 414.5 29.5 c 128,-1,21
 346 -10 346 -10 269 -10 c 0,0,1
290 91 m 0,22,23
 344 91 344 91 388 123.5 c 128,-1,24
 432 156 432 156 463.5 204.5 c 128,-1,25
 495 253 495 253 512 309.5 c 128,-1,26
 529 366 529 366 529 414 c 0,27,28
 529 450 529 450 521.5 485 c 128,-1,29
 514 520 514 520 498 547.5 c 128,-1,30
 482 575 482 575 458 592 c 128,-1,31
 434 609 434 609 400 609 c 0,32,33
 345 609 345 609 301 574.5 c 128,-1,34
 257 540 257 540 226 489 c 128,-1,35
 195 438 195 438 178 379 c 128,-1,36
 161 320 161 320 161 271 c 0,37,38
 161 236 161 236 168 203.5 c 128,-1,39
 175 171 175 171 191 146 c 128,-1,40
 207 121 207 121 231 106 c 128,-1,41
 255 91 255 91 290 91 c 0,22,23
EndSplineSet
Substitution2: "'lnum' Lining Figures in Latin lookup 3 subtable" zero.lnum
Substitution2: "'aalt' Access All Alternates in Latin lookup 0 subtable" zero.lnum
EndChar

StartChar: one
Encoding: 49 49 21
Width: 448
GlyphClass: 2
Flags: W
LayerCount: 2
Fore
SplineSet
22 99 m 1,0,-1
 152 99 l 1,1,-1
 260 605 l 1,2,3
 250 593 250 593 229 578.5 c 128,-1,4
 208 564 208 564 183.5 550.5 c 128,-1,5
 159 537 159 537 133.5 528 c 128,-1,6
 108 519 108 519 89 519 c 1,7,-1
 111 621 l 1,8,9
 136 621 136 621 166 635.5 c 128,-1,10
 196 650 196 650 222 667.5 c 128,-1,11
 248 685 248 685 265.5 700 c 128,-1,12
 283 715 283 715 284 717 c 2,13,-1
 396 717 l 1,14,-1
 265 99 l 1,15,-1
 385 99 l 1,16,-1
 364 0 l 1,17,-1
 1 0 l 1,18,-1
 22 99 l 1,0,-1
EndSplineSet
Substitution2: "'lnum' Lining Figures in Latin lookup 3 subtable" one.lnum
Substitution2: "'aalt' Access All Alternates in Latin lookup 0 subtable" one.lnum
EndChar

StartChar: two
Encoding: 50 50 22
Width: 576
GlyphClass: 2
Flags: W
LayerCount: 2
Fore
SplineSet
-20 0 m 1,0,1
 -5 70 -5 70 16 121 c 128,-1,2
 37 172 37 172 66 210.5 c 128,-1,3
 95 249 95 249 134.5 277.5 c 128,-1,4
 174 306 174 306 227 330 c 0,5,6
 266 348 266 348 305 364.5 c 128,-1,7
 344 381 344 381 375.5 402.5 c 128,-1,8
 407 424 407 424 427 454 c 128,-1,9
 447 484 447 484 447 530 c 0,10,11
 447 568 447 568 424.5 593 c 128,-1,12
 402 618 402 618 356 618 c 0,13,14
 327 618 327 618 299 609.5 c 128,-1,15
 271 601 271 601 246.5 587.5 c 128,-1,16
 222 574 222 574 201.5 558 c 128,-1,17
 181 542 181 542 166 527 c 1,18,-1
 112 600 l 1,19,20
 125 613 125 613 151.5 633 c 128,-1,21
 178 653 178 653 214 672 c 128,-1,22
 250 691 250 691 295 705 c 128,-1,23
 340 719 340 719 391 719 c 0,24,25
 437 719 437 719 471 706 c 128,-1,26
 505 693 505 693 527.5 670.5 c 128,-1,27
 550 648 550 648 561.5 617 c 128,-1,28
 573 586 573 586 573 550 c 0,29,30
 573 492 573 492 554 451 c 128,-1,31
 535 410 535 410 503.5 379.5 c 128,-1,32
 472 349 472 349 430.5 326 c 128,-1,33
 389 303 389 303 344 282 c 256,34,35
 299 261 299 261 265.5 241 c 128,-1,36
 232 221 232 221 209 199.5 c 128,-1,37
 186 178 186 178 172 153.5 c 128,-1,38
 158 129 158 129 152 99 c 1,39,-1
 482 99 l 1,40,-1
 461 0 l 1,41,-1
 -20 0 l 1,42,-1
 -20 0 l 1,0,1
EndSplineSet
Substitution2: "'lnum' Lining Figures in Latin lookup 3 subtable" two.lnum
Substitution2: "'aalt' Access All Alternates in Latin lookup 0 subtable" two.lnum
EndChar

StartChar: three
Encoding: 51 51 23
Width: 560
GlyphClass: 2
Flags: W
LayerCount: 2
Fore
SplineSet
198 -9 m 0,0,1
 111 -9 111 -9 61 30.5 c 128,-1,2
 11 70 11 70 6 139 c 1,3,-1
 81 209 l 1,4,5
 81 188 81 188 88.5 167.5 c 128,-1,6
 96 147 96 147 112 130.5 c 128,-1,7
 128 114 128 114 153 103.5 c 128,-1,8
 178 93 178 93 214 93 c 0,9,10
 247 93 247 93 276.5 102 c 128,-1,11
 306 111 306 111 329 127.5 c 128,-1,12
 352 144 352 144 365.5 167 c 128,-1,13
 379 190 379 190 379 217 c 0,14,15
 379 268 379 268 332.5 293 c 128,-1,16
 286 318 286 318 200 318 c 2,17,-1
 168 318 l 1,18,-1
 188 411 l 1,19,-1
 220 411 l 2,20,21
 265 411 265 411 303 419 c 128,-1,22
 341 427 341 427 369 442.5 c 128,-1,23
 397 458 397 458 412.5 481 c 128,-1,24
 428 504 428 504 428 534 c 0,25,26
 428 578 428 578 399.5 600 c 128,-1,27
 371 622 371 622 329 622 c 0,28,29
 302 622 302 622 276.5 614.5 c 128,-1,30
 251 607 251 607 229 594 c 128,-1,31
 207 581 207 581 190 565 c 128,-1,32
 173 549 173 549 162 533 c 1,33,-1
 107 612 l 1,34,35
 128 637 128 637 156 657 c 128,-1,36
 184 677 184 677 216.5 690.5 c 128,-1,37
 249 704 249 704 284 711.5 c 128,-1,38
 319 719 319 719 352 719 c 0,39,40
 396 719 396 719 432 706.5 c 128,-1,41
 468 694 468 694 493.5 671.5 c 128,-1,42
 519 649 519 649 533 618.5 c 128,-1,43
 547 588 547 588 547 551 c 0,44,45
 547 486 547 486 504 437 c 128,-1,46
 461 388 461 388 382 370 c 1,47,48
 435 359 435 359 463.5 318.5 c 128,-1,49
 492 278 492 278 492 221 c 0,50,51
 492 166 492 166 465.5 123 c 128,-1,52
 439 80 439 80 397 51 c 128,-1,53
 355 22 355 22 302.5 6.5 c 128,-1,54
 250 -9 250 -9 198 -9 c 0,0,1
EndSplineSet
Substitution2: "'lnum' Lining Figures in Latin lookup 3 subtable" three.lnum
Substitution2: "'aalt' Access All Alternates in Latin lookup 0 subtable" three.lnum
EndChar

StartChar: four
Encoding: 52 52 24
Width: 559
GlyphClass: 2
Flags: W
LayerCount: 2
Fore
SplineSet
261 0 m 1,0,-1
 297 172 l 1,1,-1
 0 172 l 1,2,-1
 21 270 l 1,3,-1
 446 710 l 1,4,-1
 521 710 l 1,5,-1
 428 271 l 1,6,-1
 512 271 l 1,7,-1
 491 172 l 1,8,-1
 407 172 l 1,9,-1
 371 0 l 1,10,-1
 261 0 l 1,0,-1
330 271 m 1,11,-1
 388 543 l 1,12,-1
 133 271 l 1,13,-1
 330 271 l 1,11,-1
EndSplineSet
Substitution2: "'lnum' Lining Figures in Latin lookup 3 subtable" four.lnum
Substitution2: "'aalt' Access All Alternates in Latin lookup 0 subtable" four.lnum
EndChar

StartChar: five
Encoding: 53 53 25
Width: 543
GlyphClass: 2
Flags: W
LayerCount: 2
Fore
SplineSet
191 -10 m 0,0,1
 118 -10 118 -10 67 24.5 c 128,-1,2
 16 59 16 59 -2 119 c 1,3,-1
 77 182 l 1,4,5
 94 139 94 139 130 113.5 c 128,-1,6
 166 88 166 88 212 88 c 0,7,8
 245 88 245 88 274.5 100.5 c 128,-1,9
 304 113 304 113 326.5 135.5 c 128,-1,10
 349 158 349 158 362.5 188.5 c 128,-1,11
 376 219 376 219 376 254 c 0,12,13
 376 302 376 302 349.5 331.5 c 128,-1,14
 323 361 323 361 278 361 c 0,15,16
 243 361 243 361 209 344 c 128,-1,17
 175 327 175 327 149 296 c 1,18,-1
 52 296 l 1,19,20
 58 310 58 310 71.5 343.5 c 128,-1,21
 85 377 85 377 102 420.5 c 128,-1,22
 119 464 119 464 138 512 c 128,-1,23
 157 560 157 560 173.5 601.5 c 128,-1,24
 190 643 190 643 201.5 672.5 c 128,-1,25
 213 702 213 702 217 710 c 1,26,-1
 548 710 l 1,27,-1
 526 609 l 1,28,-1
 276 609 l 1,29,-1
 202 416 l 1,30,31
 222 435 222 435 250 445.5 c 128,-1,32
 278 456 278 456 313 456 c 0,33,34
 353 456 353 456 386.5 442.5 c 128,-1,35
 420 429 420 429 443 405 c 128,-1,36
 466 381 466 381 479 347 c 128,-1,37
 492 313 492 313 492 273 c 0,38,39
 492 212 492 212 467.5 160 c 128,-1,40
 443 108 443 108 401.5 70.5 c 128,-1,41
 360 33 360 33 305.5 11.5 c 128,-1,42
 251 -10 251 -10 191 -10 c 0,0,1
EndSplineSet
Substitution2: "'lnum' Lining Figures in Latin lookup 3 subtable" five.lnum
Substitution2: "'aalt' Access All Alternates in Latin lookup 0 subtable" five.lnum
EndChar

StartChar: six
Encoding: 54 54 26
Width: 591
GlyphClass: 2
Flags: W
LayerCount: 2
Fore
SplineSet
237 -10 m 0,0,1
 145 -10 145 -10 95 51 c 128,-1,2
 45 112 45 112 45 220 c 0,3,4
 45 320 45 320 71 410 c 128,-1,5
 97 500 97 500 144.5 568 c 128,-1,6
 192 636 192 636 257.5 675.5 c 128,-1,7
 323 715 323 715 403 715 c 0,8,9
 467 715 467 715 513.5 684 c 128,-1,10
 560 653 560 653 583 596 c 1,11,-1
 504 528 l 1,12,13
 491 570 491 570 458.5 594.5 c 128,-1,14
 426 619 426 619 380 619 c 0,15,16
 311 619 311 619 256 555.5 c 128,-1,17
 201 492 201 492 175 377 c 1,18,19
 205 422 205 422 251.5 448 c 128,-1,20
 298 474 298 474 350 474 c 0,21,22
 393 474 393 474 427.5 459 c 128,-1,23
 462 444 462 444 487 418 c 128,-1,24
 512 392 512 392 525.5 356.5 c 128,-1,25
 539 321 539 321 539 279 c 0,26,27
 539 220 539 220 514 168 c 128,-1,28
 489 116 489 116 447 76 c 128,-1,29
 405 36 405 36 350.5 13 c 128,-1,30
 296 -10 296 -10 237 -10 c 0,0,1
258 84 m 0,31,32
 290 84 290 84 321 98.5 c 128,-1,33
 352 113 352 113 377 138 c 128,-1,34
 402 163 402 163 417 195 c 128,-1,35
 432 227 432 227 432 263 c 0,36,37
 432 315 432 315 401.5 350.5 c 128,-1,38
 371 386 371 386 321 386 c 0,39,40
 288 386 288 386 257 371.5 c 128,-1,41
 226 357 226 357 202 332.5 c 128,-1,42
 178 308 178 308 163 276 c 128,-1,43
 148 244 148 244 148 209 c 0,44,45
 148 183 148 183 156 160.5 c 128,-1,46
 164 138 164 138 178.5 121 c 128,-1,47
 193 104 193 104 213.5 94 c 128,-1,48
 234 84 234 84 258 84 c 0,31,32
EndSplineSet
Substitution2: "'lnum' Lining Figures in Latin lookup 3 subtable" six.lnum
Substitution2: "'aalt' Access All Alternates in Latin lookup 0 subtable" six.lnum
EndChar

StartChar: seven
Encoding: 55 55 27
Width: 529
GlyphClass: 2
Flags: W
LayerCount: 2
Fore
SplineSet
418 609 m 1,0,-1
 96 609 l 1,1,-1
 117 710 l 1,2,-1
 613 710 l 1,3,-1
 125 0 l 1,4,-1
 1 0 l 1,5,-1
 418 609 l 1,0,-1
EndSplineSet
Substitution2: "'lnum' Lining Figures in Latin lookup 3 subtable" seven.lnum
Substitution2: "'aalt' Access All Alternates in Latin lookup 0 subtable" seven.lnum
EndChar

StartChar: eight
Encoding: 56 56 28
Width: 579
GlyphClass: 2
Flags: W
LayerCount: 2
Fore
SplineSet
515 238 m 0,0,1
 515 184 515 184 490 138.5 c 128,-1,2
 465 93 465 93 424 60.5 c 128,-1,3
 383 28 383 28 330.5 10 c 128,-1,4
 278 -8 278 -8 222 -8 c 0,5,6
 178 -8 178 -8 141 5.5 c 128,-1,7
 104 19 104 19 77.5 43 c 128,-1,8
 51 67 51 67 36.5 100.5 c 128,-1,9
 22 134 22 134 22 173 c 0,10,11
 22 213 22 213 36.5 246 c 128,-1,12
 51 279 51 279 74 305 c 128,-1,13
 97 331 97 331 124 350 c 128,-1,14
 151 369 151 369 177 380 c 1,15,16
 149 395 149 395 130.5 425.5 c 128,-1,17
 112 456 112 456 112 494 c 0,18,19
 112 545 112 545 137.5 585 c 128,-1,20
 163 625 163 625 202 653 c 128,-1,21
 241 681 241 681 287.5 695.5 c 128,-1,22
 334 710 334 710 376 710 c 0,23,24
 410 710 410 710 443 699.5 c 128,-1,25
 476 689 476 689 502.5 669 c 128,-1,26
 529 649 529 649 545 619 c 128,-1,27
 561 589 561 589 561 550 c 0,28,29
 561 520 561 520 550 494 c 128,-1,30
 539 468 539 468 521 446 c 128,-1,31
 503 424 503 424 480 407 c 128,-1,32
 457 390 457 390 433 380 c 1,33,34
 467 362 467 362 491 325 c 128,-1,35
 515 288 515 288 515 238 c 0,0,1
404 234 m 0,36,37
 404 258 404 258 395 276.5 c 128,-1,38
 386 295 386 295 371 307.5 c 128,-1,39
 356 320 356 320 336 327 c 128,-1,40
 316 334 316 334 295 334 c 0,41,42
 267 334 267 334 238.5 323.5 c 128,-1,43
 210 313 210 313 187.5 294 c 128,-1,44
 165 275 165 275 151 248.5 c 128,-1,45
 137 222 137 222 137 191 c 0,46,47
 137 168 137 168 146 149.5 c 128,-1,48
 155 131 155 131 170 118 c 128,-1,49
 185 105 185 105 204.5 98 c 128,-1,50
 224 91 224 91 245 91 c 0,51,52
 273 91 273 91 301 101.5 c 128,-1,53
 329 112 329 112 352 131 c 128,-1,54
 375 150 375 150 389.5 176 c 128,-1,55
 404 202 404 202 404 234 c 0,36,37
223 498 m 0,56,57
 223 478 223 478 231 463.5 c 128,-1,58
 239 449 239 449 251.5 438.5 c 128,-1,59
 264 428 264 428 280.5 423 c 128,-1,60
 297 418 297 418 314 418 c 0,61,62
 335 418 335 418 358.5 425.5 c 128,-1,63
 382 433 382 433 401.5 447.5 c 128,-1,64
 421 462 421 462 434 483.5 c 128,-1,65
 447 505 447 505 447 533 c 0,66,67
 447 570 447 570 420 591 c 128,-1,68
 393 612 393 612 355 612 c 0,69,70
 331 612 331 612 307 604 c 128,-1,71
 283 596 283 596 264.5 581 c 128,-1,72
 246 566 246 566 234.5 545 c 128,-1,73
 223 524 223 524 223 498 c 0,56,57
EndSplineSet
Substitution2: "'lnum' Lining Figures in Latin lookup 3 subtable" eight.lnum
Substitution2: "'aalt' Access All Alternates in Latin lookup 0 subtable" eight.lnum
EndChar

StartChar: nine
Encoding: 57 57 29
Width: 592
GlyphClass: 2
Flags: W
LayerCount: 2
Fore
SplineSet
74 426 m 0,0,1
 74 485 74 485 99.5 537.5 c 128,-1,2
 125 590 125 590 167 629.5 c 128,-1,3
 209 669 209 669 263.5 692 c 128,-1,4
 318 715 318 715 377 715 c 0,5,6
 468 715 468 715 518.5 654.5 c 128,-1,7
 569 594 569 594 569 485 c 0,8,9
 569 385 569 385 543 295.5 c 128,-1,10
 517 206 517 206 469.5 138 c 128,-1,11
 422 70 422 70 356.5 30 c 128,-1,12
 291 -10 291 -10 212 -10 c 0,13,14
 147 -10 147 -10 100.5 21.5 c 128,-1,15
 54 53 54 53 31 110 c 1,16,-1
 110 178 l 1,17,18
 123 136 123 136 155.5 111.5 c 128,-1,19
 188 87 188 87 233 87 c 0,20,21
 303 87 303 87 358 150 c 128,-1,22
 413 213 413 213 439 328 c 1,23,24
 410 283 410 283 363 257 c 128,-1,25
 316 231 316 231 264 231 c 0,26,27
 221 231 221 231 186 246 c 128,-1,28
 151 261 151 261 126 287 c 128,-1,29
 101 313 101 313 87.5 349 c 128,-1,30
 74 385 74 385 74 426 c 0,0,1
356 622 m 0,31,32
 324 622 324 622 293 607 c 128,-1,33
 262 592 262 592 237 567.5 c 128,-1,34
 212 543 212 543 197 510.5 c 128,-1,35
 182 478 182 478 182 443 c 0,36,37
 182 391 182 391 212.5 355.5 c 128,-1,38
 243 320 243 320 293 320 c 0,39,40
 325 320 325 320 356.5 334.5 c 128,-1,41
 388 349 388 349 412.5 373 c 128,-1,42
 437 397 437 397 452 429 c 128,-1,43
 467 461 467 461 467 497 c 0,44,45
 467 523 467 523 459 545.5 c 128,-1,46
 451 568 451 568 436.5 585 c 128,-1,47
 422 602 422 602 401.5 612 c 128,-1,48
 381 622 381 622 356 622 c 0,31,32
EndSplineSet
Substitution2: "'lnum' Lining Figures in Latin lookup 3 subtable" nine.lnum
Substitution2: "'aalt' Access All Alternates in Latin lookup 0 subtable" nine.lnum
EndChar

StartChar: colon
Encoding: 58 58 30
Width: 220
GlyphClass: 2
Flags: W
LayerCount: 2
Fore
SplineSet
83 391 m 1,0,-1
 110 518 l 1,1,-1
 201 518 l 1,2,-1
 174 391 l 1,3,-1
 83 391 l 1,0,-1
0 0 m 1,4,-1
 28 128 l 1,5,-1
 118 128 l 1,6,-1
 91 0 l 1,7,-1
 0 0 l 1,4,-1
EndSplineSet
EndChar

StartChar: semicolon
Encoding: 59 59 31
Width: 223
GlyphClass: 2
Flags: W
LayerCount: 2
Fore
SplineSet
84 391 m 1,0,-1
 111 518 l 1,1,-1
 201 518 l 1,2,-1
 174 391 l 1,3,-1
 84 391 l 1,0,-1
-8 -97 m 1,4,-1
 37 6 l 1,5,-1
 2 6 l 1,6,-1
 27 128 l 1,7,-1
 125 128 l 1,8,-1
 99 6 l 1,9,-1
 43 -97 l 1,10,-1
 -8 -97 l 1,4,-1
EndSplineSet
EndChar

StartChar: less
Encoding: 60 60 32
Width: 549
GlyphClass: 2
Flags: W
LayerCount: 2
Fore
SplineSet
30 284 m 1,0,-1
 450 538 l 1,1,-1
 450 421 l 1,2,-1
 189 259 l 1,3,-1
 450 101 l 1,4,-1
 450 -21 l 1,5,-1
 30 229 l 1,6,-1
 30 284 l 1,0,-1
EndSplineSet
EndChar

StartChar: equal
Encoding: 61 61 33
Width: 482
GlyphClass: 2
Flags: W
LayerCount: 2
Fore
SplineSet
80 162 m 1,0,-1
 80 235 l 1,1,-1
 389 235 l 1,2,-1
 389 162 l 1,3,-1
 80 162 l 1,0,-1
80 317 m 1,4,-1
 80 390 l 1,5,-1
 389 390 l 1,6,-1
 389 317 l 1,7,-1
 80 317 l 1,4,-1
EndSplineSet
EndChar

StartChar: greater
Encoding: 62 62 34
Width: 548
GlyphClass: 2
Flags: W
LayerCount: 2
Fore
SplineSet
500 229 m 1,0,-1
 79 -21 l 1,1,-1
 79 101 l 1,2,-1
 340 259 l 1,3,-1
 79 421 l 1,4,-1
 79 538 l 1,5,-1
 500 284 l 1,6,-1
 500 229 l 1,0,-1
EndSplineSet
EndChar

StartChar: question
Encoding: 63 63 35
Width: 466
GlyphClass: 2
Flags: W
LayerCount: 2
Fore
SplineSet
109 221 m 1,0,1
 120 273 120 273 144.5 313 c 128,-1,2
 169 353 169 353 222 382 c 0,3,4
 247 396 247 396 275.5 410.5 c 128,-1,5
 304 425 304 425 327 444 c 128,-1,6
 350 463 350 463 365.5 488 c 128,-1,7
 381 513 381 513 381 548 c 0,8,9
 381 587 381 587 357 608 c 128,-1,10
 333 629 333 629 299 629 c 0,11,12
 277 629 277 629 256.5 621.5 c 128,-1,13
 236 614 236 614 218 601.5 c 128,-1,14
 200 589 200 589 185 573 c 128,-1,15
 170 557 170 557 158 541 c 1,16,-1
 96 590 l 1,17,18
 115 621 115 621 140.5 645 c 128,-1,19
 166 669 166 669 195.5 685.5 c 128,-1,20
 225 702 225 702 257.5 710.5 c 128,-1,21
 290 719 290 719 322 719 c 0,22,23
 353 719 353 719 382 710 c 128,-1,24
 411 701 411 701 433 682 c 128,-1,25
 455 663 455 663 468 634 c 128,-1,26
 481 605 481 605 481 565 c 0,27,28
 481 519 481 519 469 486 c 128,-1,29
 457 453 457 453 436.5 429 c 128,-1,30
 416 405 416 405 388.5 387 c 128,-1,31
 361 369 361 369 330 353 c 0,32,33
 309 342 309 342 288.5 330.5 c 128,-1,34
 268 319 268 319 250.5 304 c 128,-1,35
 233 289 233 289 220 269 c 128,-1,36
 207 249 207 249 201 221 c 1,37,-1
 109 221 l 1,0,1
64 0 m 1,38,-1
 91 126 l 1,39,-1
 182 126 l 1,40,-1
 156 0 l 1,41,-1
 64 0 l 1,38,-1
EndSplineSet
EndChar

StartChar: at
Encoding: 64 64 36
Width: 811
GlyphClass: 2
Flags: W
LayerCount: 2
Fore
SplineSet
573 36 m 0,0,1
 603 36 603 36 627 63 c 128,-1,2
 651 90 651 90 668 130 c 128,-1,3
 685 170 685 170 694 216 c 128,-1,4
 703 262 703 262 703 300 c 0,5,6
 703 350 703 350 687 396.5 c 128,-1,7
 671 443 671 443 639 478.5 c 128,-1,8
 607 514 607 514 560 535.5 c 128,-1,9
 513 557 513 557 452 557 c 0,10,11
 379 557 379 557 310.5 526.5 c 128,-1,12
 242 496 242 496 188.5 443 c 128,-1,13
 135 390 135 390 103 318 c 128,-1,14
 71 246 71 246 71 164 c 0,15,16
 71 107 71 107 87.5 58.5 c 128,-1,17
 104 10 104 10 134.5 -25 c 128,-1,18
 165 -60 165 -60 209.5 -80 c 128,-1,19
 254 -100 254 -100 310 -100 c 0,20,21
 350 -100 350 -100 386.5 -89.5 c 128,-1,22
 423 -79 423 -79 464 -62 c 1,23,-1
 469 -106 l 1,24,25
 426 -126 426 -126 383.5 -136 c 128,-1,26
 341 -146 341 -146 300 -146 c 0,27,28
 238 -146 238 -146 187 -124 c 128,-1,29
 136 -102 136 -102 99 -62 c 128,-1,30
 62 -22 62 -22 42 34 c 128,-1,31
 22 90 22 90 22 159 c 0,32,33
 22 256 22 256 61 338 c 128,-1,34
 100 420 100 420 162.5 478.5 c 128,-1,35
 225 537 225 537 304 570 c 128,-1,36
 383 603 383 603 464 603 c 0,37,38
 532 603 532 603 585.5 579.5 c 128,-1,39
 639 556 639 556 676 516.5 c 128,-1,40
 713 477 713 477 732.5 424 c 128,-1,41
 752 371 752 371 752 313 c 0,42,43
 752 285 752 285 747 250 c 128,-1,44
 742 215 742 215 732 178.5 c 128,-1,45
 722 142 722 142 706.5 107 c 128,-1,46
 691 72 691 72 669 44.5 c 128,-1,47
 647 17 647 17 618.5 0.5 c 128,-1,48
 590 -16 590 -16 555 -16 c 0,49,50
 524 -16 524 -16 503.5 -0.5 c 128,-1,51
 483 15 483 15 483 50 c 0,52,53
 483 55 483 55 483 60 c 128,-1,54
 483 65 483 65 485 70 c 1,55,56
 450 37 450 37 407.5 17.5 c 128,-1,57
 365 -2 365 -2 321 -2 c 0,58,59
 284 -2 284 -2 254.5 12.5 c 128,-1,60
 225 27 225 27 204.5 52 c 128,-1,61
 184 77 184 77 173 110.5 c 128,-1,62
 162 144 162 144 162 182 c 0,63,64
 162 236 162 236 182.5 286.5 c 128,-1,65
 203 337 203 337 237.5 375.5 c 128,-1,66
 272 414 272 414 316 437 c 128,-1,67
 360 460 360 460 408 460 c 0,68,69
 460 460 460 460 493 434 c 128,-1,70
 526 408 526 408 539 369 c 1,71,-1
 555 450 l 1,72,-1
 617 450 l 1,73,-1
 545 107 l 2,74,75
 543 97 543 97 542 88.5 c 128,-1,76
 541 80 541 80 541 74 c 0,77,78
 541 36 541 36 573 36 c 0,0,1
349 56 m 0,79,80
 372 56 372 56 394 64.5 c 128,-1,81
 416 73 416 73 435 88 c 128,-1,82
 454 103 454 103 469 122.5 c 128,-1,83
 484 142 484 142 493 164 c 1,84,-1
 515 297 l 1,85,86
 502 348 502 348 472.5 373 c 128,-1,87
 443 398 443 398 405 398 c 0,88,89
 375 398 375 398 344 382 c 128,-1,90
 313 366 313 366 288 339 c 128,-1,91
 263 312 263 312 247.5 275 c 128,-1,92
 232 238 232 238 232 196 c 0,93,94
 232 166 232 166 240.5 140 c 128,-1,95
 249 114 249 114 265 95.5 c 128,-1,96
 281 77 281 77 302 66.5 c 128,-1,97
 323 56 323 56 349 56 c 0,79,80
EndSplineSet
EndChar

StartChar: A
Encoding: 65 65 37
Width: 649
GlyphClass: 2
Flags: W
LayerCount: 2
Fore
SplineSet
365 710 m 1,0,-1
 464 710 l 1,1,-1
 578 0 l 1,2,-1
 460 0 l 1,3,-1
 432 193 l 1,4,-1
 177 193 l 1,5,-1
 68 0 l 1,6,-1
 -50 0 l 1,7,-1
 365 710 l 1,0,-1
428 276 m 1,8,-1
 388 581 l 1,9,-1
 214 276 l 1,10,-1
 428 276 l 1,8,-1
EndSplineSet
EndChar

StartChar: B
Encoding: 66 66 38
Width: 651
GlyphClass: 2
Flags: W
LayerCount: 2
Fore
SplineSet
166 710 m 1,0,-1
 517 710 l 2,1,2
 547 710 547 710 569.5 697.5 c 128,-1,3
 592 685 592 685 607 665 c 128,-1,4
 622 645 622 645 629.5 619 c 128,-1,5
 637 593 637 593 637 565 c 0,6,7
 637 534 637 534 627.5 503.5 c 128,-1,8
 618 473 618 473 600 446.5 c 128,-1,9
 582 420 582 420 556.5 398.5 c 128,-1,10
 531 377 531 377 500 364 c 1,11,12
 545 349 545 349 568.5 311.5 c 128,-1,13
 592 274 592 274 592 222 c 256,14,15
 592 170 592 170 570.5 129 c 128,-1,16
 549 88 549 88 514 59.5 c 128,-1,17
 479 31 479 31 433.5 15.5 c 128,-1,18
 388 0 388 0 339 0 c 2,19,-1
 15 0 l 1,20,-1
 166 710 l 1,0,-1
359 97 m 2,21,22
 382 97 382 97 404 107.5 c 128,-1,23
 426 118 426 118 443 136 c 128,-1,24
 460 154 460 154 470.5 177.5 c 128,-1,25
 481 201 481 201 481 227 c 0,26,27
 481 262 481 262 462.5 288 c 128,-1,28
 444 314 444 314 412 314 c 2,29,-1
 194 314 l 1,30,-1
 149 97 l 1,31,-1
 359 97 l 2,21,22
404 404 m 2,32,33
 426 404 426 404 447 414 c 128,-1,34
 468 424 468 424 484 441 c 128,-1,35
 500 458 500 458 509.5 481.5 c 128,-1,36
 519 505 519 505 519 532 c 0,37,38
 519 567 519 567 501.5 590 c 128,-1,39
 484 613 484 613 455 613 c 2,40,-1
 258 613 l 1,41,-1
 213 404 l 1,42,-1
 404 404 l 2,32,33
EndSplineSet
EndChar

StartChar: C
Encoding: 67 67 39
Width: 655
GlyphClass: 2
Flags: W
LayerCount: 2
Fore
SplineSet
294 -6 m 0,0,1
 234 -6 234 -6 186.5 19.5 c 128,-1,2
 139 45 139 45 107 87 c 128,-1,3
 75 129 75 129 58 183 c 128,-1,4
 41 237 41 237 41 295 c 0,5,6
 41 368 41 368 72 442.5 c 128,-1,7
 103 517 103 517 158 577.5 c 128,-1,8
 213 638 213 638 288.5 676 c 128,-1,9
 364 714 364 714 453 714 c 0,10,11
 545 714 545 714 602 671 c 128,-1,12
 659 628 659 628 677 559 c 1,13,-1
 577 500 l 1,14,15
 570 532 570 532 555 554 c 128,-1,16
 540 576 540 576 519.5 589 c 128,-1,17
 499 602 499 602 475 607.5 c 128,-1,18
 451 613 451 613 427 613 c 0,19,20
 366 613 366 613 316 584 c 128,-1,21
 266 555 266 555 230.5 509.5 c 128,-1,22
 195 464 195 464 175.5 409 c 128,-1,23
 156 354 156 354 156 302 c 0,24,25
 156 260 156 260 167 222.5 c 128,-1,26
 178 185 178 185 199 156.5 c 128,-1,27
 220 128 220 128 250.5 111.5 c 128,-1,28
 281 95 281 95 320 95 c 0,29,30
 344 95 344 95 371.5 101.5 c 128,-1,31
 399 108 399 108 425.5 122.5 c 128,-1,32
 452 137 452 137 476.5 159 c 128,-1,33
 501 181 501 181 521 212 c 1,34,-1
 603 159 l 1,35,36
 579 119 579 119 543 88.5 c 128,-1,37
 507 58 507 58 465 37 c 128,-1,38
 423 16 423 16 378.5 5 c 128,-1,39
 334 -6 334 -6 294 -6 c 0,0,1
EndSplineSet
EndChar

StartChar: D
Encoding: 68 68 40
Width: 692
GlyphClass: 2
Flags: W
LayerCount: 2
Fore
SplineSet
166 710 m 1,0,-1
 407 710 l 2,1,2
 475 710 475 710 525 689 c 128,-1,3
 575 668 575 668 607.5 631 c 128,-1,4
 640 594 640 594 656 544 c 128,-1,5
 672 494 672 494 672 436 c 0,6,7
 672 342 672 342 640.5 262 c 128,-1,8
 609 182 609 182 553.5 124 c 128,-1,9
 498 66 498 66 421.5 33 c 128,-1,10
 345 0 345 0 256 0 c 2,11,-1
 15 0 l 1,12,-1
 166 710 l 1,0,-1
277 99 m 2,13,14
 341 99 341 99 392.5 125 c 128,-1,15
 444 151 444 151 480.5 195.5 c 128,-1,16
 517 240 517 240 536.5 298 c 128,-1,17
 556 356 556 356 556 419 c 0,18,19
 556 461 556 461 545 496 c 128,-1,20
 534 531 534 531 513 556.5 c 128,-1,21
 492 582 492 582 460 596.5 c 128,-1,22
 428 611 428 611 386 611 c 2,23,-1
 258 611 l 1,24,-1
 149 99 l 1,25,-1
 277 99 l 2,13,14
EndSplineSet
EndChar

StartChar: E
Encoding: 69 69 41
Width: 579
GlyphClass: 2
Flags: W
LayerCount: 2
Fore
SplineSet
166 710 m 1,0,-1
 621 710 l 1,1,-1
 600 611 l 1,2,-1
 258 611 l 1,3,-1
 215 409 l 1,4,-1
 511 409 l 1,5,-1
 492 316 l 1,6,-1
 195 316 l 1,7,-1
 149 99 l 1,8,-1
 500 99 l 1,9,-1
 479 0 l 1,10,-1
 15 0 l 1,11,-1
 166 710 l 1,0,-1
EndSplineSet
EndChar

StartChar: F
Encoding: 70 70 42
Width: 561
GlyphClass: 2
Flags: W
LayerCount: 2
Fore
SplineSet
166 710 m 1,0,-1
 616 710 l 1,1,-1
 595 611 l 1,2,-1
 258 611 l 1,3,-1
 213 399 l 1,4,-1
 495 399 l 1,5,-1
 475 306 l 1,6,-1
 193 306 l 1,7,-1
 128 0 l 1,8,-1
 15 0 l 1,9,-1
 166 710 l 1,0,-1
EndSplineSet
EndChar

StartChar: G
Encoding: 71 71 43
Width: 691
GlyphClass: 2
Flags: W
LayerCount: 2
Fore
SplineSet
505 87 m 1,0,1
 401 -5 401 -5 292 -5 c 0,2,3
 235 -5 235 -5 188.5 18.5 c 128,-1,4
 142 42 142 42 109 82 c 128,-1,5
 76 122 76 122 58.5 176 c 128,-1,6
 41 230 41 230 41 290 c 0,7,8
 41 373 41 373 75 450 c 128,-1,9
 109 527 109 527 166 586 c 128,-1,10
 223 645 223 645 296.5 680 c 128,-1,11
 370 715 370 715 449 715 c 0,12,13
 546 715 546 715 602.5 672.5 c 128,-1,14
 659 630 659 630 679 560 c 1,15,-1
 581 498 l 1,16,17
 565 556 565 556 523.5 585 c 128,-1,18
 482 614 482 614 424 614 c 0,19,20
 370 614 370 614 321 587 c 128,-1,21
 272 560 272 560 235.5 515.5 c 128,-1,22
 199 471 199 471 177.5 414.5 c 128,-1,23
 156 358 156 358 156 299 c 0,24,25
 156 257 156 257 167.5 220 c 128,-1,26
 179 183 179 183 200.5 155.5 c 128,-1,27
 222 128 222 128 253 112 c 128,-1,28
 284 96 284 96 322 96 c 0,29,30
 426 96 426 96 530 201 c 1,31,-1
 546 276 l 1,32,-1
 406 276 l 1,33,-1
 424 359 l 1,34,-1
 657 359 l 1,35,-1
 581 0 l 1,36,-1
 487 0 l 1,37,-1
 505 87 l 1,0,1
EndSplineSet
Substitution2: "'ss01' Style Set 1 in Latin lookup 8 subtable" G.alt
Substitution2: "'salt' Stylistic Alternatives in Latin lookup 5 subtable" G.alt
Substitution2: "'aalt' Access All Alternates in Latin lookup 0 subtable" G.alt
EndChar

StartChar: H
Encoding: 72 72 44
Width: 715
GlyphClass: 2
Flags: W
LayerCount: 2
Fore
SplineSet
166 710 m 1,0,-1
 279 710 l 1,1,-1
 216 413 l 1,2,-1
 548 413 l 1,3,-1
 611 710 l 1,4,-1
 723 710 l 1,5,-1
 572 0 l 1,6,-1
 460 0 l 1,7,-1
 527 313 l 1,8,-1
 195 313 l 1,9,-1
 128 0 l 1,10,-1
 15 0 l 1,11,-1
 166 710 l 1,0,-1
EndSplineSet
EndChar

StartChar: I
Encoding: 73 73 45
Width: 271
GlyphClass: 2
Flags: W
LayerCount: 2
Fore
SplineSet
166 709 m 1,0,-1
 279 709 l 1,1,-1
 128 0 l 1,2,-1
 15 0 l 1,3,-1
 166 709 l 1,0,-1
EndSplineSet
EndChar

StartChar: J
Encoding: 74 74 46
Width: 475
GlyphClass: 2
Flags: W
LayerCount: 2
Fore
SplineSet
96 -11 m 0,0,1
 11 -11 11 -11 -41 33 c 1,2,-1
 5 125 l 1,3,4
 18 113 18 113 47 101.5 c 128,-1,5
 76 90 76 90 117 90 c 0,6,7
 160 90 160 90 189 106.5 c 128,-1,8
 218 123 218 123 238.5 155.5 c 128,-1,9
 259 188 259 188 273.5 236.5 c 128,-1,10
 288 285 288 285 302 349 c 2,11,-1
 379 709 l 1,12,-1
 491 709 l 1,13,-1
 414 349 l 2,14,15
 397 268 397 268 375.5 201.5 c 128,-1,16
 354 135 354 135 318.5 88 c 128,-1,17
 283 41 283 41 230 15 c 128,-1,18
 177 -11 177 -11 96 -11 c 0,0,1
EndSplineSet
EndChar

StartChar: K
Encoding: 75 75 47
Width: 634
GlyphClass: 2
Flags: W
LayerCount: 2
Fore
SplineSet
166 709 m 1,0,-1
 279 709 l 1,1,-1
 201 344 l 1,2,-1
 587 710 l 1,3,-1
 712 710 l 1,4,-1
 381 396 l 1,5,-1
 576 0 l 1,6,-1
 450 0 l 1,7,-1
 296 327 l 1,8,-1
 173 214 l 1,9,-1
 128 0 l 1,10,-1
 15 0 l 1,11,-1
 166 709 l 1,0,-1
EndSplineSet
EndChar

StartChar: L
Encoding: 76 76 48
Width: 560
GlyphClass: 2
Flags: W
LayerCount: 2
Fore
SplineSet
166 710 m 1,0,-1
 279 710 l 1,1,-1
 149 99 l 1,2,-1
 506 99 l 1,3,-1
 485 0 l 1,4,-1
 15 0 l 1,5,-1
 166 710 l 1,0,-1
EndSplineSet
EndChar

StartChar: M
Encoding: 77 77 49
Width: 834
GlyphClass: 2
Flags: W
LayerCount: 2
Fore
SplineSet
166 710 m 1,0,-1
 286 710 l 1,1,-1
 412 276 l 1,2,-1
 723 710 l 1,3,-1
 842 710 l 1,4,-1
 691 0 l 1,5,-1
 578 0 l 1,6,-1
 687 511 l 1,7,-1
 411 124 l 1,8,-1
 349 124 l 1,9,-1
 237 511 l 1,10,-1
 128 0 l 1,11,-1
 15 0 l 1,12,-1
 166 710 l 1,0,-1
EndSplineSet
EndChar

StartChar: N
Encoding: 78 78 50
Width: 736
GlyphClass: 2
Flags: W
LayerCount: 2
Fore
SplineSet
166 710 m 1,0,-1
 254 710 l 1,1,-1
 523 198 l 1,2,-1
 631 709 l 1,3,-1
 744 709 l 1,4,-1
 593 0 l 1,5,-1
 501 0 l 1,6,-1
 234 500 l 1,7,-1
 128 0 l 1,8,-1
 15 0 l 1,9,-1
 166 710 l 1,0,-1
EndSplineSet
EndChar

StartChar: O
Encoding: 79 79 51
Width: 725
GlyphClass: 2
Flags: W
LayerCount: 2
Fore
SplineSet
297 -5 m 0,0,1
 235 -5 235 -5 187.5 19.5 c 128,-1,2
 140 44 140 44 107.5 84.5 c 128,-1,3
 75 125 75 125 58 178 c 128,-1,4
 41 231 41 231 41 289 c 0,5,6
 41 370 41 370 75.5 446.5 c 128,-1,7
 110 523 110 523 167 583 c 128,-1,8
 224 643 224 643 298 679 c 128,-1,9
 372 715 372 715 452 715 c 0,10,11
 514 715 514 715 561.5 690 c 128,-1,12
 609 665 609 665 641 624 c 128,-1,13
 673 583 673 583 689.5 529.5 c 128,-1,14
 706 476 706 476 706 419 c 0,15,16
 706 339 706 339 672 262.5 c 128,-1,17
 638 186 638 186 581.5 126.5 c 128,-1,18
 525 67 525 67 451 31 c 128,-1,19
 377 -5 377 -5 297 -5 c 0,0,1
319 96 m 0,20,21
 377 96 377 96 427 124.5 c 128,-1,22
 477 153 477 153 513.5 198.5 c 128,-1,23
 550 244 550 244 570.5 300 c 128,-1,24
 591 356 591 356 591 411 c 0,25,26
 591 451 591 451 580.5 488 c 128,-1,27
 570 525 570 525 549.5 552.5 c 128,-1,28
 529 580 529 580 499 596.5 c 128,-1,29
 469 613 469 613 429 613 c 0,30,31
 370 613 370 613 320.5 584.5 c 128,-1,32
 271 556 271 556 234 511 c 128,-1,33
 197 466 197 466 176.5 409.5 c 128,-1,34
 156 353 156 353 156 298 c 0,35,36
 156 257 156 257 166.5 220.5 c 128,-1,37
 177 184 177 184 197 156.5 c 128,-1,38
 217 129 217 129 247.5 112.5 c 128,-1,39
 278 96 278 96 319 96 c 0,20,21
EndSplineSet
EndChar

StartChar: P
Encoding: 80 80 52
Width: 601
GlyphClass: 2
Flags: W
LayerCount: 2
Fore
SplineSet
166 710 m 1,0,-1
 450 710 l 2,1,2
 489 710 489 710 520 694 c 128,-1,3
 551 678 551 678 572.5 651 c 128,-1,4
 594 624 594 624 605.5 589.5 c 128,-1,5
 617 555 617 555 617 518 c 0,6,7
 617 469 617 469 596 420.5 c 128,-1,8
 575 372 575 372 539.5 333.5 c 128,-1,9
 504 295 504 295 456.5 271 c 128,-1,10
 409 247 409 247 356 247 c 2,11,-1
 180 247 l 1,12,-1
 128 0 l 1,13,-1
 15 0 l 1,14,-1
 166 710 l 1,0,-1
371 346 m 2,15,16
 397 346 397 346 420.5 359 c 128,-1,17
 444 372 444 372 462 394.5 c 128,-1,18
 480 417 480 417 490.5 446.5 c 128,-1,19
 501 476 501 476 501 509 c 0,20,21
 501 555 501 555 478.5 583 c 128,-1,22
 456 611 456 611 421 611 c 2,23,-1
 258 611 l 1,24,-1
 201 346 l 1,25,-1
 371 346 l 2,15,16
EndSplineSet
EndChar

StartChar: Q
Encoding: 81 81 53
Width: 724
GlyphClass: 2
Flags: W
LayerCount: 2
Fore
SplineSet
483 48 m 1,0,1
 440 23 440 23 393 9 c 128,-1,2
 346 -5 346 -5 297 -5 c 0,3,4
 235 -5 235 -5 187 19.5 c 128,-1,5
 139 44 139 44 106.5 84.5 c 128,-1,6
 74 125 74 125 57 178 c 128,-1,7
 40 231 40 231 40 289 c 0,8,9
 40 370 40 370 74.5 446.5 c 128,-1,10
 109 523 109 523 166 583 c 128,-1,11
 223 643 223 643 297.5 679 c 128,-1,12
 372 715 372 715 452 715 c 0,13,14
 513 715 513 715 560.5 690 c 128,-1,15
 608 665 608 665 640.5 624 c 128,-1,16
 673 583 673 583 689.5 529.5 c 128,-1,17
 706 476 706 476 706 419 c 0,18,19
 706 330 706 330 665 247 c 128,-1,20
 624 164 624 164 557 103 c 1,21,-1
 623 0 l 1,22,-1
 514 0 l 1,23,-1
 483 48 l 1,0,1
319 96 m 0,24,25
 350 96 350 96 378.5 104.5 c 128,-1,26
 407 113 407 113 433 128 c 1,27,-1
 358 247 l 1,28,-1
 465 247 l 1,29,-1
 503 187 l 1,30,31
 545 234 545 234 568 293 c 128,-1,32
 591 352 591 352 591 411 c 0,33,34
 591 451 591 451 580.5 488 c 128,-1,35
 570 525 570 525 549.5 553 c 128,-1,36
 529 581 529 581 498.5 597.5 c 128,-1,37
 468 614 468 614 428 614 c 0,38,39
 370 614 370 614 320 585.5 c 128,-1,40
 270 557 270 557 233.5 511.5 c 128,-1,41
 197 466 197 466 176.5 409.5 c 128,-1,42
 156 353 156 353 156 298 c 0,43,44
 156 257 156 257 166.5 220.5 c 128,-1,45
 177 184 177 184 197 156.5 c 128,-1,46
 217 129 217 129 247.5 112.5 c 128,-1,47
 278 96 278 96 319 96 c 0,24,25
EndSplineSet
EndChar

StartChar: R
Encoding: 82 82 54
Width: 637
GlyphClass: 2
Flags: W
LayerCount: 2
Fore
SplineSet
15 0 m 1,0,-1
 166 710 l 1,1,-1
 461 710 l 2,2,3
 500 710 500 710 531 694 c 128,-1,4
 562 678 562 678 583.5 651 c 128,-1,5
 605 624 605 624 616 589.5 c 128,-1,6
 627 555 627 555 627 518 c 0,7,8
 627 478 627 478 613 439 c 128,-1,9
 599 400 599 400 575 366.5 c 128,-1,10
 551 333 551 333 518.5 307.5 c 128,-1,11
 486 282 486 282 448 270 c 1,12,-1
 548 0 l 1,13,-1
 421 0 l 1,14,-1
 329 247 l 1,15,-1
 180 247 l 1,16,-1
 128 0 l 1,17,-1
 15 0 l 1,0,-1
382 346 m 2,18,19
 407 346 407 346 430.5 359.5 c 128,-1,20
 454 373 454 373 472 395.5 c 128,-1,21
 490 418 490 418 500.5 447 c 128,-1,22
 511 476 511 476 511 506 c 0,23,24
 511 551 511 551 489 581 c 128,-1,25
 467 611 467 611 433 611 c 2,26,-1
 258 611 l 1,27,-1
 201 346 l 1,28,-1
 382 346 l 2,18,19
EndSplineSet
EndChar

StartChar: S
Encoding: 83 83 55
Width: 590
GlyphClass: 2
Flags: W
LayerCount: 2
Fore
SplineSet
243 -7 m 0,0,1
 166 -7 166 -7 98.5 17.5 c 128,-1,2
 31 42 31 42 -17 89 c 1,3,-1
 56 185 l 1,4,5
 64 172 64 172 83.5 156 c 128,-1,6
 103 140 103 140 130.5 126.5 c 128,-1,7
 158 113 158 113 192.5 103.5 c 128,-1,8
 227 94 227 94 266 94 c 0,9,10
 338 94 338 94 376 122.5 c 128,-1,11
 414 151 414 151 414 202 c 0,12,13
 414 224 414 224 402.5 239.5 c 128,-1,14
 391 255 391 255 370.5 267 c 128,-1,15
 350 279 350 279 320.5 288.5 c 128,-1,16
 291 298 291 298 255 309 c 0,17,18
 175 332 175 332 133.5 365.5 c 128,-1,19
 92 399 92 399 92 461 c 0,20,21
 92 521 92 521 116 568 c 128,-1,22
 140 615 140 615 180.5 648 c 128,-1,23
 221 681 221 681 274.5 698 c 128,-1,24
 328 715 328 715 388 715 c 0,25,26
 457 715 457 715 511 692 c 128,-1,27
 565 669 565 669 601 635 c 1,28,-1
 531 543 l 1,29,30
 525 554 525 554 509 566.5 c 128,-1,31
 493 579 493 579 471 590 c 128,-1,32
 449 601 449 601 421.5 608 c 128,-1,33
 394 615 394 615 364 615 c 0,34,35
 288 615 288 615 251.5 582.5 c 128,-1,36
 215 550 215 550 215 499 c 0,37,38
 215 479 215 479 224 465 c 128,-1,39
 233 451 233 451 251 440.5 c 128,-1,40
 269 430 269 430 295.5 421 c 128,-1,41
 322 412 322 412 357 403 c 0,42,43
 399 392 399 392 432.5 378 c 128,-1,44
 466 364 466 364 490 345 c 128,-1,45
 514 326 514 326 527 299.5 c 128,-1,46
 540 273 540 273 540 236 c 0,47,48
 540 173 540 173 515.5 127 c 128,-1,49
 491 81 491 81 449.5 51 c 128,-1,50
 408 21 408 21 354.5 7 c 128,-1,51
 301 -7 301 -7 243 -7 c 0,0,1
EndSplineSet
EndChar

StartChar: T
Encoding: 84 84 56
Width: 589
GlyphClass: 2
Flags: W
LayerCount: 2
Fore
SplineSet
303 611 m 1,0,-1
 81 611 l 1,1,-1
 102 710 l 1,2,-1
 659 710 l 1,3,-1
 638 611 l 1,4,-1
 416 611 l 1,5,-1
 286 0 l 1,6,-1
 174 0 l 1,7,-1
 303 611 l 1,0,-1
EndSplineSet
EndChar

StartChar: U
Encoding: 85 85 57
Width: 722
GlyphClass: 2
Flags: W
LayerCount: 2
Fore
SplineSet
296 -5 m 0,0,1
 233 -5 233 -5 189 13.5 c 128,-1,2
 145 32 145 32 118 64 c 128,-1,3
 91 96 91 96 78.5 139.5 c 128,-1,4
 66 183 66 183 66 233 c 0,5,6
 66 288 66 288 80 350 c 2,7,-1
 156 710 l 1,8,-1
 269 710 l 1,9,-1
 192 350 l 2,10,11
 181 297 181 297 181 253 c 0,12,13
 181 220 181 220 188 191 c 128,-1,14
 195 162 195 162 211 141 c 128,-1,15
 227 120 227 120 253 108 c 128,-1,16
 279 96 279 96 317 96 c 0,17,18
 369 96 369 96 408 118 c 128,-1,19
 447 140 447 140 475.5 175.5 c 128,-1,20
 504 211 504 211 522.5 256.5 c 128,-1,21
 541 302 541 302 551 350 c 2,22,-1
 627 710 l 1,23,-1
 740 710 l 1,24,-1
 663 350 l 2,25,26
 648 277 648 277 618 212.5 c 128,-1,27
 588 148 588 148 542.5 99.5 c 128,-1,28
 497 51 497 51 435.5 23 c 128,-1,29
 374 -5 374 -5 296 -5 c 0,0,1
EndSplineSet
EndChar

StartChar: V
Encoding: 86 86 58
Width: 648
GlyphClass: 2
Flags: W
LayerCount: 2
Fore
SplineSet
91 710 m 1,0,-1
 210 710 l 1,1,-1
 287 141 l 1,2,-1
 605 710 l 1,3,-1
 724 710 l 1,4,-1
 305 0 l 1,5,-1
 209 0 l 1,6,-1
 91 710 l 1,0,-1
EndSplineSet
EndChar

StartChar: W
Encoding: 87 87 59
Width: 1002
GlyphClass: 2
Flags: W
LayerCount: 2
Fore
SplineSet
88 710 m 1,0,-1
 209 710 l 1,1,-1
 292 130 l 1,2,-1
 445 391 l 1,3,-1
 397 707 l 1,4,-1
 502 707 l 1,5,-1
 532 466 l 1,6,-1
 665 707 l 1,7,-1
 770 707 l 1,8,-1
 588 391 l 1,9,-1
 629 130 l 1,10,-1
 958 710 l 1,11,-1
 1081 710 l 1,12,-1
 652 0 l 1,13,-1
 557 0 l 1,14,-1
 501 318 l 1,15,-1
 309 0 l 1,16,-1
 214 0 l 1,17,-1
 88 710 l 1,0,-1
EndSplineSet
Substitution2: "'ss01' Style Set 1 in Latin lookup 8 subtable" W.alt
Substitution2: "'salt' Stylistic Alternatives in Latin lookup 5 subtable" W.alt
Substitution2: "'aalt' Access All Alternates in Latin lookup 0 subtable" W.alt
EndChar

StartChar: X
Encoding: 88 88 60
Width: 615
GlyphClass: 2
Flags: W
LayerCount: 2
Fore
SplineSet
258 350 m 1,0,-1
 88 710 l 1,1,-1
 212 710 l 1,2,-1
 335 430 l 1,3,-1
 577 710 l 1,4,-1
 700 710 l 1,5,-1
 378 350 l 1,6,-1
 541 0 l 1,7,-1
 418 0 l 1,8,-1
 301 270 l 1,9,-1
 69 0 l 1,10,-1
 -55 0 l 1,11,-1
 258 350 l 1,0,-1
EndSplineSet
EndChar

StartChar: Y
Encoding: 89 89 61
Width: 615
GlyphClass: 2
Flags: W
LayerCount: 2
Fore
SplineSet
237 256 m 1,0,-1
 85 710 l 1,1,-1
 208 710 l 1,2,-1
 314 354 l 1,3,-1
 574 710 l 1,4,-1
 696 710 l 1,5,-1
 349 254 l 1,6,-1
 295 0 l 1,7,-1
 182 0 l 1,8,-1
 237 256 l 1,0,-1
EndSplineSet
EndChar

StartChar: Z
Encoding: 90 90 62
Width: 598
GlyphClass: 2
Flags: W
LayerCount: 2
Fore
SplineSet
-16 86 m 1,0,-1
 498 611 l 1,1,-1
 106 611 l 1,2,-1
 127 710 l 1,3,-1
 650 710 l 1,4,-1
 632 624 l 1,5,-1
 128 99 l 1,6,-1
 521 99 l 1,7,-1
 500 0 l 1,8,-1
 -35 0 l 1,9,-1
 -16 86 l 1,0,-1
EndSplineSet
EndChar

StartChar: bracketleft
Encoding: 91 91 63
Width: 282
GlyphClass: 2
Flags: W
LayerCount: 2
Fore
SplineSet
6 -40 m 1,0,-1
 172 740 l 1,1,-1
 331 740 l 1,2,-1
 313 651 l 1,3,-1
 254 651 l 1,4,-1
 126 49 l 1,5,-1
 185 49 l 1,6,-1
 166 -40 l 1,7,-1
 6 -40 l 1,0,-1
EndSplineSet
EndChar

StartChar: backslash
Encoding: 92 92 64
Width: 579
GlyphClass: 2
Flags: W
LayerCount: 2
Fore
SplineSet
231 710 m 1,0,-1
 493 0 l 1,1,-1
 371 0 l 1,2,-1
 108 710 l 1,3,-1
 231 710 l 1,0,-1
EndSplineSet
EndChar

StartChar: bracketright
Encoding: 93 93 65
Width: 283
GlyphClass: 2
Flags: W
LayerCount: 2
Fore
SplineSet
-28 -40 m 1,0,-1
 -9 49 l 1,1,-1
 49 49 l 1,2,-1
 177 651 l 1,3,-1
 119 651 l 1,4,-1
 138 740 l 1,5,-1
 298 740 l 1,6,-1
 133 -40 l 1,7,-1
 -28 -40 l 1,0,-1
EndSplineSet
EndChar

StartChar: asciicircum
Encoding: 94 94 66
Width: 572
GlyphClass: 2
Flags: W
LayerCount: 2
Fore
SplineSet
49 303 m 1,0,-1
 247 710 l 1,1,-1
 340 710 l 1,2,-1
 537 303 l 1,3,-1
 445 303 l 1,4,-1
 294 615 l 1,5,-1
 139 303 l 1,6,-1
 49 303 l 1,0,-1
EndSplineSet
EndChar

StartChar: underscore
Encoding: 95 95 67
Width: 470
GlyphClass: 2
Flags: W
LayerCount: 2
Fore
SplineSet
-27 -99 m 1,0,-1
 -6 0 l 1,1,-1
 346 0 l 1,2,-1
 325 -99 l 1,3,-1
 -27 -99 l 1,0,-1
EndSplineSet
EndChar

StartChar: grave
Encoding: 96 96 68
Width: 234
GlyphClass: 2
Flags: W
LayerCount: 2
Fore
SplineSet
66 730 m 1,0,-1
 170 730 l 1,1,-1
 200 620 l 1,2,-1
 124 601 l 1,3,-1
 66 730 l 1,0,-1
EndSplineSet
EndChar

StartChar: a
Encoding: 97 97 69
Width: 615
GlyphClass: 2
Flags: W
LayerCount: 2
Fore
SplineSet
205 -10 m 0,0,1
 161 -10 161 -10 126.5 7 c 128,-1,2
 92 24 92 24 68 53 c 128,-1,3
 44 82 44 82 31.5 121.5 c 128,-1,4
 19 161 19 161 19 206 c 0,5,6
 19 270 19 270 42.5 329 c 128,-1,7
 66 388 66 388 106 433 c 128,-1,8
 146 478 146 478 198 505 c 128,-1,9
 250 532 250 532 307 532 c 256,10,11
 364 532 364 532 402.5 501.5 c 128,-1,12
 441 471 441 471 457 424 c 1,13,-1
 478 522 l 1,14,-1
 589 522 l 1,15,-1
 505 130 l 2,16,17
 504 125 504 125 503.5 121.5 c 128,-1,18
 503 118 503 118 503 115 c 0,19,20
 503 95 503 95 526 94 c 1,21,-1
 506 0 l 1,22,23
 492 -2 492 -2 480.5 -3.5 c 128,-1,24
 469 -5 469 -5 461 -5 c 0,25,26
 396 -5 396 -5 396 47 c 0,27,28
 396 63 396 63 403 95 c 1,29,30
 365 44 365 44 311 17 c 128,-1,31
 257 -10 257 -10 205 -10 c 0,0,1
253 84 m 0,32,33
 273 84 273 84 295.5 92 c 128,-1,34
 318 100 318 100 339.5 114 c 128,-1,35
 361 128 361 128 379 147 c 128,-1,36
 397 166 397 166 408 188 c 1,37,-1
 436 325 l 1,38,39
 433 349 433 349 422.5 369.5 c 128,-1,40
 412 390 412 390 396 405.5 c 128,-1,41
 380 421 380 421 361 429.5 c 128,-1,42
 342 438 342 438 321 438 c 0,43,44
 283 438 283 438 249.5 419 c 128,-1,45
 216 400 216 400 190.5 370 c 128,-1,46
 165 340 165 340 150 301.5 c 128,-1,47
 135 263 135 263 135 224 c 0,48,49
 135 194 135 194 143 168.5 c 128,-1,50
 151 143 151 143 166.5 124.5 c 128,-1,51
 182 106 182 106 204 95 c 128,-1,52
 226 84 226 84 253 84 c 0,32,33
EndSplineSet
Substitution2: "'ss02' Style Set 2 in Latin lookup 9 subtable" a.alt2
Substitution2: "'ss01' Style Set 1 in Latin lookup 8 subtable" a.alt
Substitution2: "'salt' Stylistic Alternatives in Latin lookup 5 subtable" a.alt
Substitution2: "'smcp' Lowercase to Small Capitals in Latin lookup 2 subtable" A.sc
AlternateSubs2: "'aalt' Access All Alternates in Latin lookup 1 subtable" A.sc a.alt a.alt2
EndChar

StartChar: b
Encoding: 98 98 70
Width: 605
GlyphClass: 2
Flags: W
LayerCount: 2
Fore
SplineSet
272 -10 m 0,0,1
 212 -10 212 -10 173 18.5 c 128,-1,2
 134 47 134 47 117 95 c 1,3,-1
 97 0 l 1,4,-1
 0 0 l 1,5,-1
 155 730 l 1,6,-1
 265 730 l 1,7,-1
 201 424 l 1,8,9
 239 473 239 473 289.5 502.5 c 128,-1,10
 340 532 340 532 397 532 c 0,11,12
 439 532 439 532 471.5 515 c 128,-1,13
 504 498 504 498 525.5 469 c 128,-1,14
 547 440 547 440 558 401.5 c 128,-1,15
 569 363 569 363 569 320 c 0,16,17
 569 253 569 253 544 193 c 128,-1,18
 519 133 519 133 477.5 88 c 128,-1,19
 436 43 436 43 382.5 16.5 c 128,-1,20
 329 -10 329 -10 272 -10 c 0,0,1
266 84 m 0,21,22
 302 84 302 84 335.5 102 c 128,-1,23
 369 120 369 120 395.5 149.5 c 128,-1,24
 422 179 422 179 437.5 218 c 128,-1,25
 453 257 453 257 453 299 c 0,26,27
 453 327 453 327 446 352 c 128,-1,28
 439 377 439 377 425 396 c 128,-1,29
 411 415 411 415 390.5 426.5 c 128,-1,30
 370 438 370 438 343 438 c 0,31,32
 320 438 320 438 297 429 c 128,-1,33
 274 420 274 420 253 404.5 c 128,-1,34
 232 389 232 389 213.5 368.5 c 128,-1,35
 195 348 195 348 180 325 c 1,36,-1
 150 187 l 1,37,38
 153 143 153 143 185.5 113.5 c 128,-1,39
 218 84 218 84 266 84 c 0,21,22
EndSplineSet
Substitution2: "'smcp' Lowercase to Small Capitals in Latin lookup 2 subtable" B.sc
Substitution2: "'aalt' Access All Alternates in Latin lookup 0 subtable" B.sc
EndChar

StartChar: c
Encoding: 99 99 71
Width: 536
GlyphClass: 2
Flags: W
LayerCount: 2
Fore
SplineSet
227 -10 m 0,0,1
 177 -10 177 -10 138 7.5 c 128,-1,2
 99 25 99 25 72.5 55 c 128,-1,3
 46 85 46 85 32.5 125 c 128,-1,4
 19 165 19 165 19 210 c 0,5,6
 19 273 19 273 43.5 331 c 128,-1,7
 68 389 68 389 111.5 433.5 c 128,-1,8
 155 478 155 478 213.5 505 c 128,-1,9
 272 532 272 532 341 532 c 0,10,11
 419 532 419 532 467 496.5 c 128,-1,12
 515 461 515 461 531 402 c 1,13,-1
 417 368 l 1,14,15
 406 401 406 401 380.5 419.5 c 128,-1,16
 355 438 355 438 319 438 c 256,17,18
 283 438 283 438 249.5 421.5 c 128,-1,19
 216 405 216 405 190 375.5 c 128,-1,20
 164 346 164 346 148.5 307 c 128,-1,21
 133 268 133 268 133 223 c 0,22,23
 133 193 133 193 141 167.5 c 128,-1,24
 149 142 149 142 164 123.5 c 128,-1,25
 179 105 179 105 199.5 94.5 c 128,-1,26
 220 84 220 84 245 84 c 0,27,28
 264 84 264 84 283 89.5 c 128,-1,29
 302 95 302 95 319.5 105 c 128,-1,30
 337 115 337 115 351 128 c 128,-1,31
 365 141 365 141 374 156 c 1,32,-1
 475 124 l 1,33,34
 457 95 457 95 430.5 70.5 c 128,-1,35
 404 46 404 46 372 28 c 128,-1,36
 340 10 340 10 303 0 c 128,-1,37
 266 -10 266 -10 227 -10 c 0,0,1
EndSplineSet
Substitution2: "'smcp' Lowercase to Small Capitals in Latin lookup 2 subtable" C.sc
Substitution2: "'aalt' Access All Alternates in Latin lookup 0 subtable" C.sc
EndChar

StartChar: d
Encoding: 100 100 72
Width: 614
GlyphClass: 2
Flags: W
LayerCount: 2
Fore
SplineSet
205 -10 m 0,0,1
 161 -10 161 -10 126.5 7 c 128,-1,2
 92 24 92 24 68 53 c 128,-1,3
 44 82 44 82 31.5 121.5 c 128,-1,4
 19 161 19 161 19 206 c 0,5,6
 19 270 19 270 42.5 329 c 128,-1,7
 66 388 66 388 106 433 c 128,-1,8
 146 478 146 478 198 505 c 128,-1,9
 250 532 250 532 307 532 c 256,10,11
 364 532 364 532 402.5 501.5 c 128,-1,12
 441 471 441 471 457 424 c 1,13,-1
 522 730 l 1,14,-1
 633 730 l 1,15,-1
 505 130 l 2,16,17
 504 125 504 125 503.5 121.5 c 128,-1,18
 503 118 503 118 503 115 c 0,19,20
 503 95 503 95 526 94 c 1,21,-1
 506 0 l 1,22,23
 492 -2 492 -2 480.5 -3.5 c 128,-1,24
 469 -5 469 -5 461 -5 c 0,25,26
 430 -5 430 -5 412.5 8.5 c 128,-1,27
 395 22 395 22 395 46 c 0,28,29
 395 54 395 54 396.5 65 c 128,-1,30
 398 76 398 76 403 95 c 1,31,32
 365 44 365 44 311 17 c 128,-1,33
 257 -10 257 -10 205 -10 c 0,0,1
253 84 m 0,34,35
 273 84 273 84 295.5 92 c 128,-1,36
 318 100 318 100 339.5 114 c 128,-1,37
 361 128 361 128 379 147 c 128,-1,38
 397 166 397 166 408 188 c 1,39,-1
 436 325 l 1,40,41
 433 349 433 349 422.5 369.5 c 128,-1,42
 412 390 412 390 396 405.5 c 128,-1,43
 380 421 380 421 361 429.5 c 128,-1,44
 342 438 342 438 321 438 c 0,45,46
 283 438 283 438 249.5 419 c 128,-1,47
 216 400 216 400 190.5 370 c 128,-1,48
 165 340 165 340 150 301.5 c 128,-1,49
 135 263 135 263 135 224 c 0,50,51
 135 194 135 194 143 168.5 c 128,-1,52
 151 143 151 143 166.5 124.5 c 128,-1,53
 182 106 182 106 204 95 c 128,-1,54
 226 84 226 84 253 84 c 0,34,35
EndSplineSet
Substitution2: "'ss01' Style Set 1 in Latin lookup 8 subtable" d.alt
Substitution2: "'salt' Stylistic Alternatives in Latin lookup 5 subtable" d.alt
Substitution2: "'smcp' Lowercase to Small Capitals in Latin lookup 2 subtable" D.sc
AlternateSubs2: "'aalt' Access All Alternates in Latin lookup 1 subtable" D.sc d.alt
EndChar

StartChar: e
Encoding: 101 101 73
Width: 545
GlyphClass: 2
Flags: W
LayerCount: 2
Fore
SplineSet
229 -10 m 0,0,1
 179 -10 179 -10 140.5 7 c 128,-1,2
 102 24 102 24 75 53.5 c 128,-1,3
 48 83 48 83 34 123.5 c 128,-1,4
 20 164 20 164 20 211 c 0,5,6
 20 275 20 275 44.5 333 c 128,-1,7
 69 391 69 391 112.5 435 c 128,-1,8
 156 479 156 479 215.5 505.5 c 128,-1,9
 275 532 275 532 344 532 c 0,10,11
 425 532 425 532 473.5 495.5 c 128,-1,12
 522 459 522 459 522 388 c 0,13,14
 522 224 522 224 229 224 c 0,15,16
 186 224 186 224 132 227 c 1,17,-1
 132 209 l 2,18,19
 132 180 132 180 139 155 c 128,-1,20
 146 130 146 130 160 111 c 128,-1,21
 174 92 174 92 196 81.5 c 128,-1,22
 218 71 218 71 248 71 c 0,23,24
 291 71 291 71 331 92.5 c 128,-1,25
 371 114 371 114 394 151 c 1,26,-1
 481 124 l 1,27,28
 462 94 462 94 434.5 69.5 c 128,-1,29
 407 45 407 45 374 27.5 c 128,-1,30
 341 10 341 10 304 0 c 128,-1,31
 267 -10 267 -10 229 -10 c 0,0,1
330 451 m 0,32,33
 294 451 294 451 264 438.5 c 128,-1,34
 234 426 234 426 211 405 c 128,-1,35
 188 384 188 384 172 356.5 c 128,-1,36
 156 329 156 329 146 299 c 1,37,38
 192 296 192 296 231 296 c 0,39,40
 284 296 284 296 320 302.5 c 128,-1,41
 356 309 356 309 378.5 320.5 c 128,-1,42
 401 332 401 332 410.5 348.5 c 128,-1,43
 420 365 420 365 420 385 c 0,44,45
 420 419 420 419 396 435 c 128,-1,46
 372 451 372 451 330 451 c 0,32,33
EndSplineSet
Substitution2: "'smcp' Lowercase to Small Capitals in Latin lookup 2 subtable" E.sc
Substitution2: "'aalt' Access All Alternates in Latin lookup 0 subtable" E.sc
EndChar

StartChar: f
Encoding: 102 102 74
Width: 347
GlyphClass: 2
Flags: W
LayerCount: 2
Fore
SplineSet
117 425 m 1,0,-1
 52 425 l 1,1,-1
 70 510 l 1,2,-1
 136 510 l 1,3,-1
 140 531 l 2,4,5
 150 579 150 579 169.5 618 c 128,-1,6
 189 657 189 657 216 684 c 128,-1,7
 243 711 243 711 276 725.5 c 128,-1,8
 309 740 309 740 346 740 c 0,9,10
 375 740 375 740 403.5 731.5 c 128,-1,11
 432 723 432 723 456 708 c 1,12,-1
 415 626 l 1,13,14
 403 635 403 635 384.5 641 c 128,-1,15
 366 647 366 647 349 647 c 0,16,17
 313 647 313 647 288 618 c 128,-1,18
 263 589 263 589 251 534 c 2,19,-1
 246 510 l 1,20,-1
 372 510 l 1,21,-1
 353 425 l 1,22,-1
 227 425 l 1,23,-1
 92 -212 l 1,24,-1
 -18 -212 l 1,25,-1
 117 425 l 1,0,-1
EndSplineSet
Substitution2: "'smcp' Lowercase to Small Capitals in Latin lookup 2 subtable" F.sc
Substitution2: "'aalt' Access All Alternates in Latin lookup 0 subtable" F.sc
EndChar

StartChar: g
Encoding: 103 103 75
Width: 605
GlyphClass: 2
Flags: W
LayerCount: 2
Fore
SplineSet
163 -223 m 0,0,1
 80 -223 80 -223 31.5 -193.5 c 128,-1,2
 -17 -164 -17 -164 -44 -111 c 1,3,-1
 30 -53 l 1,4,5
 50 -95 50 -95 89.5 -117 c 128,-1,6
 129 -139 129 -139 180 -139 c 0,7,8
 212 -139 212 -139 242.5 -130 c 128,-1,9
 273 -121 273 -121 299 -102 c 128,-1,10
 325 -83 325 -83 343.5 -54 c 128,-1,11
 362 -25 362 -25 370 15 c 2,12,-1
 386 95 l 1,13,14
 351 47 351 47 299 21 c 128,-1,15
 247 -5 247 -5 196 -5 c 0,16,17
 154 -5 154 -5 121 12 c 128,-1,18
 88 29 88 29 65.5 58 c 128,-1,19
 43 87 43 87 31 125 c 128,-1,20
 19 163 19 163 19 206 c 0,21,22
 19 270 19 270 43 329 c 128,-1,23
 67 388 67 388 107.5 433 c 128,-1,24
 148 478 148 478 201.5 505 c 128,-1,25
 255 532 255 532 315 532 c 256,26,27
 375 532 375 532 412.5 502 c 128,-1,28
 450 472 450 472 470 424 c 1,29,-1
 491 523 l 1,30,-1
 588 523 l 1,31,-1
 480 15 l 2,32,33
 468 -42 468 -42 438 -86 c 128,-1,34
 408 -130 408 -130 366 -160.5 c 128,-1,35
 324 -191 324 -191 272 -207 c 128,-1,36
 220 -223 220 -223 163 -223 c 0,0,1
251 84 m 0,37,38
 274 84 274 84 297 92.5 c 128,-1,39
 320 101 320 101 341 115.5 c 128,-1,40
 362 130 362 130 379 148.5 c 128,-1,41
 396 167 396 167 406 188 c 1,42,-1
 436 325 l 1,43,44
 428 375 428 375 395 406.5 c 128,-1,45
 362 438 362 438 319 438 c 0,46,47
 281 438 281 438 247 418.5 c 128,-1,48
 213 399 213 399 187.5 368.5 c 128,-1,49
 162 338 162 338 147.5 299.5 c 128,-1,50
 133 261 133 261 133 224 c 0,51,52
 133 195 133 195 141.5 169.5 c 128,-1,53
 150 144 150 144 165.5 125 c 128,-1,54
 181 106 181 106 202.5 95 c 128,-1,55
 224 84 224 84 251 84 c 0,37,38
EndSplineSet
Substitution2: "'smcp' Lowercase to Small Capitals in Latin lookup 2 subtable" G.sc
Substitution2: "'aalt' Access All Alternates in Latin lookup 0 subtable" G.sc
EndChar

StartChar: h
Encoding: 104 104 76
Width: 574
GlyphClass: 2
Flags: W
LayerCount: 2
Fore
SplineSet
155 730 m 1,0,-1
 265 730 l 1,1,-1
 199 418 l 1,2,3
 239 472 239 472 294 502 c 128,-1,4
 349 532 349 532 407 532 c 0,5,6
 475 532 475 532 501.5 496 c 128,-1,7
 528 460 528 460 528 405 c 0,8,9
 528 385 528 385 525.5 363.5 c 128,-1,10
 523 342 523 342 518 319 c 2,11,-1
 451 0 l 1,12,-1
 341 0 l 1,13,-1
 403 293 l 2,14,15
 410 325 410 325 410 352 c 0,16,17
 410 394 410 394 392 414 c 128,-1,18
 374 434 374 434 341 434 c 0,19,20
 321 434 321 434 297.5 425 c 128,-1,21
 274 416 274 416 251.5 399.5 c 128,-1,22
 229 383 229 383 209.5 360.5 c 128,-1,23
 190 338 190 338 177 311 c 1,24,-1
 110 0 l 1,25,-1
 0 0 l 1,26,-1
 155 730 l 1,0,-1
EndSplineSet
Substitution2: "'smcp' Lowercase to Small Capitals in Latin lookup 2 subtable" H.sc
Substitution2: "'aalt' Access All Alternates in Latin lookup 0 subtable" H.sc
EndChar

StartChar: i
Encoding: 105 105 77
Width: 239
GlyphClass: 2
Flags: W
LayerCount: 2
Fore
SplineSet
112 523 m 1,0,-1
 222 523 l 1,1,-1
 110 0 l 1,2,-1
 0 0 l 1,3,-1
 112 523 l 1,0,-1
155 730 m 1,4,-1
 265 730 l 1,5,-1
 240 609 l 1,6,-1
 130 609 l 1,7,-1
 155 730 l 1,4,-1
EndSplineSet
Substitution2: "'smcp' Lowercase to Small Capitals in Latin lookup 2 subtable" I.sc
Substitution2: "'aalt' Access All Alternates in Latin lookup 0 subtable" I.sc
EndChar

StartChar: j
Encoding: 106 106 78
Width: 245
GlyphClass: 2
Flags: W
LayerCount: 2
Fore
SplineSet
-90 -191 m 0,0,1
 -125 -191 -125 -191 -153.5 -180 c 128,-1,2
 -182 -169 -182 -169 -202 -146 c 1,3,-1
 -138 -72 l 1,4,5
 -128 -84 -128 -84 -113.5 -89.5 c 128,-1,6
 -99 -95 -99 -95 -83 -95 c 0,7,8
 -56 -95 -56 -95 -30.5 -73.5 c 128,-1,9
 -5 -52 -5 -52 2 -19 c 2,10,-1
 117 523 l 1,11,-1
 227 523 l 1,12,-1
 114 -11 l 2,13,14
 105 -51 105 -51 85 -84 c 128,-1,15
 65 -117 65 -117 37 -141 c 128,-1,16
 9 -165 9 -165 -23.5 -178 c 128,-1,17
 -56 -191 -56 -191 -90 -191 c 0,0,1
161 730 m 1,18,-1
 271 730 l 1,19,-1
 245 609 l 1,20,-1
 135 609 l 1,21,-1
 161 730 l 1,18,-1
EndSplineSet
Substitution2: "'ss01' Style Set 1 in Latin lookup 8 subtable" j.alt
Substitution2: "'salt' Stylistic Alternatives in Latin lookup 5 subtable" j.alt
Substitution2: "'smcp' Lowercase to Small Capitals in Latin lookup 2 subtable" J.sc
AlternateSubs2: "'aalt' Access All Alternates in Latin lookup 1 subtable" J.sc j.alt
EndChar

StartChar: k
Encoding: 107 107 79
Width: 551
GlyphClass: 2
Flags: W
LayerCount: 2
Fore
SplineSet
155 730 m 1,0,-1
 265 730 l 1,1,-1
 192 387 l 1,2,3
 214 418 214 418 239.5 444 c 128,-1,4
 265 470 265 470 293 489.5 c 128,-1,5
 321 509 321 509 352 520 c 128,-1,6
 383 531 383 531 417 531 c 0,7,8
 471 531 471 531 497.5 501.5 c 128,-1,9
 524 472 524 472 524 422 c 0,10,11
 524 357 524 357 483 302.5 c 128,-1,12
 442 248 442 248 364 213 c 1,13,-1
 471 0 l 1,14,-1
 353 0 l 1,15,-1
 240 246 l 1,16,17
 330 266 330 266 377 307.5 c 128,-1,18
 424 349 424 349 424 395 c 0,19,20
 424 419 424 419 411 429.5 c 128,-1,21
 398 440 398 440 378 440 c 0,22,23
 348 440 348 440 316.5 423.5 c 128,-1,24
 285 407 285 407 255.5 379 c 128,-1,25
 226 351 226 351 201 313.5 c 128,-1,26
 176 276 176 276 160 234 c 1,27,-1
 110 0 l 1,28,-1
 0 0 l 1,29,-1
 155 730 l 1,0,-1
EndSplineSet
Substitution2: "'smcp' Lowercase to Small Capitals in Latin lookup 2 subtable" K.sc
Substitution2: "'aalt' Access All Alternates in Latin lookup 0 subtable" K.sc
EndChar

StartChar: l
Encoding: 108 108 80
Width: 294
GlyphClass: 2
Flags: W
LayerCount: 2
Fore
SplineSet
116 -8 m 0,0,1
 70 -8 70 -8 45.5 14 c 128,-1,2
 21 36 21 36 21 77 c 0,3,4
 21 85 21 85 22 93.5 c 128,-1,5
 23 102 23 102 25 111 c 2,6,-1
 156 730 l 1,7,-1
 265 730 l 1,8,-1
 143 151 l 2,9,10
 140 140 140 140 140 131 c 0,11,12
 140 111 140 111 151.5 100 c 128,-1,13
 163 89 163 89 183 89 c 0,14,15
 194 89 194 89 209 93 c 128,-1,16
 224 97 224 97 238 102 c 1,17,-1
 234 16 l 1,18,19
 208 5 208 5 175 -1.5 c 128,-1,20
 142 -8 142 -8 116 -8 c 0,0,1
EndSplineSet
Substitution2: "'ss01' Style Set 1 in Latin lookup 8 subtable" l.alt
Substitution2: "'salt' Stylistic Alternatives in Latin lookup 5 subtable" l.alt
Substitution2: "'smcp' Lowercase to Small Capitals in Latin lookup 2 subtable" L.sc
AlternateSubs2: "'aalt' Access All Alternates in Latin lookup 1 subtable" L.sc l.alt
EndChar

StartChar: m
Encoding: 109 109 81
Width: 887
GlyphClass: 2
Flags: W
LayerCount: 2
Fore
SplineSet
112 523 m 1,0,-1
 211 523 l 1,1,-1
 189 418 l 1,2,3
 227 472 227 472 282.5 502 c 128,-1,4
 338 532 338 532 396 532 c 0,5,6
 456 532 456 532 485.5 500.5 c 128,-1,7
 515 469 515 469 517 413 c 1,8,9
 561 471 561 471 614 501.5 c 128,-1,10
 667 532 667 532 726 532 c 0,11,12
 791 532 791 532 817 497 c 128,-1,13
 843 462 843 462 843 407 c 0,14,15
 843 389 843 389 840 367 c 128,-1,16
 837 345 837 345 832 319 c 2,17,-1
 764 0 l 1,18,-1
 654 0 l 1,19,-1
 716 293 l 2,20,21
 724 331 724 331 724 356 c 0,22,23
 724 434 724 434 660 434 c 0,24,25
 617 434 617 434 573.5 399 c 128,-1,26
 530 364 530 364 502 310 c 1,27,-1
 437 0 l 1,28,-1
 327 0 l 1,29,-1
 389 293 l 2,30,31
 394 313 394 313 395.5 328 c 128,-1,32
 397 343 397 343 397 357 c 0,33,34
 397 397 397 397 380.5 415.5 c 128,-1,35
 364 434 364 434 334 434 c 0,36,37
 291 434 291 434 247.5 400 c 128,-1,38
 204 366 204 366 177 311 c 1,39,-1
 110 0 l 1,40,-1
 0 0 l 1,41,-1
 112 523 l 1,0,-1
EndSplineSet
Substitution2: "'smcp' Lowercase to Small Capitals in Latin lookup 2 subtable" M.sc
Substitution2: "'aalt' Access All Alternates in Latin lookup 0 subtable" M.sc
EndChar

StartChar: n
Encoding: 110 110 82
Width: 574
GlyphClass: 2
Flags: W
LayerCount: 2
Fore
SplineSet
112 523 m 1,0,-1
 211 523 l 1,1,-1
 189 418 l 1,2,3
 228 471 228 471 288 501.5 c 128,-1,4
 348 532 348 532 414 532 c 0,5,6
 447 532 447 532 469 523 c 128,-1,7
 491 514 491 514 504.5 497.5 c 128,-1,8
 518 481 518 481 524 459 c 128,-1,9
 530 437 530 437 530 410 c 0,10,11
 530 389 530 389 526.5 366 c 128,-1,12
 523 343 523 343 518 319 c 2,13,-1
 451 0 l 1,14,-1
 341 0 l 1,15,-1
 403 293 l 2,16,17
 407 312 407 312 409 327.5 c 128,-1,18
 411 343 411 343 411 357 c 0,19,20
 411 434 411 434 347 434 c 0,21,22
 325 434 325 434 301 425 c 128,-1,23
 277 416 277 416 254 399.5 c 128,-1,24
 231 383 231 383 210.5 360.5 c 128,-1,25
 190 338 190 338 177 311 c 1,26,-1
 110 0 l 1,27,-1
 0 0 l 1,28,-1
 112 523 l 1,0,-1
EndSplineSet
Substitution2: "'smcp' Lowercase to Small Capitals in Latin lookup 2 subtable" N.sc
Substitution2: "'aalt' Access All Alternates in Latin lookup 0 subtable" N.sc
EndChar

StartChar: o
Encoding: 111 111 83
Width: 582
GlyphClass: 2
Flags: W
LayerCount: 2
Fore
SplineSet
224 -10 m 0,0,1
 174 -10 174 -10 136 7.5 c 128,-1,2
 98 25 98 25 72 54.5 c 128,-1,3
 46 84 46 84 32.5 123.5 c 128,-1,4
 19 163 19 163 19 208 c 0,5,6
 19 271 19 271 44 329.5 c 128,-1,7
 69 388 69 388 112 433 c 128,-1,8
 155 478 155 478 213.5 505 c 128,-1,9
 272 532 272 532 339 532 c 0,10,11
 389 532 389 532 427.5 514.5 c 128,-1,12
 466 497 466 497 492.5 467.5 c 128,-1,13
 519 438 519 438 532.5 398 c 128,-1,14
 546 358 546 358 546 313 c 0,15,16
 546 251 546 251 521 193 c 128,-1,17
 496 135 496 135 452.5 90 c 128,-1,18
 409 45 409 45 350.5 17.5 c 128,-1,19
 292 -10 292 -10 224 -10 c 0,0,1
245 84 m 0,20,21
 280 84 280 84 313.5 101 c 128,-1,22
 347 118 347 118 373 147.5 c 128,-1,23
 399 177 399 177 415 216 c 128,-1,24
 431 255 431 255 431 299 c 0,25,26
 431 359 431 359 400.5 398.5 c 128,-1,27
 370 438 370 438 319 438 c 0,28,29
 284 438 284 438 251 420.5 c 128,-1,30
 218 403 218 403 191.5 373.5 c 128,-1,31
 165 344 165 344 149 305 c 128,-1,32
 133 266 133 266 133 222 c 0,33,34
 133 162 133 162 163.5 123 c 128,-1,35
 194 84 194 84 245 84 c 0,20,21
EndSplineSet
Substitution2: "'smcp' Lowercase to Small Capitals in Latin lookup 2 subtable" O.sc
Substitution2: "'aalt' Access All Alternates in Latin lookup 0 subtable" O.sc
EndChar

StartChar: p
Encoding: 112 112 84
Width: 606
GlyphClass: 2
Flags: W
LayerCount: 2
Fore
SplineSet
111 523 m 1,0,-1
 208 523 l 1,1,-1
 188 429 l 1,2,3
 227 476 227 476 278 504 c 128,-1,4
 329 532 329 532 386 532 c 0,5,6
 429 532 429 532 463 515 c 128,-1,7
 497 498 497 498 520.5 468.5 c 128,-1,8
 544 439 544 439 556.5 399.5 c 128,-1,9
 569 360 569 360 569 315 c 0,10,11
 569 252 569 252 546 193 c 128,-1,12
 523 134 523 134 483.5 89 c 128,-1,13
 444 44 444 44 392.5 17 c 128,-1,14
 341 -10 341 -10 284 -10 c 0,15,16
 224 -10 224 -10 185.5 20 c 128,-1,17
 147 50 147 50 131 98 c 1,18,-1
 65 -213 l 1,19,-1
 -45 -213 l 1,20,-1
 111 523 l 1,0,-1
268 84 m 0,21,22
 305 84 305 84 339 103 c 128,-1,23
 373 122 373 122 398.5 152 c 128,-1,24
 424 182 424 182 439 220.5 c 128,-1,25
 454 259 454 259 454 298 c 0,26,27
 454 327 454 327 446 352.5 c 128,-1,28
 438 378 438 378 422.5 397 c 128,-1,29
 407 416 407 416 385 427 c 128,-1,30
 363 438 363 438 336 438 c 0,31,32
 316 438 316 438 293.5 430 c 128,-1,33
 271 422 271 422 249.5 408 c 128,-1,34
 228 394 228 394 210 375.5 c 128,-1,35
 192 357 192 357 182 335 c 1,36,-1
 152 198 l 1,37,38
 161 150 161 150 192 117 c 128,-1,39
 223 84 223 84 268 84 c 0,21,22
EndSplineSet
Substitution2: "'smcp' Lowercase to Small Capitals in Latin lookup 2 subtable" P.sc
Substitution2: "'aalt' Access All Alternates in Latin lookup 0 subtable" P.sc
EndChar

StartChar: q
Encoding: 113 113 85
Width: 605
GlyphClass: 2
Flags: W
LayerCount: 2
Fore
SplineSet
189 -10 m 0,0,1
 148 -10 148 -10 116.5 6.5 c 128,-1,2
 85 23 85 23 63.5 52 c 128,-1,3
 42 81 42 81 30.5 119.5 c 128,-1,4
 19 158 19 158 19 202 c 0,5,6
 19 269 19 269 44 329 c 128,-1,7
 69 389 69 389 111 434 c 128,-1,8
 153 479 153 479 206.5 505.5 c 128,-1,9
 260 532 260 532 317 532 c 0,10,11
 375 532 375 532 414.5 503 c 128,-1,12
 454 474 454 474 471 428 c 1,13,-1
 491 523 l 1,14,-1
 588 523 l 1,15,-1
 460 -78 l 2,16,17
 458 -88 458 -88 458 -92 c 0,18,19
 458 -113 458 -113 484 -114 c 1,20,-1
 464 -208 l 1,21,22
 450 -210 450 -210 435 -211 c 128,-1,23
 420 -212 420 -212 408 -212 c 0,24,25
 376 -212 376 -212 356 -195 c 128,-1,26
 336 -178 336 -178 336 -149 c 0,27,28
 336 -141 336 -141 339 -132 c 2,29,-1
 387 98 l 1,30,31
 345 44 345 44 295 17 c 128,-1,32
 245 -10 245 -10 189 -10 c 0,0,1
248 84 m 0,33,34
 294 84 294 84 334 112.5 c 128,-1,35
 374 141 374 141 406 184 c 1,36,-1
 435 322 l 1,37,38
 434 346 434 346 425 367 c 128,-1,39
 416 388 416 388 401 403.5 c 128,-1,40
 386 419 386 419 365.5 428.5 c 128,-1,41
 345 438 345 438 323 438 c 0,42,43
 286 438 286 438 252 419.5 c 128,-1,44
 218 401 218 401 191.5 370 c 128,-1,45
 165 339 165 339 149.5 300 c 128,-1,46
 134 261 134 261 134 221 c 0,47,48
 134 192 134 192 141.5 167.5 c 128,-1,49
 149 143 149 143 164 124 c 128,-1,50
 179 105 179 105 200 94.5 c 128,-1,51
 221 84 221 84 248 84 c 0,33,34
EndSplineSet
Substitution2: "'ss01' Style Set 1 in Latin lookup 8 subtable" q.alt
Substitution2: "'salt' Stylistic Alternatives in Latin lookup 5 subtable" q.alt
Substitution2: "'smcp' Lowercase to Small Capitals in Latin lookup 2 subtable" Q.sc
AlternateSubs2: "'aalt' Access All Alternates in Latin lookup 1 subtable" Q.sc q.alt
EndChar

StartChar: r
Encoding: 114 114 86
Width: 366
GlyphClass: 2
Flags: W
LayerCount: 2
Fore
SplineSet
112 523 m 1,0,-1
 214 523 l 1,1,-1
 188 406 l 1,2,3
 226 460 226 460 274 493 c 128,-1,4
 322 526 322 526 369 526 c 0,5,6
 379 526 379 526 384.5 525.5 c 128,-1,7
 390 525 390 525 395 524 c 1,8,-1
 374 428 l 1,9,10
 314 426 314 426 262 398.5 c 128,-1,11
 210 371 210 371 178 320 c 1,12,-1
 110 0 l 1,13,-1
 0 0 l 1,14,-1
 112 523 l 1,0,-1
EndSplineSet
Substitution2: "'smcp' Lowercase to Small Capitals in Latin lookup 2 subtable" R.sc
Substitution2: "'aalt' Access All Alternates in Latin lookup 0 subtable" R.sc
EndChar

StartChar: s
Encoding: 115 115 87
Width: 477
GlyphClass: 2
Flags: W
LayerCount: 2
Fore
SplineSet
181 -10 m 0,0,1
 120 -10 120 -10 65 10.5 c 128,-1,2
 10 31 10 31 -25 69 c 1,3,-1
 34 139 l 1,4,5
 109 70 109 70 195 70 c 0,6,7
 246 70 246 70 277 93 c 128,-1,8
 308 116 308 116 308 154 c 0,9,10
 308 181 308 181 282.5 195 c 128,-1,11
 257 209 257 209 203 224 c 0,12,13
 165 235 165 235 137 245.5 c 128,-1,14
 109 256 109 256 91 269.5 c 128,-1,15
 73 283 73 283 64 300 c 128,-1,16
 55 317 55 317 55 340 c 0,17,18
 55 384 55 384 74 419.5 c 128,-1,19
 93 455 93 455 125 480 c 128,-1,20
 157 505 157 505 199 518.5 c 128,-1,21
 241 532 241 532 288 532 c 0,22,23
 344 532 344 532 388 514 c 128,-1,24
 432 496 432 496 464 462 c 1,25,-1
 403 396 l 1,26,27
 374 425 374 425 340 439.5 c 128,-1,28
 306 454 306 454 269 454 c 0,29,30
 225 454 225 454 194 433 c 128,-1,31
 163 412 163 412 163 369 c 0,32,33
 163 344 163 344 184 331.5 c 128,-1,34
 205 319 205 319 254 306 c 0,35,36
 296 295 296 295 327 283 c 128,-1,37
 358 271 358 271 378.5 256.5 c 128,-1,38
 399 242 399 242 409 223 c 128,-1,39
 419 204 419 204 419 179 c 0,40,41
 419 137 419 137 401.5 102.5 c 128,-1,42
 384 68 384 68 352.5 43 c 128,-1,43
 321 18 321 18 277 4 c 128,-1,44
 233 -10 233 -10 181 -10 c 0,0,1
EndSplineSet
Substitution2: "'smcp' Lowercase to Small Capitals in Latin lookup 2 subtable" S.sc
Substitution2: "'aalt' Access All Alternates in Latin lookup 0 subtable" S.sc
EndChar

StartChar: t
Encoding: 116 116 88
Width: 355
GlyphClass: 2
Flags: W
LayerCount: 2
Fore
SplineSet
148 -8 m 0,0,1
 105 -8 105 -8 76 12.5 c 128,-1,2
 47 33 47 33 47 78 c 0,3,4
 47 95 47 95 51 111 c 2,5,-1
 121 438 l 1,6,-1
 54 438 l 1,7,-1
 73 523 l 1,8,-1
 138 523 l 1,9,-1
 175 695 l 1,10,-1
 285 695 l 1,11,-1
 248 523 l 1,12,-1
 356 523 l 1,13,-1
 338 438 l 1,14,-1
 231 438 l 1,15,-1
 169 146 l 2,16,17
 167 136 167 136 167 131 c 0,18,19
 167 111 167 111 179 102 c 128,-1,20
 191 93 191 93 208 93 c 0,21,22
 231 93 231 93 252 101 c 128,-1,23
 273 109 273 109 284 114 c 1,24,-1
 288 27 l 1,25,26
 265 13 265 13 227 2.5 c 128,-1,27
 189 -8 189 -8 148 -8 c 0,0,1
EndSplineSet
Substitution2: "'ss01' Style Set 1 in Latin lookup 8 subtable" t.alt
Substitution2: "'salt' Stylistic Alternatives in Latin lookup 5 subtable" t.alt
Substitution2: "'smcp' Lowercase to Small Capitals in Latin lookup 2 subtable" T.sc
AlternateSubs2: "'aalt' Access All Alternates in Latin lookup 1 subtable" T.sc t.alt
EndChar

StartChar: u
Encoding: 117 117 89
Width: 586
GlyphClass: 2
Flags: W
LayerCount: 2
Fore
SplineSet
150 -10 m 0,0,1
 28 -10 28 -10 28 120 c 0,2,3
 28 157 28 157 38 203 c 2,4,-1
 107 523 l 1,5,-1
 216 523 l 1,6,-1
 152 225 l 2,7,8
 145 193 145 193 145 165 c 0,9,10
 145 84 145 84 214 84 c 0,11,12
 258 84 258 84 302.5 113 c 128,-1,13
 347 142 347 142 381 197 c 1,14,-1
 450 523 l 1,15,-1
 560 523 l 1,16,-1
 477 130 l 2,17,18
 474 121 474 121 474 115 c 0,19,20
 474 96 474 96 497 94 c 1,21,-1
 478 0 l 1,22,23
 463 -2 463 -2 452 -3.5 c 128,-1,24
 441 -5 441 -5 432 -5 c 0,25,26
 402 -5 402 -5 385 7.5 c 128,-1,27
 368 20 368 20 368 45 c 0,28,29
 368 53 368 53 370 66 c 128,-1,30
 372 79 372 79 377 106 c 1,31,32
 332 49 332 49 273 19.5 c 128,-1,33
 214 -10 214 -10 150 -10 c 0,0,1
EndSplineSet
Substitution2: "'smcp' Lowercase to Small Capitals in Latin lookup 2 subtable" U.sc
Substitution2: "'aalt' Access All Alternates in Latin lookup 0 subtable" U.sc
EndChar

StartChar: v
Encoding: 118 118 90
Width: 517
GlyphClass: 2
Flags: W
LayerCount: 2
Fore
SplineSet
53 523 m 1,0,-1
 167 523 l 1,1,-1
 213 93 l 1,2,3
 289 204 289 204 342.5 308 c 128,-1,4
 396 412 396 412 427 523 c 1,5,-1
 530 523 l 1,6,7
 494 392 494 392 421.5 261.5 c 128,-1,8
 349 131 349 131 247 0 c 1,9,-1
 130 0 l 1,10,-1
 53 523 l 1,0,-1
EndSplineSet
Substitution2: "'smcp' Lowercase to Small Capitals in Latin lookup 2 subtable" V.sc
Substitution2: "'aalt' Access All Alternates in Latin lookup 0 subtable" V.sc
EndChar

StartChar: w
Encoding: 119 119 91
Width: 778
GlyphClass: 2
Flags: W
LayerCount: 2
Fore
SplineSet
46 523 m 1,0,-1
 156 523 l 1,1,-1
 229 98 l 1,2,3
 241 114 241 114 255 134 c 128,-1,4
 269 154 269 154 282.5 174.5 c 128,-1,5
 296 195 296 195 308.5 215 c 128,-1,6
 321 235 321 235 331 251 c 1,7,-1
 267 523 l 1,8,-1
 371 523 l 1,9,-1
 404 357 l 1,10,11
 412 373 412 373 422 395 c 128,-1,12
 432 417 432 417 441.5 440 c 128,-1,13
 451 463 451 463 459 484.5 c 128,-1,14
 467 506 467 506 472 523 c 1,15,-1
 568 523 l 1,16,17
 525 385 525 385 443 254 c 1,18,-1
 477 109 l 1,19,20
 517 164 517 164 550 215 c 128,-1,21
 583 266 583 266 609.5 316 c 128,-1,22
 636 366 636 366 657 417 c 128,-1,23
 678 468 678 468 695 523 c 1,24,-1
 797 523 l 1,25,26
 757 392 757 392 681 261.5 c 128,-1,27
 605 131 605 131 499 0 c 1,28,-1
 401 0 l 1,29,-1
 368 158 l 1,30,31
 358 144 358 144 344 122.5 c 128,-1,32
 330 101 330 101 314.5 78.5 c 128,-1,33
 299 56 299 56 284.5 35 c 128,-1,34
 270 14 270 14 258 0 c 1,35,-1
 150 0 l 1,36,-1
 46 523 l 1,0,-1
EndSplineSet
Substitution2: "'ss01' Style Set 1 in Latin lookup 8 subtable" w.alt
Substitution2: "'salt' Stylistic Alternatives in Latin lookup 5 subtable" w.alt
Substitution2: "'smcp' Lowercase to Small Capitals in Latin lookup 2 subtable" W.sc
AlternateSubs2: "'aalt' Access All Alternates in Latin lookup 1 subtable" W.sc w.alt
EndChar

StartChar: x
Encoding: 120 120 92
Width: 501
GlyphClass: 2
Flags: W
LayerCount: 2
Fore
SplineSet
182 261 m 1,0,-1
 57 523 l 1,1,-1
 171 523 l 1,2,-1
 251 344 l 1,3,-1
 256 327 l 1,4,-1
 268 344 l 1,5,-1
 424 523 l 1,6,-1
 538 523 l 1,7,-1
 302 261 l 1,8,-1
 429 0 l 1,9,-1
 314 0 l 1,10,-1
 233 178 l 1,11,-1
 227 194 l 1,12,-1
 216 178 l 1,13,-1
 59 0 l 1,14,-1
 -56 0 l 1,15,-1
 182 261 l 1,0,-1
EndSplineSet
Substitution2: "'smcp' Lowercase to Small Capitals in Latin lookup 2 subtable" X.sc
Substitution2: "'aalt' Access All Alternates in Latin lookup 0 subtable" X.sc
EndChar

StartChar: y
Encoding: 121 121 93
Width: 510
GlyphClass: 2
Flags: W
LayerCount: 2
Fore
SplineSet
-40 -140 m 1,0,1
 -9 -137 -9 -137 13 -131.5 c 128,-1,2
 35 -126 35 -126 52 -116.5 c 128,-1,3
 69 -107 69 -107 83.5 -91.5 c 128,-1,4
 98 -76 98 -76 114 -53 c 2,5,-1
 143 -11 l 1,6,-1
 49 523 l 1,7,-1
 162 523 l 1,8,-1
 221 97 l 1,9,-1
 255 153 l 2,10,11
 292 213 292 213 318.5 261.5 c 128,-1,12
 345 310 345 310 364 353 c 128,-1,13
 383 396 383 396 396.5 437 c 128,-1,14
 410 478 410 478 421 523 c 1,15,-1
 529 523 l 1,16,17
 515 475 515 475 500 433 c 128,-1,18
 485 391 485 391 462 344.5 c 128,-1,19
 439 298 439 298 405.5 240.5 c 128,-1,20
 372 183 372 183 323 103 c 2,21,-1
 243 -26 l 2,22,23
 208 -82 208 -82 177 -120 c 128,-1,24
 146 -158 146 -158 114.5 -181.5 c 128,-1,25
 83 -205 83 -205 49 -215.5 c 128,-1,26
 15 -226 15 -226 -25 -226 c 1,27,-1
 -40 -140 l 1,0,1
EndSplineSet
Substitution2: "'ss01' Style Set 1 in Latin lookup 8 subtable" y.alt
Substitution2: "'salt' Stylistic Alternatives in Latin lookup 5 subtable" y.alt
Substitution2: "'smcp' Lowercase to Small Capitals in Latin lookup 2 subtable" Y.sc
AlternateSubs2: "'aalt' Access All Alternates in Latin lookup 1 subtable" Y.sc y.alt
EndChar

StartChar: z
Encoding: 122 122 94
Width: 470
GlyphClass: 2
Flags: W
LayerCount: 2
Fore
SplineSet
-22 69 m 1,0,-1
 347 445 l 1,1,-1
 68 445 l 1,2,-1
 85 523 l 1,3,-1
 484 523 l 1,4,-1
 469 454 l 1,5,-1
 102 78 l 1,6,-1
 392 78 l 1,7,-1
 375 0 l 1,8,-1
 -37 0 l 1,9,-1
 -22 69 l 1,0,-1
EndSplineSet
Substitution2: "'smcp' Lowercase to Small Capitals in Latin lookup 2 subtable" Z.sc
Substitution2: "'aalt' Access All Alternates in Latin lookup 0 subtable" Z.sc
EndChar

StartChar: braceleft
Encoding: 123 123 95
Width: 285
GlyphClass: 2
Flags: W
LayerCount: 2
Fore
SplineSet
262 651 m 1,0,-1
 214 427 l 2,1,2
 210 410 210 410 198.5 392 c 128,-1,3
 187 374 187 374 169 360 c 1,4,5
 187 340 187 340 187 309 c 0,6,7
 187 305 187 305 187 301.5 c 128,-1,8
 187 298 187 298 186 293 c 2,9,-1
 136 58 l 1,10,-1
 188 58 l 1,11,-1
 170 -31 l 1,12,-1
 40 -31 l 2,13,14
 34 -31 34 -31 28.5 -27 c 128,-1,15
 23 -23 23 -23 23 -12 c 0,16,17
 23 -5 23 -5 24 -1 c 2,18,-1
 79 259 l 2,19,20
 80 264 80 264 80 274 c 0,21,22
 80 293 80 293 71.5 306 c 128,-1,23
 63 319 63 319 48 322 c 1,24,-1
 65 400 l 1,25,26
 75 400 75 400 84.5 406 c 128,-1,27
 94 412 94 412 102 421.5 c 128,-1,28
 110 431 110 431 115.5 441.5 c 128,-1,29
 121 452 121 452 123 461 c 2,30,-1
 175 710 l 2,31,32
 179 729 179 729 189 734.5 c 128,-1,33
 199 740 199 740 204 740 c 2,34,-1
 334 740 l 1,35,-1
 314 651 l 1,36,-1
 262 651 l 1,0,-1
EndSplineSet
EndChar

StartChar: bar
Encoding: 124 124 96
Width: 314
GlyphClass: 2
Flags: W
LayerCount: 2
Fore
SplineSet
115 -130 m 1,0,-1
 115 775 l 1,1,-1
 209 775 l 1,2,-1
 209 -130 l 1,3,-1
 115 -130 l 1,0,-1
EndSplineSet
EndChar

StartChar: braceright
Encoding: 125 125 97
Width: 286
GlyphClass: 2
Flags: W
LayerCount: 2
Fore
SplineSet
121 651 m 1,0,-1
 140 740 l 1,1,-1
 269 740 l 2,2,3
 274 740 274 740 280 736 c 128,-1,4
 286 732 286 732 286 719 c 0,5,6
 286 713 286 713 285 710 c 2,7,-1
 232 461 l 2,8,9
 230 453 230 453 230 448 c 0,10,11
 230 431 230 431 238.5 415.5 c 128,-1,12
 247 400 247 400 264 400 c 1,13,-1
 247 322 l 1,14,15
 227 318 227 318 210.5 300.5 c 128,-1,16
 194 283 194 283 189 259 c 2,17,-1
 134 -1 l 2,18,19
 130 -18 130 -18 121 -24.5 c 128,-1,20
 112 -31 112 -31 105 -31 c 2,21,-1
 -24 -31 l 1,22,-1
 -5 58 l 1,23,-1
 47 58 l 1,24,-1
 97 293 l 2,25,26
 101 310 101 310 112.5 328 c 128,-1,27
 124 346 124 346 141 360 c 1,28,29
 124 382 124 382 124 410 c 0,30,31
 124 415 124 415 124 418.5 c 128,-1,32
 124 422 124 422 126 427 c 2,33,-1
 173 651 l 1,34,-1
 121 651 l 1,0,-1
EndSplineSet
EndChar

StartChar: asciitilde
Encoding: 126 126 98
Width: 529
GlyphClass: 2
Flags: W
LayerCount: 2
Fore
SplineSet
45 232 m 1,0,1
 46 239 46 239 55.5 259 c 128,-1,2
 65 279 65 279 83 300 c 128,-1,3
 101 321 101 321 127.5 337.5 c 128,-1,4
 154 354 154 354 189 354 c 0,5,6
 214 354 214 354 233.5 345.5 c 128,-1,7
 253 337 253 337 270.5 326.5 c 128,-1,8
 288 316 288 316 305.5 307.5 c 128,-1,9
 323 299 323 299 344 299 c 0,10,11
 363 299 363 299 377.5 306.5 c 128,-1,12
 392 314 392 314 401 323 c 128,-1,13
 410 332 410 332 414.5 340 c 128,-1,14
 419 348 419 348 419 350 c 2,15,-1
 481 350 l 1,16,17
 480 346 480 346 471 327 c 128,-1,18
 462 308 462 308 443.5 287 c 128,-1,19
 425 266 425 266 397.5 249 c 128,-1,20
 370 232 370 232 333 232 c 0,21,22
 308 232 308 232 288 240.5 c 128,-1,23
 268 249 268 249 250.5 259.5 c 128,-1,24
 233 270 233 270 215.5 278.5 c 128,-1,25
 198 287 198 287 179 287 c 256,26,27
 160 287 160 287 146.5 278.5 c 128,-1,28
 133 270 133 270 124.5 260 c 128,-1,29
 116 250 116 250 112 241.5 c 128,-1,30
 108 233 108 233 108 232 c 2,31,-1
 45 232 l 1,32,-1
 45 232 l 1,0,1
EndSplineSet
EndChar

StartChar: exclamdown
Encoding: 161 161 100
Width: 273
GlyphClass: 2
Flags: W
LayerCount: 2
Fore
SplineSet
225 460 m 1,0,-1
 127 -4 l 1,1,-1
 17 -4 l 1,2,-1
 115 460 l 1,3,-1
 225 460 l 1,0,-1
279 713 m 1,4,-1
 250 576 l 1,5,-1
 140 576 l 1,6,-1
 169 713 l 1,7,-1
 279 713 l 1,4,-1
EndSplineSet
EndChar

StartChar: cent
Encoding: 162 162 101
Width: 559
GlyphClass: 2
Flags: W
LayerCount: 2
Fore
SplineSet
177 -120 m 1,0,-1
 201 -9 l 1,1,2
 160 -6 160 -6 127.5 14 c 128,-1,3
 95 34 95 34 72.5 64.5 c 128,-1,4
 50 95 50 95 38.5 133 c 128,-1,5
 27 171 27 171 27 211 c 0,6,7
 27 266 27 266 48 319.5 c 128,-1,8
 69 373 69 373 106.5 417.5 c 128,-1,9
 144 462 144 462 197 492 c 128,-1,10
 250 522 250 522 315 531 c 1,11,-1
 340 645 l 1,12,-1
 390 645 l 1,13,-1
 366 531 l 1,14,15
 434 529 434 529 479 495.5 c 128,-1,16
 524 462 524 462 541 402 c 1,17,-1
 427 368 l 1,18,19
 418 399 418 399 396.5 415.5 c 128,-1,20
 375 432 375 432 346 434 c 1,21,-1
 272 87 l 1,22,23
 287 89 287 89 303.5 94.5 c 128,-1,24
 320 100 320 100 335.5 109 c 128,-1,25
 351 118 351 118 364 130 c 128,-1,26
 377 142 377 142 384 156 c 1,27,-1
 485 124 l 1,28,29
 465 91 465 91 435 65.5 c 128,-1,30
 405 40 405 40 372.5 23.5 c 128,-1,31
 340 7 340 7 308 -1.5 c 128,-1,32
 276 -10 276 -10 251 -10 c 1,33,-1
 228 -120 l 1,34,-1
 177 -120 l 1,0,-1
141 222 m 0,35,36
 141 176 141 176 162.5 139 c 128,-1,37
 184 102 184 102 222 92 c 1,38,-1
 294 430 l 1,39,40
 261 424 261 424 233 403.5 c 128,-1,41
 205 383 205 383 184.5 353.5 c 128,-1,42
 164 324 164 324 152.5 289.5 c 128,-1,43
 141 255 141 255 141 222 c 0,35,36
EndSplineSet
EndChar

StartChar: sterling
Encoding: 163 163 102
Width: 507
GlyphClass: 2
Flags: W
LayerCount: 2
Fore
SplineSet
71 378 m 1,0,-1
 145 378 l 1,1,2
 137 411 137 411 129 443.5 c 128,-1,3
 121 476 121 476 121 508 c 0,4,5
 121 551 121 551 140.5 588.5 c 128,-1,6
 160 626 160 626 192.5 654 c 128,-1,7
 225 682 225 682 266.5 698.5 c 128,-1,8
 308 715 308 715 352 715 c 0,9,10
 409 715 409 715 453 687 c 128,-1,11
 497 659 497 659 520 610 c 1,12,-1
 447 542 l 1,13,14
 432 580 432 580 400 602.5 c 128,-1,15
 368 625 368 625 332 625 c 0,16,17
 309 625 309 625 289 616 c 128,-1,18
 269 607 269 607 253.5 591 c 128,-1,19
 238 575 238 575 229 553.5 c 128,-1,20
 220 532 220 532 220 508 c 0,21,22
 220 478 220 478 229 446 c 128,-1,23
 238 414 238 414 246 378 c 1,24,-1
 420 378 l 1,25,-1
 402 294 l 1,26,-1
 252 294 l 1,27,28
 250 269 250 269 243.5 246 c 128,-1,29
 237 223 237 223 222 199 c 128,-1,30
 207 175 207 175 183 147.5 c 128,-1,31
 159 120 159 120 122 86 c 1,32,33
 143 91 143 91 160.5 94 c 128,-1,34
 178 97 178 97 195 97 c 0,35,36
 213 97 213 97 229 94 c 128,-1,37
 245 91 245 91 260 88 c 128,-1,38
 275 85 275 85 290 82 c 128,-1,39
 305 79 305 79 322 79 c 256,40,41
 339 79 339 79 357.5 83.5 c 128,-1,42
 376 88 376 88 401 96 c 1,43,-1
 410 14 l 1,44,45
 384 0 384 0 354 -7.5 c 128,-1,46
 324 -15 324 -15 297 -15 c 0,47,48
 275 -15 275 -15 255 -11 c 128,-1,49
 235 -7 235 -7 215 -1.5 c 128,-1,50
 195 4 195 4 174.5 8 c 128,-1,51
 154 12 154 12 131 12 c 0,52,53
 107 12 107 12 74 6.5 c 128,-1,54
 41 1 41 1 11 -8 c 1,55,-1
 3 71 l 1,56,57
 82 134 82 134 117.5 185 c 128,-1,58
 153 236 153 236 155 294 c 1,59,-1
 54 294 l 1,60,-1
 71 378 l 1,0,-1
EndSplineSet
EndChar

StartChar: currency
Encoding: 164 164 103
Width: 571
GlyphClass: 2
Flags: W
LayerCount: 2
Fore
SplineSet
185 491 m 1,0,1
 207 506 207 506 234 514.5 c 128,-1,2
 261 523 261 523 293 523 c 0,3,4
 324 523 324 523 350.5 514.5 c 128,-1,5
 377 506 377 506 400 491 c 1,6,-1
 470 562 l 1,7,-1
 518 515 l 1,8,-1
 448 445 l 1,9,10
 463 422 463 422 471.5 394.5 c 128,-1,11
 480 367 480 367 480 337 c 256,12,13
 480 307 480 307 471.5 279.5 c 128,-1,14
 463 252 463 252 447 229 c 1,15,-1
 518 159 l 1,16,-1
 475 117 l 1,17,-1
 402 185 l 1,18,19
 380 170 380 170 352.5 161 c 128,-1,20
 325 152 325 152 293 152 c 0,21,22
 260 152 260 152 232.5 161 c 128,-1,23
 205 170 205 170 182 185 c 1,24,-1
 110 117 l 1,25,-1
 67 159 l 1,26,-1
 138 230 l 1,27,28
 106 277 106 277 106 337 c 0,29,30
 106 367 106 367 113.5 394 c 128,-1,31
 121 421 121 421 137 444 c 1,32,-1
 67 515 l 1,33,-1
 115 562 l 1,34,-1
 185 491 l 1,0,1
191 336 m 0,35,36
 191 312 191 312 199 291.5 c 128,-1,37
 207 271 207 271 220.5 256 c 128,-1,38
 234 241 234 241 253 232.5 c 128,-1,39
 272 224 272 224 293 224 c 0,40,41
 336 224 336 224 365.5 256.5 c 128,-1,42
 395 289 395 289 395 338 c 256,43,44
 395 387 395 387 365.5 418.5 c 128,-1,45
 336 450 336 450 293 450 c 256,46,47
 250 450 250 450 220.5 418 c 128,-1,48
 191 386 191 386 191 336 c 0,35,36
EndSplineSet
EndChar

StartChar: yen
Encoding: 165 165 104
Width: 672
GlyphClass: 2
Flags: W
LayerCount: 2
Fore
SplineSet
477 389 m 1,0,-1
 551 389 l 1,1,-1
 535 316 l 1,2,-1
 423 316 l 1,3,-1
 376 254 l 1,4,-1
 370 225 l 1,5,-1
 516 225 l 1,6,-1
 501 152 l 1,7,-1
 354 152 l 1,8,-1
 322 0 l 1,9,-1
 210 0 l 1,10,-1
 242 152 l 1,11,-1
 98 152 l 1,12,-1
 114 225 l 1,13,-1
 258 225 l 1,14,-1
 265 256 l 1,15,-1
 246 316 l 1,16,-1
 133 316 l 1,17,-1
 149 389 l 1,18,-1
 223 389 l 1,19,-1
 114 710 l 1,20,-1
 236 710 l 1,21,-1
 341 354 l 1,22,-1
 600 710 l 1,23,-1
 724 710 l 1,24,-1
 477 389 l 1,0,-1
EndSplineSet
EndChar

StartChar: brokenbar
Encoding: 166 166 105
Width: 308
GlyphClass: 2
Flags: W
LayerCount: 2
Fore
SplineSet
206 269 m 1,0,-1
 206 -130 l 1,1,-1
 112 -130 l 1,2,-1
 112 269 l 1,3,-1
 206 269 l 1,0,-1
206 775 m 1,4,-1
 206 376 l 1,5,-1
 112 376 l 1,6,-1
 112 775 l 1,7,-1
 206 775 l 1,4,-1
EndSplineSet
EndChar

StartChar: section
Encoding: 167 167 106
Width: 506
GlyphClass: 2
Flags: W
LayerCount: 2
Fore
SplineSet
406 208 m 1,0,1
 426 188 426 188 426 141 c 0,2,3
 426 81 426 81 400.5 37.5 c 128,-1,4
 375 -6 375 -6 337 -34 c 128,-1,5
 299 -62 299 -62 255 -75 c 128,-1,6
 211 -88 211 -88 174 -88 c 0,7,8
 138 -88 138 -88 108.5 -78 c 128,-1,9
 79 -68 79 -68 57 -53 c 128,-1,10
 35 -38 35 -38 19 -21 c 128,-1,11
 3 -4 3 -4 -6 11 c 1,12,-1
 79 79 l 1,13,14
 103 46 103 46 130 31.5 c 128,-1,15
 157 17 157 17 191 17 c 0,16,17
 212 17 212 17 232.5 23.5 c 128,-1,18
 253 30 253 30 270 42.5 c 128,-1,19
 287 55 287 55 297.5 73.5 c 128,-1,20
 308 92 308 92 308 115 c 0,21,22
 308 132 308 132 301 142 c 128,-1,23
 294 152 294 152 283.5 157.5 c 128,-1,24
 273 163 273 163 259 165.5 c 128,-1,25
 245 168 245 168 232 169 c 0,26,27
 154 174 154 174 112 210 c 128,-1,28
 70 246 70 246 70 309 c 0,29,30
 70 351 70 351 85 378 c 128,-1,31
 100 405 100 405 111 419 c 1,32,33
 102 430 102 430 96 451.5 c 128,-1,34
 90 473 90 473 90 500 c 0,35,36
 90 545 90 545 110.5 584 c 128,-1,37
 131 623 131 623 165 652 c 128,-1,38
 199 681 199 681 242 698 c 128,-1,39
 285 715 285 715 329 715 c 0,40,41
 369 715 369 715 397.5 704 c 128,-1,42
 426 693 426 693 446 676.5 c 128,-1,43
 466 660 466 660 479 640 c 128,-1,44
 492 620 492 620 500 602 c 1,45,-1
 406 562 l 1,46,47
 398 590 398 590 372.5 603.5 c 128,-1,48
 347 617 347 617 315 617 c 0,49,50
 294 617 294 617 274 610 c 128,-1,51
 254 603 254 603 238 590 c 128,-1,52
 222 577 222 577 212.5 558 c 128,-1,53
 203 539 203 539 203 516 c 0,54,55
 203 482 203 482 225 470 c 128,-1,56
 247 458 247 458 281 457 c 0,57,58
 312 456 312 456 342.5 449 c 128,-1,59
 373 442 373 442 397 426 c 128,-1,60
 421 410 421 410 436 385 c 128,-1,61
 451 360 451 360 451 323 c 0,62,63
 451 304 451 304 446.5 286.5 c 128,-1,64
 442 269 442 269 435.5 254 c 128,-1,65
 429 239 429 239 421 227 c 128,-1,66
 413 215 413 215 406 208 c 1,0,1
176 309 m 0,67,68
 176 281 176 281 191.5 268.5 c 128,-1,69
 207 256 207 256 228.5 251 c 128,-1,70
 250 246 250 246 273 244.5 c 128,-1,71
 296 243 296 243 310 236 c 1,72,73
 324 247 324 247 334 266 c 128,-1,74
 344 285 344 285 344 305 c 0,75,76
 344 323 344 323 337 335 c 128,-1,77
 330 347 330 347 318.5 354.5 c 128,-1,78
 307 362 307 362 293 365 c 128,-1,79
 279 368 279 368 266 368 c 0,80,81
 249 368 249 368 232.5 371 c 128,-1,82
 216 374 216 374 207 379 c 1,83,84
 196 368 196 368 186 349.5 c 128,-1,85
 176 331 176 331 176 309 c 0,67,68
EndSplineSet
EndChar

StartChar: dieresis
Encoding: 168 168 107
Width: 400
GlyphClass: 2
Flags: W
LayerCount: 2
Fore
SplineSet
73 615 m 1,0,-1
 97 725 l 1,1,-1
 188 725 l 1,2,-1
 165 615 l 1,3,-1
 73 615 l 1,0,-1
245 615 m 1,4,-1
 268 725 l 1,5,-1
 359 725 l 1,6,-1
 336 615 l 1,7,-1
 245 615 l 1,4,-1
EndSplineSet
EndChar

StartChar: copyright
Encoding: 169 169 108
Width: 852
GlyphClass: 2
Flags: W
LayerCount: 2
Fore
SplineSet
435 -7 m 0,0,1
 355 -7 355 -7 286.5 20.5 c 128,-1,2
 218 48 218 48 168.5 96.5 c 128,-1,3
 119 145 119 145 91 211 c 128,-1,4
 63 277 63 277 63 355 c 0,5,6
 63 432 63 432 91 498 c 128,-1,7
 119 564 119 564 168.5 612 c 128,-1,8
 218 660 218 660 286.5 687.5 c 128,-1,9
 355 715 355 715 435 715 c 0,10,11
 516 715 516 715 585 687.5 c 128,-1,12
 654 660 654 660 704.5 612 c 128,-1,13
 755 564 755 564 783.5 498 c 128,-1,14
 812 432 812 432 812 355 c 0,15,16
 812 277 812 277 783.5 211 c 128,-1,17
 755 145 755 145 704.5 96.5 c 128,-1,18
 654 48 654 48 585 20.5 c 128,-1,19
 516 -7 516 -7 435 -7 c 0,0,1
435 37 m 0,20,21
 504 37 504 37 564.5 60 c 128,-1,22
 625 83 625 83 669 125 c 128,-1,23
 713 167 713 167 738.5 225 c 128,-1,24
 764 283 764 283 764 353 c 0,25,26
 764 421 764 421 739 479 c 128,-1,27
 714 537 714 537 670 580 c 128,-1,28
 626 623 626 623 566 647 c 128,-1,29
 506 671 506 671 435 671 c 0,30,31
 365 671 365 671 305.5 647 c 128,-1,32
 246 623 246 623 202.5 580 c 128,-1,33
 159 537 159 537 134.5 479 c 128,-1,34
 110 421 110 421 110 354 c 256,35,36
 110 287 110 287 134.5 229 c 128,-1,37
 159 171 159 171 202.5 128.5 c 128,-1,38
 246 86 246 86 305.5 61.5 c 128,-1,39
 365 37 365 37 435 37 c 0,20,21
443 119 m 0,40,41
 391 119 391 119 346 136.5 c 128,-1,42
 301 154 301 154 268 185.5 c 128,-1,43
 235 217 235 217 216.5 260.5 c 128,-1,44
 198 304 198 304 198 355 c 0,45,46
 198 399 198 399 213 441.5 c 128,-1,47
 228 484 228 484 258 517.5 c 128,-1,48
 288 551 288 551 333.5 571.5 c 128,-1,49
 379 592 379 592 439 592 c 0,50,51
 514 592 514 592 569 559.5 c 128,-1,52
 624 527 624 527 650 470 c 1,53,-1
 544 436 l 1,54,55
 535 454 535 454 522.5 466 c 128,-1,56
 510 478 510 478 496 484.5 c 128,-1,57
 482 491 482 491 467 494 c 128,-1,58
 452 497 452 497 439 497 c 0,59,60
 408 497 408 497 384 485 c 128,-1,61
 360 473 360 473 343.5 453.5 c 128,-1,62
 327 434 327 434 318.5 408 c 128,-1,63
 310 382 310 382 310 355 c 0,64,65
 310 321 310 321 322 294.5 c 128,-1,66
 334 268 334 268 352.5 250 c 128,-1,67
 371 232 371 232 394.5 222.5 c 128,-1,68
 418 213 418 213 441 213 c 0,69,70
 473 213 473 213 503.5 229.5 c 128,-1,71
 534 246 534 246 548 276 c 1,72,-1
 655 244 l 1,73,74
 645 221 645 221 626 198.5 c 128,-1,75
 607 176 607 176 580 158.5 c 128,-1,76
 553 141 553 141 518.5 130 c 128,-1,77
 484 119 484 119 443 119 c 0,40,41
EndSplineSet
EndChar

StartChar: ordfeminine
Encoding: 170 170 109
Width: 421
GlyphClass: 2
Flags: W
LayerCount: 2
Fore
SplineSet
163 342 m 0,0,1
 121 342 121 342 95.5 368 c 128,-1,2
 70 394 70 394 70 433 c 0,3,4
 70 463 70 463 83.5 488 c 128,-1,5
 97 513 97 513 120 531 c 128,-1,6
 143 549 143 549 173.5 559 c 128,-1,7
 204 569 204 569 239 569 c 0,8,9
 286 569 286 569 320 553 c 1,10,-1
 325 575 l 2,11,12
 328 587 328 587 328 597 c 0,13,14
 328 653 328 653 265 653 c 0,15,16
 238 653 238 653 210 643 c 128,-1,17
 182 633 182 633 150 613 c 1,18,-1
 136 666 l 1,19,20
 212 712 212 712 284 712 c 0,21,22
 344 712 344 712 377 685 c 128,-1,23
 410 658 410 658 410 607 c 0,24,25
 410 590 410 590 405 565 c 2,26,-1
 380 447 l 2,27,28
 379 443 379 443 379 437 c 0,29,30
 379 422 379 422 397 421 c 1,31,-1
 381 348 l 1,32,33
 371 346 371 346 362.5 345 c 128,-1,34
 354 344 354 344 347 344 c 0,35,36
 298 344 298 344 298 380 c 0,37,38
 298 388 298 388 302 407 c 1,39,40
 272 375 272 375 236 358.5 c 128,-1,41
 200 342 200 342 163 342 c 0,0,1
200 404 m 0,42,43
 215 404 215 404 231.5 409 c 128,-1,44
 248 414 248 414 262.5 422 c 128,-1,45
 277 430 277 430 287.5 440.5 c 128,-1,46
 298 451 298 451 300 463 c 2,47,-1
 309 506 l 1,48,49
 296 514 296 514 278 517 c 128,-1,50
 260 520 260 520 243 520 c 0,51,52
 205 520 205 520 178 501 c 128,-1,53
 151 482 151 482 151 451 c 0,54,55
 151 431 151 431 164.5 417.5 c 128,-1,56
 178 404 178 404 200 404 c 0,42,43
EndSplineSet
EndChar

StartChar: guillemotleft
Encoding: 171 171 110
Width: 601
GlyphClass: 2
Flags: W
LayerCount: 2
Fore
SplineSet
35 284 m 1,0,-1
 321 469 l 1,1,-1
 301 378 l 1,2,-1
 117 259 l 1,3,-1
 251 144 l 1,4,-1
 232 54 l 1,5,-1
 23 229 l 1,6,-1
 35 284 l 1,0,-1
292 284 m 1,7,-1
 578 469 l 1,8,-1
 559 378 l 1,9,-1
 375 259 l 1,10,-1
 510 144 l 1,11,-1
 490 54 l 1,12,-1
 281 229 l 1,13,-1
 292 284 l 1,7,-1
EndSplineSet
EndChar

StartChar: logicalnot
Encoding: 172 172 111
Width: 580
GlyphClass: 2
Flags: W
LayerCount: 2
Fore
SplineSet
531 387 m 1,0,-1
 473 113 l 1,1,-1
 379 113 l 1,2,-1
 416 288 l 1,3,-1
 59 288 l 1,4,-1
 80 387 l 1,5,-1
 531 387 l 1,0,-1
EndSplineSet
EndChar

StartChar: uni00AD
Encoding: 173 173 112
Width: 571
GlyphClass: 2
Flags: W
LayerCount: 2
Fore
SplineSet
43 224 m 1,0,-1
 64 323 l 1,1,-1
 516 323 l 1,2,-1
 494 224 l 1,3,-1
 43 224 l 1,0,-1
EndSplineSet
EndChar

StartChar: registered
Encoding: 174 174 113
Width: 852
GlyphClass: 2
Flags: W
LayerCount: 2
Fore
SplineSet
436 -7 m 256,0,1
 355 -7 355 -7 287 20.5 c 128,-1,2
 219 48 219 48 169 96.5 c 128,-1,3
 119 145 119 145 91 211 c 128,-1,4
 63 277 63 277 63 355 c 0,5,6
 63 432 63 432 91 498 c 128,-1,7
 119 564 119 564 169 612 c 128,-1,8
 219 660 219 660 287 687.5 c 128,-1,9
 355 715 355 715 436 715 c 256,10,11
 517 715 517 715 585.5 687.5 c 128,-1,12
 654 660 654 660 704.5 612 c 128,-1,13
 755 564 755 564 783.5 498 c 128,-1,14
 812 432 812 432 812 355 c 0,15,16
 812 277 812 277 783.5 211 c 128,-1,17
 755 145 755 145 704.5 96.5 c 128,-1,18
 654 48 654 48 585.5 20.5 c 128,-1,19
 517 -7 517 -7 436 -7 c 256,0,1
436 36 m 0,20,21
 505 36 505 36 564.5 59 c 128,-1,22
 624 82 624 82 668.5 124 c 128,-1,23
 713 166 713 166 738 224.5 c 128,-1,24
 763 283 763 283 763 354 c 0,25,26
 763 421 763 421 738.5 479 c 128,-1,27
 714 537 714 537 670 579.5 c 128,-1,28
 626 622 626 622 566 646.5 c 128,-1,29
 506 671 506 671 436 671 c 0,30,31
 365 671 365 671 306 646.5 c 128,-1,32
 247 622 247 622 203.5 579.5 c 128,-1,33
 160 537 160 537 136 479.5 c 128,-1,34
 112 422 112 422 112 355 c 0,35,36
 112 287 112 287 136 229 c 128,-1,37
 160 171 160 171 203.5 128 c 128,-1,38
 247 85 247 85 306 60.5 c 128,-1,39
 365 36 365 36 436 36 c 0,20,21
278 577 m 1,40,-1
 471 577 l 2,41,42
 501 577 501 577 526.5 564.5 c 128,-1,43
 552 552 552 552 570 531.5 c 128,-1,44
 588 511 588 511 598.5 485 c 128,-1,45
 609 459 609 459 609 432 c 0,46,47
 609 387 609 387 584.5 351 c 128,-1,48
 560 315 560 315 521 302 c 1,49,-1
 627 133 l 1,50,-1
 538 133 l 1,51,-1
 440 288 l 1,52,-1
 357 288 l 1,53,-1
 357 133 l 1,54,-1
 278 133 l 1,55,-1
 278 577 l 1,40,-1
466 357 m 2,56,57
 497 357 497 357 514 377.5 c 128,-1,58
 531 398 531 398 531 432 c 0,59,60
 531 467 531 467 511.5 486.5 c 128,-1,61
 492 506 492 506 463 506 c 2,62,-1
 357 506 l 1,63,-1
 357 357 l 1,64,-1
 466 357 l 2,56,57
EndSplineSet
EndChar

StartChar: macron
Encoding: 175 175 114
Width: 393
GlyphClass: 2
Flags: W
LayerCount: 2
Fore
SplineSet
76 642 m 1,0,-1
 90 712 l 1,1,-1
 373 712 l 1,2,-1
 358 642 l 1,3,-1
 76 642 l 1,0,-1
EndSplineSet
EndChar

StartChar: degree
Encoding: 176 176 115
Width: 271
GlyphClass: 2
Flags: W
LayerCount: 2
Fore
SplineSet
182 533 m 0,0,1
 149 533 149 533 128.5 554 c 128,-1,2
 108 575 108 575 108 608 c 0,3,4
 108 630 108 630 117 650.5 c 128,-1,5
 126 671 126 671 141.5 687.5 c 128,-1,6
 157 704 157 704 178 714 c 128,-1,7
 199 724 199 724 223 724 c 0,8,9
 258 724 258 724 278 702 c 128,-1,10
 298 680 298 680 298 648 c 0,11,12
 298 624 298 624 288.5 603 c 128,-1,13
 279 582 279 582 263.5 566.5 c 128,-1,14
 248 551 248 551 227 542 c 128,-1,15
 206 533 206 533 182 533 c 0,0,1
194 589 m 0,16,17
 211 589 211 589 226 603 c 128,-1,18
 241 617 241 617 241 636 c 0,19,20
 241 651 241 651 233 659.5 c 128,-1,21
 225 668 225 668 211 668 c 0,22,23
 194 668 194 668 179 654 c 128,-1,24
 164 640 164 640 164 622 c 0,25,26
 164 607 164 607 172 598 c 128,-1,27
 180 589 180 589 194 589 c 0,16,17
EndSplineSet
EndChar

StartChar: plusminus
Encoding: 177 177 116
Width: 497
GlyphClass: 2
Flags: W
LayerCount: 2
Fore
SplineSet
65 40 m 1,0,-1
 65 129 l 1,1,-1
 408 129 l 1,2,-1
 408 40 l 1,3,-1
 65 40 l 1,0,-1
408 417 m 1,4,-1
 408 328 l 1,5,-1
 286 328 l 1,6,-1
 286 196 l 1,7,-1
 187 196 l 1,8,-1
 187 328 l 1,9,-1
 66 328 l 1,10,-1
 66 417 l 1,11,-1
 187 417 l 1,12,-1
 187 548 l 1,13,-1
 286 548 l 1,14,-1
 286 417 l 1,15,-1
 408 417 l 1,4,-1
EndSplineSet
EndChar

StartChar: twosuperior
Encoding: 178 178 117
Width: 392
GlyphClass: 2
Flags: W
LayerCount: 2
Fore
SplineSet
53 395 m 1,0,1
 61 435 61 435 74 465 c 128,-1,2
 87 495 87 495 106.5 517.5 c 128,-1,3
 126 540 126 540 153.5 557 c 128,-1,4
 181 574 181 574 217 588 c 0,5,6
 243 598 243 598 269.5 607.5 c 128,-1,7
 296 617 296 617 317.5 629 c 128,-1,8
 339 641 339 641 352.5 657 c 128,-1,9
 366 673 366 673 366 697 c 0,10,11
 366 720 366 720 347.5 734 c 128,-1,12
 329 748 329 748 292 748 c 0,13,14
 248 748 248 748 215.5 731 c 128,-1,15
 183 714 183 714 163 697 c 1,16,-1
 131 745 l 1,17,18
 139 753 139 753 155.5 765 c 128,-1,19
 172 777 172 777 195.5 787.5 c 128,-1,20
 219 798 219 798 249.5 805.5 c 128,-1,21
 280 813 280 813 315 813 c 0,22,23
 379 813 379 813 411 785.5 c 128,-1,24
 443 758 443 758 443 711 c 0,25,26
 443 678 443 678 431.5 654 c 128,-1,27
 420 630 420 630 399.5 612 c 128,-1,28
 379 594 379 594 349.5 580.5 c 128,-1,29
 320 567 320 567 284 555 c 0,30,31
 228 537 228 537 203.5 511 c 128,-1,32
 179 485 179 485 174 460 c 1,33,-1
 382 460 l 1,34,-1
 368 395 l 1,35,-1
 53 395 l 1,0,1
EndSplineSet
EndChar

StartChar: threesuperior
Encoding: 179 179 118
Width: 385
GlyphClass: 2
Flags: W
LayerCount: 2
Fore
SplineSet
204 389 m 0,0,1
 147 389 147 389 112.5 411 c 128,-1,2
 78 433 78 433 65 471 c 1,3,-1
 112 519 l 1,4,5
 113 510 113 510 119 499 c 128,-1,6
 125 488 125 488 138 478.5 c 128,-1,7
 151 469 151 469 170.5 462.5 c 128,-1,8
 190 456 190 456 217 456 c 0,9,10
 238 456 238 456 258 460.5 c 128,-1,11
 278 465 278 465 293.5 473.5 c 128,-1,12
 309 482 309 482 318.5 494 c 128,-1,13
 328 506 328 506 328 521 c 0,14,15
 328 550 328 550 294 563.5 c 128,-1,16
 260 577 260 577 200 577 c 2,17,-1
 177 577 l 1,18,-1
 190 638 l 1,19,-1
 212 638 l 2,20,21
 275 638 275 638 314 654 c 128,-1,22
 353 670 353 670 353 702 c 0,23,24
 353 727 353 727 330 739 c 128,-1,25
 307 751 307 751 277 751 c 0,26,27
 240 751 240 751 210 737 c 128,-1,28
 180 723 180 723 158 700 c 1,29,-1
 127 752 l 1,30,31
 140 767 140 767 158.5 778 c 128,-1,32
 177 789 177 789 198.5 797 c 128,-1,33
 220 805 220 805 243.5 809 c 128,-1,34
 267 813 267 813 290 813 c 0,35,36
 352 813 352 813 389 785.5 c 128,-1,37
 426 758 426 758 426 713 c 0,38,39
 426 674 426 674 396.5 647.5 c 128,-1,40
 367 621 367 621 316 611 c 1,41,42
 354 605 354 605 374.5 581 c 128,-1,43
 395 557 395 557 395 522 c 0,44,45
 395 489 395 489 378 464.5 c 128,-1,46
 361 440 361 440 333.5 423 c 128,-1,47
 306 406 306 406 272 397.5 c 128,-1,48
 238 389 238 389 204 389 c 0,0,1
EndSplineSet
EndChar

StartChar: acute
Encoding: 180 180 119
Width: 233
GlyphClass: 2
Flags: W
LayerCount: 2
Fore
SplineSet
96 602 m 1,0,-1
 26 620 l 1,1,-1
 102 730 l 1,2,-1
 207 730 l 1,3,-1
 96 602 l 1,0,-1
EndSplineSet
EndChar

StartChar: mu
Encoding: 181 181 120
Width: 619
GlyphClass: 2
Flags: W
LayerCount: 2
Fore
SplineSet
121 523 m 1,0,-1
 231 523 l 1,1,-1
 167 225 l 2,2,3
 159 190 159 190 159 165 c 0,4,5
 159 84 159 84 231 84 c 0,6,7
 273 84 273 84 317.5 113 c 128,-1,8
 362 142 362 142 396 197 c 1,9,-1
 465 523 l 1,10,-1
 575 523 l 1,11,-1
 492 130 l 2,12,13
 491 125 491 125 490.5 122 c 128,-1,14
 490 119 490 119 490 115 c 0,15,16
 490 95 490 95 516 94 c 1,17,-1
 495 0 l 1,18,19
 480 -2 480 -2 468 -3.5 c 128,-1,20
 456 -5 456 -5 447 -5 c 0,21,22
 417 -5 417 -5 400 8 c 128,-1,23
 383 21 383 21 383 44 c 0,24,25
 383 52 383 52 384.5 65 c 128,-1,26
 386 78 386 78 393 106 c 1,27,28
 379 85 379 85 357.5 64 c 128,-1,29
 336 43 336 43 311 26.5 c 128,-1,30
 286 10 286 10 258.5 0 c 128,-1,31
 231 -10 231 -10 205 -10 c 0,32,33
 167 -10 167 -10 147.5 9.5 c 128,-1,34
 128 29 128 29 125 58 c 1,35,-1
 74 -212 l 1,36,-1
 -36 -212 l 1,37,-1
 121 523 l 1,0,-1
EndSplineSet
EndChar

StartChar: paragraph
Encoding: 182 182 121
Width: 614
GlyphClass: 2
Flags: W
LayerCount: 2
Fore
SplineSet
63 404 m 0,0,1
 63 473 63 473 86 529.5 c 128,-1,2
 109 586 109 586 151.5 626 c 128,-1,3
 194 666 194 666 255 688 c 128,-1,4
 316 710 316 710 392 710 c 2,5,-1
 658 710 l 1,6,-1
 640 626 l 1,7,-1
 573 626 l 1,8,-1
 423 -80 l 1,9,-1
 329 -80 l 1,10,-1
 392 216 l 1,11,-1
 338 216 l 1,12,-1
 274 -80 l 1,13,-1
 180 -80 l 1,14,-1
 244 216 l 1,15,16
 157 218 157 218 110 268.5 c 128,-1,17
 63 319 63 319 63 404 c 0,0,1
158 419 m 0,18,19
 158 362 158 362 187 332.5 c 128,-1,20
 216 303 216 303 261 300 c 1,21,-1
 331 626 l 1,22,23
 292 625 292 625 260 608.5 c 128,-1,24
 228 592 228 592 205.5 564 c 128,-1,25
 183 536 183 536 170.5 498.5 c 128,-1,26
 158 461 158 461 158 419 c 0,18,19
479 626 m 1,27,-1
 425 626 l 1,28,-1
 355 300 l 1,29,-1
 409 300 l 1,30,-1
 479 626 l 1,27,-1
EndSplineSet
EndChar

StartChar: periodcentered
Encoding: 183 183 122
Width: 211
GlyphClass: 2
Flags: W
LayerCount: 2
Fore
SplineSet
47 243 m 1,0,-1
 76 380 l 1,1,-1
 167 380 l 1,2,-1
 138 243 l 1,3,-1
 47 243 l 1,0,-1
EndSplineSet
EndChar

StartChar: cedilla
Encoding: 184 184 123
Width: 297
GlyphClass: 2
Flags: W
LayerCount: 2
Fore
SplineSet
17 -126 m 1,0,1
 27 -133 27 -133 49 -139.5 c 128,-1,2
 71 -146 71 -146 96 -146 c 0,3,4
 125 -146 125 -146 142 -136.5 c 128,-1,5
 159 -127 159 -127 159 -105 c 0,6,7
 159 -90 159 -90 147 -84 c 128,-1,8
 135 -78 135 -78 116 -78 c 0,9,10
 96 -78 96 -78 73 -82 c 128,-1,11
 50 -86 50 -86 37 -90 c 1,12,-1
 118 24 l 1,13,-1
 160 9 l 1,14,-1
 115 -45 l 1,15,16
 123 -43 123 -43 131.5 -42 c 128,-1,17
 140 -41 140 -41 147 -41 c 0,18,19
 176 -41 176 -41 194.5 -54 c 128,-1,20
 213 -67 213 -67 213 -94 c 0,21,22
 213 -135 213 -135 179.5 -162 c 128,-1,23
 146 -189 146 -189 79 -189 c 0,24,25
 49 -189 49 -189 25 -183 c 128,-1,26
 1 -177 1 -177 -16 -169 c 1,27,-1
 17 -126 l 1,0,1
EndSplineSet
EndChar

StartChar: onesuperior
Encoding: 185 185 124
Width: 278
GlyphClass: 2
Flags: W
LayerCount: 2
Fore
SplineSet
292 461 m 1,0,-1
 278 395 l 1,1,-1
 67 395 l 1,2,-1
 82 461 l 1,3,-1
 157 461 l 1,4,-1
 216 740 l 1,5,6
 210 733 210 733 197.5 724.5 c 128,-1,7
 185 716 185 716 170.5 708.5 c 128,-1,8
 156 701 156 701 141.5 695.5 c 128,-1,9
 127 690 127 690 115 690 c 1,10,-1
 129 757 l 1,11,12
 144 757 144 757 161.5 765.5 c 128,-1,13
 179 774 179 774 194.5 784 c 128,-1,14
 210 794 210 794 220.5 803 c 128,-1,15
 231 812 231 812 231 813 c 2,16,-1
 299 813 l 1,17,-1
 224 461 l 1,18,-1
 292 461 l 1,0,-1
EndSplineSet
EndChar

StartChar: ordmasculine
Encoding: 186 186 125
Width: 429
GlyphClass: 2
Flags: W
LayerCount: 2
Fore
SplineSet
222 342 m 0,0,1
 187 342 187 342 161 354 c 128,-1,2
 135 366 135 366 117 386 c 128,-1,3
 99 406 99 406 90 433 c 128,-1,4
 81 460 81 460 81 490 c 0,5,6
 81 533 81 533 98 573 c 128,-1,7
 115 613 115 613 144.5 644 c 128,-1,8
 174 675 174 675 214 693.5 c 128,-1,9
 254 712 254 712 301 712 c 0,10,11
 335 712 335 712 361 700 c 128,-1,12
 387 688 387 688 405 668 c 128,-1,13
 423 648 423 648 432 621 c 128,-1,14
 441 594 441 594 441 563 c 0,15,16
 441 521 441 521 424.5 481 c 128,-1,17
 408 441 408 441 378.5 410.5 c 128,-1,18
 349 380 349 380 309 361 c 128,-1,19
 269 342 269 342 222 342 c 0,0,1
237 414 m 0,20,21
 259 414 259 414 280.5 425 c 128,-1,22
 302 436 302 436 319 455 c 128,-1,23
 336 474 336 474 346 499 c 128,-1,24
 356 524 356 524 356 552 c 0,25,26
 356 590 356 590 336.5 614.5 c 128,-1,27
 317 639 317 639 285 639 c 0,28,29
 262 639 262 639 241 628 c 128,-1,30
 220 617 220 617 203.5 598.5 c 128,-1,31
 187 580 187 580 177 554.5 c 128,-1,32
 167 529 167 529 167 501 c 0,33,34
 167 463 167 463 186 438.5 c 128,-1,35
 205 414 205 414 237 414 c 0,20,21
EndSplineSet
EndChar

StartChar: guillemotright
Encoding: 187 187 126
Width: 601
GlyphClass: 2
Flags: W
LayerCount: 2
Fore
SplineSet
547 229 m 1,0,-1
 264 54 l 1,1,-1
 283 144 l 1,2,-1
 466 259 l 1,3,-1
 332 378 l 1,4,-1
 352 469 l 1,5,-1
 559 284 l 1,6,-1
 547 229 l 1,0,-1
289 229 m 1,7,-1
 5 54 l 1,8,-1
 25 144 l 1,9,-1
 208 259 l 1,10,-1
 75 378 l 1,11,-1
 93 469 l 1,12,-1
 301 284 l 1,13,-1
 289 229 l 1,7,-1
EndSplineSet
EndChar

StartChar: onequarter
Encoding: 188 188 127
Width: 827
GlyphClass: 2
Flags: W
LayerCount: 2
Fore
SplineSet
625 97 m 1,0,-1
 413 97 l 1,1,-1
 427 161 l 1,2,-1
 713 414 l 1,3,-1
 759 414 l 1,4,-1
 705 162 l 1,5,-1
 763 162 l 1,6,-1
 749 97 l 1,7,-1
 692 97 l 1,8,-1
 671 0 l 1,9,-1
 605 0 l 1,10,-1
 625 97 l 1,0,-1
642 162 m 1,11,-1
 677 329 l 1,12,-1
 493 162 l 1,13,-1
 642 162 l 1,11,-1
88 40 m 1,14,-1
 426 373 l 1,15,-1
 749 716 l 1,16,-1
 791 671 l 1,17,-1
 459 342 l 1,18,-1
 130 -6 l 1,19,-1
 88 40 l 1,14,-1
282 379 m 1,20,-1
 268 313 l 1,21,-1
 57 313 l 1,22,-1
 72 379 l 1,23,-1
 147 379 l 1,24,-1
 206 658 l 1,25,26
 199 651 199 651 186.5 642.5 c 128,-1,27
 174 634 174 634 160 626.5 c 128,-1,28
 146 619 146 619 131 613.5 c 128,-1,29
 116 608 116 608 105 608 c 1,30,-1
 119 674 l 1,31,32
 134 674 134 674 151.5 682.5 c 128,-1,33
 169 691 169 691 184.5 701.5 c 128,-1,34
 200 712 200 712 210.5 721 c 128,-1,35
 221 730 221 730 221 731 c 2,36,-1
 289 731 l 1,37,-1
 213 379 l 1,38,-1
 282 379 l 1,20,-1
EndSplineSet
EndChar

StartChar: onehalf
Encoding: 189 189 128
Width: 857
GlyphClass: 2
Flags: W
LayerCount: 2
Fore
SplineSet
442 0 m 1,0,1
 450 40 450 40 462.5 70 c 128,-1,2
 475 100 475 100 493.5 122.5 c 128,-1,3
 512 145 512 145 538.5 162 c 128,-1,4
 565 179 565 179 600 193 c 0,5,6
 625 203 625 203 651 212 c 128,-1,7
 677 221 677 221 697.5 233 c 128,-1,8
 718 245 718 245 731 261.5 c 128,-1,9
 744 278 744 278 744 302 c 0,10,11
 744 325 744 325 726 339 c 128,-1,12
 708 353 708 353 673 353 c 0,13,14
 631 353 631 353 599 335.5 c 128,-1,15
 567 318 567 318 548 301 c 1,16,-1
 517 350 l 1,17,18
 525 358 525 358 541 370 c 128,-1,19
 557 382 557 382 580 392.5 c 128,-1,20
 603 403 603 403 632 410.5 c 128,-1,21
 661 418 661 418 696 418 c 0,22,23
 757 418 757 418 787.5 390.5 c 128,-1,24
 818 363 818 363 818 316 c 0,25,26
 818 284 818 284 808 260 c 128,-1,27
 798 236 798 236 778.5 218 c 128,-1,28
 759 200 759 200 731 186 c 128,-1,29
 703 172 703 172 666 160 c 0,30,31
 611 142 611 142 587.5 116 c 128,-1,32
 564 90 564 90 559 65 c 1,33,-1
 770 65 l 1,34,-1
 755 0 l 1,35,-1
 442 0 l 1,0,1
54 40 m 1,36,-1
 392 373 l 1,37,-1
 715 716 l 1,38,-1
 757 671 l 1,39,-1
 425 342 l 1,40,-1
 96 -6 l 1,41,-1
 54 40 l 1,36,-1
283 379 m 1,42,-1
 269 313 l 1,43,-1
 58 313 l 1,44,-1
 73 379 l 1,45,-1
 148 379 l 1,46,-1
 207 658 l 1,47,48
 200 651 200 651 187.5 642.5 c 128,-1,49
 175 634 175 634 161 626.5 c 128,-1,50
 147 619 147 619 132 613.5 c 128,-1,51
 117 608 117 608 106 608 c 1,52,-1
 120 674 l 1,53,54
 135 674 135 674 152.5 682.5 c 128,-1,55
 170 691 170 691 185.5 701.5 c 128,-1,56
 201 712 201 712 211.5 721 c 128,-1,57
 222 730 222 730 222 731 c 2,58,-1
 290 731 l 1,59,-1
 214 379 l 1,60,-1
 283 379 l 1,42,-1
EndSplineSet
EndChar

StartChar: threequarters
Encoding: 190 190 129
Width: 837
GlyphClass: 2
Flags: W
LayerCount: 2
Fore
SplineSet
190 306 m 0,0,1
 130 306 130 306 94 328 c 128,-1,2
 58 350 58 350 55 389 c 1,3,-1
 102 437 l 1,4,5
 102 428 102 428 108.5 417.5 c 128,-1,6
 115 407 115 407 127.5 397 c 128,-1,7
 140 387 140 387 159 380.5 c 128,-1,8
 178 374 178 374 204 374 c 0,9,10
 226 374 226 374 247 378.5 c 128,-1,11
 268 383 268 383 283.5 391.5 c 128,-1,12
 299 400 299 400 308.5 412.5 c 128,-1,13
 318 425 318 425 318 440 c 0,14,15
 318 467 318 467 283.5 481 c 128,-1,16
 249 495 249 495 189 495 c 2,17,-1
 167 495 l 1,18,-1
 179 556 l 1,19,-1
 201 556 l 2,20,21
 265 556 265 556 304 572 c 128,-1,22
 343 588 343 588 343 621 c 0,23,24
 343 644 343 644 319.5 656.5 c 128,-1,25
 296 669 296 669 267 669 c 0,26,27
 229 669 229 669 199 654.5 c 128,-1,28
 169 640 169 640 148 617 c 1,29,-1
 116 670 l 1,30,31
 129 685 129 685 147.5 696 c 128,-1,32
 166 707 166 707 188 715 c 128,-1,33
 210 723 210 723 233.5 727 c 128,-1,34
 257 731 257 731 280 731 c 0,35,36
 341 731 341 731 378.5 703 c 128,-1,37
 416 675 416 675 416 633 c 0,38,39
 416 592 416 592 386.5 565.5 c 128,-1,40
 357 539 357 539 305 529 c 1,41,42
 343 523 343 523 364 498.5 c 128,-1,43
 385 474 385 474 385 441 c 256,44,45
 385 408 385 408 368 382.5 c 128,-1,46
 351 357 351 357 323.5 340 c 128,-1,47
 296 323 296 323 261 314.5 c 128,-1,48
 226 306 226 306 190 306 c 0,0,1
633 97 m 1,49,-1
 421 97 l 1,50,-1
 435 161 l 1,51,-1
 721 414 l 1,52,-1
 767 414 l 1,53,-1
 713 162 l 1,54,-1
 771 162 l 1,55,-1
 757 97 l 1,56,-1
 700 97 l 1,57,-1
 679 0 l 1,58,-1
 613 0 l 1,59,-1
 633 97 l 1,49,-1
650 162 m 1,60,-1
 685 329 l 1,61,-1
 501 162 l 1,62,-1
 650 162 l 1,60,-1
119 40 m 1,63,-1
 457 373 l 1,64,-1
 780 716 l 1,65,-1
 822 671 l 1,66,-1
 490 342 l 1,67,-1
 161 -6 l 1,68,-1
 119 40 l 1,63,-1
EndSplineSet
EndChar

StartChar: questiondown
Encoding: 191 191 130
Width: 461
GlyphClass: 2
Flags: W
LayerCount: 2
Fore
SplineSet
334 285 m 1,0,1
 323 233 323 233 298.5 193 c 128,-1,2
 274 153 274 153 221 124 c 0,3,4
 195 110 195 110 167 95.5 c 128,-1,5
 139 81 139 81 116 62 c 128,-1,6
 93 43 93 43 77.5 18 c 128,-1,7
 62 -7 62 -7 62 -42 c 0,8,9
 62 -81 62 -81 86 -102 c 128,-1,10
 110 -123 110 -123 144 -123 c 0,11,12
 166 -123 166 -123 186.5 -115.5 c 128,-1,13
 207 -108 207 -108 225 -95.5 c 128,-1,14
 243 -83 243 -83 258 -67.5 c 128,-1,15
 273 -52 273 -52 285 -35 c 1,16,-1
 347 -84 l 1,17,18
 328 -115 328 -115 302.5 -139 c 128,-1,19
 277 -163 277 -163 247.5 -179.5 c 128,-1,20
 218 -196 218 -196 185.5 -204.5 c 128,-1,21
 153 -213 153 -213 121 -213 c 0,22,23
 90 -213 90 -213 61 -204 c 128,-1,24
 32 -195 32 -195 10 -176 c 128,-1,25
 -12 -157 -12 -157 -25 -128 c 128,-1,26
 -38 -99 -38 -99 -38 -59 c 0,27,28
 -38 -13 -38 -13 -26 20 c 128,-1,29
 -14 53 -14 53 6.5 77 c 128,-1,30
 27 101 27 101 54.5 119 c 128,-1,31
 82 137 82 137 113 153 c 0,32,33
 134 164 134 164 154.5 175.5 c 128,-1,34
 175 187 175 187 192.5 202 c 128,-1,35
 210 217 210 217 223 237 c 128,-1,36
 236 257 236 257 242 285 c 1,37,-1
 334 285 l 1,0,1
379 506 m 1,38,-1
 352 380 l 1,39,-1
 261 380 l 1,40,-1
 287 506 l 1,41,-1
 379 506 l 1,38,-1
EndSplineSet
EndChar

StartChar: Agrave
Encoding: 192 192 131
Width: 649
GlyphClass: 2
Flags: W
LayerCount: 2
Fore
SplineSet
365 710 m 1,0,-1
 464 710 l 1,1,-1
 578 0 l 1,2,-1
 460 0 l 1,3,-1
 432 193 l 1,4,-1
 177 193 l 1,5,-1
 68 0 l 1,6,-1
 -50 0 l 1,7,-1
 365 710 l 1,0,-1
428 276 m 1,8,-1
 388 581 l 1,9,-1
 214 276 l 1,10,-1
 428 276 l 1,8,-1
332 917 m 1,11,-1
 436 917 l 1,12,-1
 466 807 l 1,13,-1
 390 788 l 1,14,-1
 332 917 l 1,11,-1
EndSplineSet
EndChar

StartChar: Aacute
Encoding: 193 193 132
Width: 649
GlyphClass: 2
Flags: W
LayerCount: 2
Fore
SplineSet
365 710 m 1,0,-1
 464 710 l 1,1,-1
 578 0 l 1,2,-1
 460 0 l 1,3,-1
 432 193 l 1,4,-1
 177 193 l 1,5,-1
 68 0 l 1,6,-1
 -50 0 l 1,7,-1
 365 710 l 1,0,-1
428 276 m 1,8,-1
 388 581 l 1,9,-1
 214 276 l 1,10,-1
 428 276 l 1,8,-1
438 788 m 1,11,-1
 368 806 l 1,12,-1
 444 916 l 1,13,-1
 549 916 l 1,14,-1
 438 788 l 1,11,-1
EndSplineSet
EndChar

StartChar: Acircumflex
Encoding: 194 194 133
Width: 649
GlyphClass: 2
Flags: W
LayerCount: 2
Fore
SplineSet
365 710 m 1,0,-1
 464 710 l 1,1,-1
 578 0 l 1,2,-1
 460 0 l 1,3,-1
 432 193 l 1,4,-1
 177 193 l 1,5,-1
 68 0 l 1,6,-1
 -50 0 l 1,7,-1
 365 710 l 1,0,-1
428 276 m 1,8,-1
 388 581 l 1,9,-1
 214 276 l 1,10,-1
 428 276 l 1,8,-1
300 821 m 1,11,-1
 419 916 l 1,12,-1
 499 916 l 1,13,-1
 577 821 l 1,14,-1
 513 793 l 1,15,-1
 446 856 l 1,16,-1
 352 793 l 1,17,-1
 300 821 l 1,11,-1
EndSplineSet
EndChar

StartChar: Atilde
Encoding: 195 195 134
Width: 649
GlyphClass: 2
Flags: W
LayerCount: 2
Fore
SplineSet
365 710 m 1,0,-1
 464 710 l 1,1,-1
 578 0 l 1,2,-1
 460 0 l 1,3,-1
 432 193 l 1,4,-1
 177 193 l 1,5,-1
 68 0 l 1,6,-1
 -50 0 l 1,7,-1
 365 710 l 1,0,-1
428 276 m 1,8,-1
 388 581 l 1,9,-1
 214 276 l 1,10,-1
 428 276 l 1,8,-1
492 801 m 0,11,12
 471 801 471 801 456 807.5 c 128,-1,13
 441 814 441 814 429 822.5 c 128,-1,14
 417 831 417 831 405 837.5 c 128,-1,15
 393 844 393 844 377 844 c 256,16,17
 361 844 361 844 350.5 837 c 128,-1,18
 340 830 340 830 333.5 821.5 c 128,-1,19
 327 813 327 813 324.5 805 c 128,-1,20
 322 797 322 797 322 796 c 2,21,-1
 259 796 l 1,22,23
 261 804 261 804 270 823 c 128,-1,24
 279 842 279 842 295.5 861.5 c 128,-1,25
 312 881 312 881 335 896 c 128,-1,26
 358 911 358 911 388 911 c 0,27,28
 409 911 409 911 423 904 c 128,-1,29
 437 897 437 897 449 889 c 128,-1,30
 461 881 461 881 473 874 c 128,-1,31
 485 867 485 867 502 867 c 0,32,33
 520 867 520 867 531.5 874 c 128,-1,34
 543 881 543 881 550.5 890 c 128,-1,35
 558 899 558 899 561.5 906.5 c 128,-1,36
 565 914 565 914 565 916 c 2,37,-1
 627 916 l 1,38,39
 625 910 625 910 616 891 c 128,-1,40
 607 872 607 872 590 852 c 128,-1,41
 573 832 573 832 548.5 816.5 c 128,-1,42
 524 801 524 801 492 801 c 0,11,12
EndSplineSet
EndChar

StartChar: Adieresis
Encoding: 196 196 135
Width: 649
GlyphClass: 2
Flags: W
LayerCount: 2
Fore
SplineSet
365 710 m 1,0,-1
 464 710 l 1,1,-1
 578 0 l 1,2,-1
 460 0 l 1,3,-1
 432 193 l 1,4,-1
 177 193 l 1,5,-1
 68 0 l 1,6,-1
 -50 0 l 1,7,-1
 365 710 l 1,0,-1
428 276 m 1,8,-1
 388 581 l 1,9,-1
 214 276 l 1,10,-1
 428 276 l 1,8,-1
291 802 m 1,11,-1
 315 912 l 1,12,-1
 406 912 l 1,13,-1
 383 802 l 1,14,-1
 291 802 l 1,11,-1
463 802 m 1,15,-1
 486 912 l 1,16,-1
 577 912 l 1,17,-1
 554 802 l 1,18,-1
 463 802 l 1,15,-1
EndSplineSet
EndChar

StartChar: Aring
Encoding: 197 197 136
Width: 649
GlyphClass: 2
Flags: W
LayerCount: 2
Fore
SplineSet
365 710 m 1,0,-1
 464 710 l 1,1,-1
 578 0 l 1,2,-1
 460 0 l 1,3,-1
 432 193 l 1,4,-1
 177 193 l 1,5,-1
 68 0 l 1,6,-1
 -50 0 l 1,7,-1
 365 710 l 1,0,-1
428 276 m 1,8,-1
 388 581 l 1,9,-1
 214 276 l 1,10,-1
 428 276 l 1,8,-1
352 829 m 0,11,12
 352 869 352 869 382 892.5 c 128,-1,13
 412 916 412 916 456 916 c 0,14,15
 491 916 491 916 509.5 900.5 c 128,-1,16
 528 885 528 885 528 857 c 0,17,18
 528 818 528 818 499 794 c 128,-1,19
 470 770 470 770 425 770 c 0,20,21
 391 770 391 770 371.5 786 c 128,-1,22
 352 802 352 802 352 829 c 0,11,12
448 880 m 0,23,24
 430 880 430 880 416 868 c 128,-1,25
 402 856 402 856 402 837 c 0,26,27
 402 824 402 824 410.5 815 c 128,-1,28
 419 806 419 806 433 806 c 0,29,30
 450 806 450 806 465 818.5 c 128,-1,31
 480 831 480 831 480 850 c 0,32,33
 480 864 480 864 471 872 c 128,-1,34
 462 880 462 880 448 880 c 0,23,24
EndSplineSet
EndChar

StartChar: AE
Encoding: 198 198 137
Width: 926
GlyphClass: 2
Flags: W
LayerCount: 2
Fore
SplineSet
495 710 m 1,0,-1
 970 710 l 1,1,-1
 948 611 l 1,2,-1
 616 611 l 1,3,-1
 574 411 l 1,4,-1
 855 411 l 1,5,-1
 834 312 l 1,6,-1
 553 312 l 1,7,-1
 507 99 l 1,8,-1
 848 99 l 1,9,-1
 827 0 l 1,10,-1
 374 0 l 1,11,-1
 416 193 l 1,12,-1
 191 193 l 1,13,-1
 41 0 l 1,14,-1
 -80 0 l 1,15,-1
 495 710 l 1,0,-1
428 293 m 1,16,-1
 490 581 l 1,17,-1
 261 293 l 1,18,-1
 428 293 l 1,16,-1
EndSplineSet
EndChar

StartChar: Ccedilla
Encoding: 199 199 138
Width: 652
GlyphClass: 2
Flags: W
LayerCount: 2
Fore
SplineSet
182 -126 m 1,0,1
 192 -133 192 -133 214 -139.5 c 128,-1,2
 236 -146 236 -146 261 -146 c 0,3,4
 290 -146 290 -146 307 -136.5 c 128,-1,5
 324 -127 324 -127 324 -105 c 0,6,7
 324 -90 324 -90 312 -84 c 128,-1,8
 300 -78 300 -78 281 -78 c 0,9,10
 261 -78 261 -78 238 -82 c 128,-1,11
 215 -86 215 -86 202 -90 c 1,12,-1
 263 -4 l 1,13,14
 209 2 209 2 167 29 c 128,-1,15
 125 56 125 56 96.5 97 c 128,-1,16
 68 138 68 138 53 189.5 c 128,-1,17
 38 241 38 241 38 295 c 0,18,19
 38 368 38 368 69 442.5 c 128,-1,20
 100 517 100 517 155 577.5 c 128,-1,21
 210 638 210 638 285.5 676 c 128,-1,22
 361 714 361 714 450 714 c 0,23,24
 542 714 542 714 599 671 c 128,-1,25
 656 628 656 628 674 559 c 1,26,-1
 574 500 l 1,27,28
 567 532 567 532 552 554 c 128,-1,29
 537 576 537 576 516.5 589 c 128,-1,30
 496 602 496 602 472 607.5 c 128,-1,31
 448 613 448 613 424 613 c 0,32,33
 363 613 363 613 313 584 c 128,-1,34
 263 555 263 555 227.5 509.5 c 128,-1,35
 192 464 192 464 172.5 409 c 128,-1,36
 153 354 153 354 153 302 c 0,37,38
 153 260 153 260 164 222.5 c 128,-1,39
 175 185 175 185 196 156.5 c 128,-1,40
 217 128 217 128 247.5 111.5 c 128,-1,41
 278 95 278 95 317 95 c 0,42,43
 341 95 341 95 368.5 101.5 c 128,-1,44
 396 108 396 108 422.5 122.5 c 128,-1,45
 449 137 449 137 473.5 159 c 128,-1,46
 498 181 498 181 518 212 c 1,47,-1
 600 159 l 1,48,49
 577 122 577 122 544 92.5 c 128,-1,50
 511 63 511 63 473 42.5 c 128,-1,51
 435 22 435 22 393.5 10 c 128,-1,52
 352 -2 352 -2 313 -5 c 1,53,-1
 280 -45 l 1,54,55
 288 -43 288 -43 296.5 -42 c 128,-1,56
 305 -41 305 -41 312 -41 c 0,57,58
 341 -41 341 -41 359.5 -54 c 128,-1,59
 378 -67 378 -67 378 -94 c 0,60,61
 378 -135 378 -135 344.5 -162 c 128,-1,62
 311 -189 311 -189 244 -189 c 0,63,64
 214 -189 214 -189 190 -183 c 128,-1,65
 166 -177 166 -177 149 -169 c 1,66,-1
 182 -126 l 1,0,1
EndSplineSet
EndChar

StartChar: Egrave
Encoding: 200 200 139
Width: 579
GlyphClass: 2
Flags: W
LayerCount: 2
Fore
SplineSet
166 710 m 1,0,-1
 621 710 l 1,1,-1
 600 611 l 1,2,-1
 258 611 l 1,3,-1
 215 409 l 1,4,-1
 511 409 l 1,5,-1
 492 316 l 1,6,-1
 195 316 l 1,7,-1
 149 99 l 1,8,-1
 500 99 l 1,9,-1
 479 0 l 1,10,-1
 15 0 l 1,11,-1
 166 710 l 1,0,-1
338 917 m 1,12,-1
 442 917 l 1,13,-1
 472 807 l 1,14,-1
 396 788 l 1,15,-1
 338 917 l 1,12,-1
EndSplineSet
EndChar

StartChar: Eacute
Encoding: 201 201 140
Width: 579
GlyphClass: 2
Flags: W
LayerCount: 2
Fore
SplineSet
432 788 m 1,0,-1
 362 806 l 1,1,-1
 438 916 l 1,2,-1
 543 916 l 1,3,-1
 432 788 l 1,0,-1
166 710 m 1,4,-1
 621 710 l 1,5,-1
 600 611 l 1,6,-1
 258 611 l 1,7,-1
 215 409 l 1,8,-1
 511 409 l 1,9,-1
 492 316 l 1,10,-1
 195 316 l 1,11,-1
 149 99 l 1,12,-1
 500 99 l 1,13,-1
 479 0 l 1,14,-1
 15 0 l 1,15,-1
 166 710 l 1,4,-1
EndSplineSet
EndChar

StartChar: Ecircumflex
Encoding: 202 202 141
Width: 579
GlyphClass: 2
Flags: W
LayerCount: 2
Fore
SplineSet
285 821 m 1,0,-1
 404 916 l 1,1,-1
 484 916 l 1,2,-1
 562 821 l 1,3,-1
 498 793 l 1,4,-1
 431 856 l 1,5,-1
 337 793 l 1,6,-1
 285 821 l 1,0,-1
166 710 m 1,7,-1
 621 710 l 1,8,-1
 600 611 l 1,9,-1
 258 611 l 1,10,-1
 215 409 l 1,11,-1
 511 409 l 1,12,-1
 492 316 l 1,13,-1
 195 316 l 1,14,-1
 149 99 l 1,15,-1
 500 99 l 1,16,-1
 479 0 l 1,17,-1
 15 0 l 1,18,-1
 166 710 l 1,7,-1
EndSplineSet
EndChar

StartChar: Edieresis
Encoding: 203 203 142
Width: 579
GlyphClass: 2
Flags: W
LayerCount: 2
Fore
SplineSet
282 802 m 1,0,-1
 306 912 l 1,1,-1
 397 912 l 1,2,-1
 374 802 l 1,3,-1
 282 802 l 1,0,-1
454 802 m 1,4,-1
 477 912 l 1,5,-1
 568 912 l 1,6,-1
 545 802 l 1,7,-1
 454 802 l 1,4,-1
166 710 m 1,8,-1
 621 710 l 1,9,-1
 600 611 l 1,10,-1
 258 611 l 1,11,-1
 215 409 l 1,12,-1
 511 409 l 1,13,-1
 492 316 l 1,14,-1
 195 316 l 1,15,-1
 149 99 l 1,16,-1
 500 99 l 1,17,-1
 479 0 l 1,18,-1
 15 0 l 1,19,-1
 166 710 l 1,8,-1
EndSplineSet
EndChar

StartChar: Igrave
Encoding: 204 204 143
Width: 271
GlyphClass: 2
Flags: W
LayerCount: 2
Fore
SplineSet
166 709 m 1,0,-1
 279 709 l 1,1,-1
 128 0 l 1,2,-1
 15 0 l 1,3,-1
 166 709 l 1,0,-1
162 917 m 1,4,-1
 266 917 l 1,5,-1
 296 807 l 1,6,-1
 220 788 l 1,7,-1
 162 917 l 1,4,-1
EndSplineSet
EndChar

StartChar: Iacute
Encoding: 205 205 144
Width: 271
GlyphClass: 2
Flags: W
LayerCount: 2
Fore
SplineSet
166 709 m 1,0,-1
 279 709 l 1,1,-1
 128 0 l 1,2,-1
 15 0 l 1,3,-1
 166 709 l 1,0,-1
242 788 m 1,4,-1
 172 806 l 1,5,-1
 248 916 l 1,6,-1
 353 916 l 1,7,-1
 242 788 l 1,4,-1
EndSplineSet
EndChar

StartChar: Icircumflex
Encoding: 206 206 145
Width: 271
GlyphClass: 2
Flags: W
LayerCount: 2
Fore
SplineSet
166 709 m 1,0,-1
 279 709 l 1,1,-1
 128 0 l 1,2,-1
 15 0 l 1,3,-1
 166 709 l 1,0,-1
106 821 m 1,4,-1
 225 916 l 1,5,-1
 305 916 l 1,6,-1
 383 821 l 1,7,-1
 319 793 l 1,8,-1
 252 856 l 1,9,-1
 158 793 l 1,10,-1
 106 821 l 1,4,-1
EndSplineSet
EndChar

StartChar: Idieresis
Encoding: 207 207 146
Width: 271
GlyphClass: 2
Flags: W
LayerCount: 2
Fore
SplineSet
166 709 m 1,0,-1
 279 709 l 1,1,-1
 128 0 l 1,2,-1
 15 0 l 1,3,-1
 166 709 l 1,0,-1
110 802 m 1,4,-1
 134 912 l 1,5,-1
 225 912 l 1,6,-1
 202 802 l 1,7,-1
 110 802 l 1,4,-1
282 802 m 1,8,-1
 305 912 l 1,9,-1
 396 912 l 1,10,-1
 373 802 l 1,11,-1
 282 802 l 1,8,-1
EndSplineSet
EndChar

StartChar: Eth
Encoding: 208 208 147
Width: 698
GlyphClass: 2
Flags: W
LayerCount: 2
Fore
SplineSet
57 399 m 1,0,-1
 106 399 l 1,1,-1
 172 710 l 1,2,-1
 413 710 l 2,3,4
 481 710 481 710 531 689 c 128,-1,5
 581 668 581 668 613.5 631 c 128,-1,6
 646 594 646 594 662 544 c 128,-1,7
 678 494 678 494 678 436 c 0,8,9
 678 342 678 342 646.5 262 c 128,-1,10
 615 182 615 182 559.5 124 c 128,-1,11
 504 66 504 66 427.5 33 c 128,-1,12
 351 0 351 0 262 0 c 2,13,-1
 21 0 l 1,14,-1
 88 315 l 1,15,-1
 39 315 l 1,16,-1
 57 399 l 1,0,-1
283 99 m 2,17,18
 347 99 347 99 398.5 125 c 128,-1,19
 450 151 450 151 486.5 195.5 c 128,-1,20
 523 240 523 240 542.5 298 c 128,-1,21
 562 356 562 356 562 419 c 0,22,23
 562 461 562 461 551 496 c 128,-1,24
 540 531 540 531 519 556.5 c 128,-1,25
 498 582 498 582 466 596.5 c 128,-1,26
 434 611 434 611 392 611 c 2,27,-1
 264 611 l 1,28,-1
 219 399 l 1,29,-1
 359 399 l 1,30,-1
 342 315 l 1,31,-1
 201 315 l 1,32,-1
 155 99 l 1,33,-1
 283 99 l 2,17,18
EndSplineSet
EndChar

StartChar: Ntilde
Encoding: 209 209 148
Width: 736
GlyphClass: 2
Flags: W
LayerCount: 2
Fore
SplineSet
166 710 m 1,0,-1
 254 710 l 1,1,-1
 523 198 l 1,2,-1
 631 709 l 1,3,-1
 744 709 l 1,4,-1
 593 0 l 1,5,-1
 501 0 l 1,6,-1
 234 500 l 1,7,-1
 128 0 l 1,8,-1
 15 0 l 1,9,-1
 166 710 l 1,0,-1
535 801 m 0,10,11
 514 801 514 801 499 807.5 c 128,-1,12
 484 814 484 814 472 822.5 c 128,-1,13
 460 831 460 831 448 837.5 c 128,-1,14
 436 844 436 844 420 844 c 256,15,16
 404 844 404 844 393.5 837 c 128,-1,17
 383 830 383 830 376.5 821.5 c 128,-1,18
 370 813 370 813 367.5 805 c 128,-1,19
 365 797 365 797 365 796 c 2,20,-1
 302 796 l 1,21,22
 304 804 304 804 313 823 c 128,-1,23
 322 842 322 842 338.5 861.5 c 128,-1,24
 355 881 355 881 378 896 c 128,-1,25
 401 911 401 911 431 911 c 0,26,27
 452 911 452 911 466 904 c 128,-1,28
 480 897 480 897 492 889 c 128,-1,29
 504 881 504 881 516 874 c 128,-1,30
 528 867 528 867 545 867 c 0,31,32
 563 867 563 867 574.5 874 c 128,-1,33
 586 881 586 881 593.5 890 c 128,-1,34
 601 899 601 899 604.5 906.5 c 128,-1,35
 608 914 608 914 608 916 c 2,36,-1
 670 916 l 1,37,38
 668 910 668 910 659 891 c 128,-1,39
 650 872 650 872 633 852 c 128,-1,40
 616 832 616 832 591.5 816.5 c 128,-1,41
 567 801 567 801 535 801 c 0,10,11
EndSplineSet
EndChar

StartChar: Ograve
Encoding: 210 210 149
Width: 725
GlyphClass: 2
Flags: W
LayerCount: 2
Fore
SplineSet
297 -5 m 0,0,1
 235 -5 235 -5 187.5 19.5 c 128,-1,2
 140 44 140 44 107.5 84.5 c 128,-1,3
 75 125 75 125 58 178 c 128,-1,4
 41 231 41 231 41 289 c 0,5,6
 41 370 41 370 75.5 446.5 c 128,-1,7
 110 523 110 523 167 583 c 128,-1,8
 224 643 224 643 298 679 c 128,-1,9
 372 715 372 715 452 715 c 0,10,11
 514 715 514 715 561.5 690 c 128,-1,12
 609 665 609 665 641 624 c 128,-1,13
 673 583 673 583 689.5 529.5 c 128,-1,14
 706 476 706 476 706 419 c 0,15,16
 706 339 706 339 672 262.5 c 128,-1,17
 638 186 638 186 581.5 126.5 c 128,-1,18
 525 67 525 67 451 31 c 128,-1,19
 377 -5 377 -5 297 -5 c 0,0,1
319 96 m 0,20,21
 377 96 377 96 427 124.5 c 128,-1,22
 477 153 477 153 513.5 198.5 c 128,-1,23
 550 244 550 244 570.5 300 c 128,-1,24
 591 356 591 356 591 411 c 0,25,26
 591 451 591 451 580.5 488 c 128,-1,27
 570 525 570 525 549.5 552.5 c 128,-1,28
 529 580 529 580 499 596.5 c 128,-1,29
 469 613 469 613 429 613 c 0,30,31
 370 613 370 613 320.5 584.5 c 128,-1,32
 271 556 271 556 234 511 c 128,-1,33
 197 466 197 466 176.5 409.5 c 128,-1,34
 156 353 156 353 156 298 c 0,35,36
 156 257 156 257 166.5 220.5 c 128,-1,37
 177 184 177 184 197 156.5 c 128,-1,38
 217 129 217 129 247.5 112.5 c 128,-1,39
 278 96 278 96 319 96 c 0,20,21
408 917 m 1,40,-1
 512 917 l 1,41,-1
 542 807 l 1,42,-1
 466 788 l 1,43,-1
 408 917 l 1,40,-1
EndSplineSet
EndChar

StartChar: Oacute
Encoding: 211 211 150
Width: 725
GlyphClass: 2
Flags: W
LayerCount: 2
Fore
SplineSet
484 788 m 1,0,-1
 414 806 l 1,1,-1
 490 916 l 1,2,-1
 595 916 l 1,3,-1
 484 788 l 1,0,-1
297 -5 m 0,4,5
 235 -5 235 -5 187.5 19.5 c 128,-1,6
 140 44 140 44 107.5 84.5 c 128,-1,7
 75 125 75 125 58 178 c 128,-1,8
 41 231 41 231 41 289 c 0,9,10
 41 370 41 370 75.5 446.5 c 128,-1,11
 110 523 110 523 167 583 c 128,-1,12
 224 643 224 643 298 679 c 128,-1,13
 372 715 372 715 452 715 c 0,14,15
 514 715 514 715 561.5 690 c 128,-1,16
 609 665 609 665 641 624 c 128,-1,17
 673 583 673 583 689.5 529.5 c 128,-1,18
 706 476 706 476 706 419 c 0,19,20
 706 339 706 339 672 262.5 c 128,-1,21
 638 186 638 186 581.5 126.5 c 128,-1,22
 525 67 525 67 451 31 c 128,-1,23
 377 -5 377 -5 297 -5 c 0,4,5
319 96 m 0,24,25
 377 96 377 96 427 124.5 c 128,-1,26
 477 153 477 153 513.5 198.5 c 128,-1,27
 550 244 550 244 570.5 300 c 128,-1,28
 591 356 591 356 591 411 c 0,29,30
 591 451 591 451 580.5 488 c 128,-1,31
 570 525 570 525 549.5 552.5 c 128,-1,32
 529 580 529 580 499 596.5 c 128,-1,33
 469 613 469 613 429 613 c 0,34,35
 370 613 370 613 320.5 584.5 c 128,-1,36
 271 556 271 556 234 511 c 128,-1,37
 197 466 197 466 176.5 409.5 c 128,-1,38
 156 353 156 353 156 298 c 0,39,40
 156 257 156 257 166.5 220.5 c 128,-1,41
 177 184 177 184 197 156.5 c 128,-1,42
 217 129 217 129 247.5 112.5 c 128,-1,43
 278 96 278 96 319 96 c 0,24,25
EndSplineSet
EndChar

StartChar: Ocircumflex
Encoding: 212 212 151
Width: 725
GlyphClass: 2
Flags: W
LayerCount: 2
Fore
SplineSet
341 821 m 1,0,-1
 460 916 l 1,1,-1
 540 916 l 1,2,-1
 618 821 l 1,3,-1
 554 793 l 1,4,-1
 487 856 l 1,5,-1
 393 793 l 1,6,-1
 341 821 l 1,0,-1
297 -5 m 0,7,8
 235 -5 235 -5 187.5 19.5 c 128,-1,9
 140 44 140 44 107.5 84.5 c 128,-1,10
 75 125 75 125 58 178 c 128,-1,11
 41 231 41 231 41 289 c 0,12,13
 41 370 41 370 75.5 446.5 c 128,-1,14
 110 523 110 523 167 583 c 128,-1,15
 224 643 224 643 298 679 c 128,-1,16
 372 715 372 715 452 715 c 0,17,18
 514 715 514 715 561.5 690 c 128,-1,19
 609 665 609 665 641 624 c 128,-1,20
 673 583 673 583 689.5 529.5 c 128,-1,21
 706 476 706 476 706 419 c 0,22,23
 706 339 706 339 672 262.5 c 128,-1,24
 638 186 638 186 581.5 126.5 c 128,-1,25
 525 67 525 67 451 31 c 128,-1,26
 377 -5 377 -5 297 -5 c 0,7,8
319 96 m 0,27,28
 377 96 377 96 427 124.5 c 128,-1,29
 477 153 477 153 513.5 198.5 c 128,-1,30
 550 244 550 244 570.5 300 c 128,-1,31
 591 356 591 356 591 411 c 0,32,33
 591 451 591 451 580.5 488 c 128,-1,34
 570 525 570 525 549.5 552.5 c 128,-1,35
 529 580 529 580 499 596.5 c 128,-1,36
 469 613 469 613 429 613 c 0,37,38
 370 613 370 613 320.5 584.5 c 128,-1,39
 271 556 271 556 234 511 c 128,-1,40
 197 466 197 466 176.5 409.5 c 128,-1,41
 156 353 156 353 156 298 c 0,42,43
 156 257 156 257 166.5 220.5 c 128,-1,44
 177 184 177 184 197 156.5 c 128,-1,45
 217 129 217 129 247.5 112.5 c 128,-1,46
 278 96 278 96 319 96 c 0,27,28
EndSplineSet
EndChar

StartChar: Otilde
Encoding: 213 213 152
Width: 725
GlyphClass: 2
Flags: W
LayerCount: 2
Fore
SplineSet
297 -5 m 0,0,1
 235 -5 235 -5 187.5 19.5 c 128,-1,2
 140 44 140 44 107.5 84.5 c 128,-1,3
 75 125 75 125 58 178 c 128,-1,4
 41 231 41 231 41 289 c 0,5,6
 41 370 41 370 75.5 446.5 c 128,-1,7
 110 523 110 523 167 583 c 128,-1,8
 224 643 224 643 298 679 c 128,-1,9
 372 715 372 715 452 715 c 0,10,11
 514 715 514 715 561.5 690 c 128,-1,12
 609 665 609 665 641 624 c 128,-1,13
 673 583 673 583 689.5 529.5 c 128,-1,14
 706 476 706 476 706 419 c 0,15,16
 706 339 706 339 672 262.5 c 128,-1,17
 638 186 638 186 581.5 126.5 c 128,-1,18
 525 67 525 67 451 31 c 128,-1,19
 377 -5 377 -5 297 -5 c 0,0,1
319 96 m 0,20,21
 377 96 377 96 427 124.5 c 128,-1,22
 477 153 477 153 513.5 198.5 c 128,-1,23
 550 244 550 244 570.5 300 c 128,-1,24
 591 356 591 356 591 411 c 0,25,26
 591 451 591 451 580.5 488 c 128,-1,27
 570 525 570 525 549.5 552.5 c 128,-1,28
 529 580 529 580 499 596.5 c 128,-1,29
 469 613 469 613 429 613 c 0,30,31
 370 613 370 613 320.5 584.5 c 128,-1,32
 271 556 271 556 234 511 c 128,-1,33
 197 466 197 466 176.5 409.5 c 128,-1,34
 156 353 156 353 156 298 c 0,35,36
 156 257 156 257 166.5 220.5 c 128,-1,37
 177 184 177 184 197 156.5 c 128,-1,38
 217 129 217 129 247.5 112.5 c 128,-1,39
 278 96 278 96 319 96 c 0,20,21
533 801 m 0,40,41
 512 801 512 801 497 807.5 c 128,-1,42
 482 814 482 814 470 822.5 c 128,-1,43
 458 831 458 831 446 837.5 c 128,-1,44
 434 844 434 844 418 844 c 256,45,46
 402 844 402 844 391.5 837 c 128,-1,47
 381 830 381 830 374.5 821.5 c 128,-1,48
 368 813 368 813 365.5 805 c 128,-1,49
 363 797 363 797 363 796 c 2,50,-1
 300 796 l 1,51,52
 302 804 302 804 311 823 c 128,-1,53
 320 842 320 842 336.5 861.5 c 128,-1,54
 353 881 353 881 376 896 c 128,-1,55
 399 911 399 911 429 911 c 0,56,57
 450 911 450 911 464 904 c 128,-1,58
 478 897 478 897 490 889 c 128,-1,59
 502 881 502 881 514 874 c 128,-1,60
 526 867 526 867 543 867 c 0,61,62
 561 867 561 867 572.5 874 c 128,-1,63
 584 881 584 881 591.5 890 c 128,-1,64
 599 899 599 899 602.5 906.5 c 128,-1,65
 606 914 606 914 606 916 c 2,66,-1
 668 916 l 1,67,68
 666 910 666 910 657 891 c 128,-1,69
 648 872 648 872 631 852 c 128,-1,70
 614 832 614 832 589.5 816.5 c 128,-1,71
 565 801 565 801 533 801 c 0,40,41
EndSplineSet
EndChar

StartChar: Odieresis
Encoding: 214 214 153
Width: 725
GlyphClass: 2
Flags: W
LayerCount: 2
Fore
SplineSet
339 802 m 1,0,-1
 363 912 l 1,1,-1
 454 912 l 1,2,-1
 431 802 l 1,3,-1
 339 802 l 1,0,-1
511 802 m 1,4,-1
 534 912 l 1,5,-1
 625 912 l 1,6,-1
 602 802 l 1,7,-1
 511 802 l 1,4,-1
297 -5 m 0,8,9
 235 -5 235 -5 187.5 19.5 c 128,-1,10
 140 44 140 44 107.5 84.5 c 128,-1,11
 75 125 75 125 58 178 c 128,-1,12
 41 231 41 231 41 289 c 0,13,14
 41 370 41 370 75.5 446.5 c 128,-1,15
 110 523 110 523 167 583 c 128,-1,16
 224 643 224 643 298 679 c 128,-1,17
 372 715 372 715 452 715 c 0,18,19
 514 715 514 715 561.5 690 c 128,-1,20
 609 665 609 665 641 624 c 128,-1,21
 673 583 673 583 689.5 529.5 c 128,-1,22
 706 476 706 476 706 419 c 0,23,24
 706 339 706 339 672 262.5 c 128,-1,25
 638 186 638 186 581.5 126.5 c 128,-1,26
 525 67 525 67 451 31 c 128,-1,27
 377 -5 377 -5 297 -5 c 0,8,9
319 96 m 0,28,29
 377 96 377 96 427 124.5 c 128,-1,30
 477 153 477 153 513.5 198.5 c 128,-1,31
 550 244 550 244 570.5 300 c 128,-1,32
 591 356 591 356 591 411 c 0,33,34
 591 451 591 451 580.5 488 c 128,-1,35
 570 525 570 525 549.5 552.5 c 128,-1,36
 529 580 529 580 499 596.5 c 128,-1,37
 469 613 469 613 429 613 c 0,38,39
 370 613 370 613 320.5 584.5 c 128,-1,40
 271 556 271 556 234 511 c 128,-1,41
 197 466 197 466 176.5 409.5 c 128,-1,42
 156 353 156 353 156 298 c 0,43,44
 156 257 156 257 166.5 220.5 c 128,-1,45
 177 184 177 184 197 156.5 c 128,-1,46
 217 129 217 129 247.5 112.5 c 128,-1,47
 278 96 278 96 319 96 c 0,28,29
EndSplineSet
EndChar

StartChar: multiply
Encoding: 215 215 154
Width: 479
GlyphClass: 2
Flags: W
LayerCount: 2
Fore
SplineSet
411 164 m 1,0,-1
 341 96 l 1,1,-1
 231 205 l 1,2,-1
 122 96 l 1,3,-1
 53 165 l 1,4,-1
 162 274 l 1,5,-1
 56 381 l 1,6,-1
 126 449 l 1,7,-1
 232 343 l 1,8,-1
 338 450 l 1,9,-1
 407 381 l 1,10,-1
 301 274 l 1,11,-1
 411 164 l 1,0,-1
EndSplineSet
EndChar

StartChar: Oslash
Encoding: 216 216 155
Width: 725
GlyphClass: 2
Flags: W
LayerCount: 2
Fore
SplineSet
745 710 m 1,0,-1
 654 605 l 1,1,2
 680 565 680 565 693 517.5 c 128,-1,3
 706 470 706 470 706 419 c 0,4,5
 706 339 706 339 672 262.5 c 128,-1,6
 638 186 638 186 581.5 126.5 c 128,-1,7
 525 67 525 67 451 31 c 128,-1,8
 377 -5 377 -5 297 -5 c 0,9,10
 256 -5 256 -5 222 5.5 c 128,-1,11
 188 16 188 16 160 35 c 1,12,-1
 130 0 l 1,13,-1
 8 0 l 1,14,-1
 95 100 l 1,15,16
 68 139 68 139 54.5 187.5 c 128,-1,17
 41 236 41 236 41 289 c 0,18,19
 41 370 41 370 75.5 446.5 c 128,-1,20
 110 523 110 523 167 583 c 128,-1,21
 224 643 224 643 298 679 c 128,-1,22
 372 715 372 715 452 715 c 0,23,24
 493 715 493 715 527.5 703.5 c 128,-1,25
 562 692 562 692 590 672 c 1,26,-1
 623 710 l 1,27,-1
 745 710 l 1,0,-1
156 298 m 0,28,29
 156 269 156 269 160.5 242.5 c 128,-1,30
 165 216 165 216 175 193 c 1,31,-1
 516 586 l 1,32,33
 478 613 478 613 429 613 c 0,34,35
 370 613 370 613 320.5 584.5 c 128,-1,36
 271 556 271 556 234 511 c 128,-1,37
 197 466 197 466 176.5 409.5 c 128,-1,38
 156 353 156 353 156 298 c 0,28,29
319 96 m 0,39,40
 377 96 377 96 427 124.5 c 128,-1,41
 477 153 477 153 513.5 198.5 c 128,-1,42
 550 244 550 244 570.5 300 c 128,-1,43
 591 356 591 356 591 411 c 0,44,45
 591 438 591 438 586 463 c 128,-1,46
 581 488 581 488 572 511 c 1,47,-1
 234 120 l 1,48,49
 251 109 251 109 272 102.5 c 128,-1,50
 293 96 293 96 319 96 c 0,39,40
EndSplineSet
EndChar

StartChar: Ugrave
Encoding: 217 217 156
Width: 721
GlyphClass: 2
Flags: W
LayerCount: 2
Fore
SplineSet
296 -5 m 0,0,1
 233 -5 233 -5 189 13.5 c 128,-1,2
 145 32 145 32 118 64 c 128,-1,3
 91 96 91 96 78.5 139.5 c 128,-1,4
 66 183 66 183 66 233 c 0,5,6
 66 288 66 288 80 350 c 2,7,-1
 156 710 l 1,8,-1
 269 710 l 1,9,-1
 192 350 l 2,10,11
 181 297 181 297 181 253 c 0,12,13
 181 220 181 220 188 191 c 128,-1,14
 195 162 195 162 211 141 c 128,-1,15
 227 120 227 120 253 108 c 128,-1,16
 279 96 279 96 317 96 c 0,17,18
 369 96 369 96 408 118 c 128,-1,19
 447 140 447 140 475.5 175.5 c 128,-1,20
 504 211 504 211 522.5 256.5 c 128,-1,21
 541 302 541 302 551 350 c 2,22,-1
 627 710 l 1,23,-1
 740 710 l 1,24,-1
 663 350 l 2,25,26
 648 277 648 277 618 212.5 c 128,-1,27
 588 148 588 148 542.5 99.5 c 128,-1,28
 497 51 497 51 435.5 23 c 128,-1,29
 374 -5 374 -5 296 -5 c 0,0,1
390 917 m 1,30,-1
 494 917 l 1,31,-1
 524 807 l 1,32,-1
 448 788 l 1,33,-1
 390 917 l 1,30,-1
EndSplineSet
EndChar

StartChar: Uacute
Encoding: 218 218 157
Width: 721
GlyphClass: 2
Flags: W
LayerCount: 2
Fore
SplineSet
472 788 m 1,0,-1
 402 806 l 1,1,-1
 478 916 l 1,2,-1
 583 916 l 1,3,-1
 472 788 l 1,0,-1
296 -5 m 0,4,5
 233 -5 233 -5 189 13.5 c 128,-1,6
 145 32 145 32 118 64 c 128,-1,7
 91 96 91 96 78.5 139.5 c 128,-1,8
 66 183 66 183 66 233 c 0,9,10
 66 288 66 288 80 350 c 2,11,-1
 156 710 l 1,12,-1
 269 710 l 1,13,-1
 192 350 l 2,14,15
 181 297 181 297 181 253 c 0,16,17
 181 220 181 220 188 191 c 128,-1,18
 195 162 195 162 211 141 c 128,-1,19
 227 120 227 120 253 108 c 128,-1,20
 279 96 279 96 317 96 c 0,21,22
 369 96 369 96 408 118 c 128,-1,23
 447 140 447 140 475.5 175.5 c 128,-1,24
 504 211 504 211 522.5 256.5 c 128,-1,25
 541 302 541 302 551 350 c 2,26,-1
 627 710 l 1,27,-1
 740 710 l 1,28,-1
 663 350 l 2,29,30
 648 277 648 277 618 212.5 c 128,-1,31
 588 148 588 148 542.5 99.5 c 128,-1,32
 497 51 497 51 435.5 23 c 128,-1,33
 374 -5 374 -5 296 -5 c 0,4,5
EndSplineSet
EndChar

StartChar: Ucircumflex
Encoding: 219 219 158
Width: 721
GlyphClass: 2
Flags: W
LayerCount: 2
Fore
SplineSet
327 821 m 1,0,-1
 446 916 l 1,1,-1
 526 916 l 1,2,-1
 604 821 l 1,3,-1
 540 793 l 1,4,-1
 473 856 l 1,5,-1
 379 793 l 1,6,-1
 327 821 l 1,0,-1
296 -5 m 0,7,8
 233 -5 233 -5 189 13.5 c 128,-1,9
 145 32 145 32 118 64 c 128,-1,10
 91 96 91 96 78.5 139.5 c 128,-1,11
 66 183 66 183 66 233 c 0,12,13
 66 288 66 288 80 350 c 2,14,-1
 156 710 l 1,15,-1
 269 710 l 1,16,-1
 192 350 l 2,17,18
 181 297 181 297 181 253 c 0,19,20
 181 220 181 220 188 191 c 128,-1,21
 195 162 195 162 211 141 c 128,-1,22
 227 120 227 120 253 108 c 128,-1,23
 279 96 279 96 317 96 c 0,24,25
 369 96 369 96 408 118 c 128,-1,26
 447 140 447 140 475.5 175.5 c 128,-1,27
 504 211 504 211 522.5 256.5 c 128,-1,28
 541 302 541 302 551 350 c 2,29,-1
 627 710 l 1,30,-1
 740 710 l 1,31,-1
 663 350 l 2,32,33
 648 277 648 277 618 212.5 c 128,-1,34
 588 148 588 148 542.5 99.5 c 128,-1,35
 497 51 497 51 435.5 23 c 128,-1,36
 374 -5 374 -5 296 -5 c 0,7,8
EndSplineSet
EndChar

StartChar: Udieresis
Encoding: 220 220 159
Width: 721
GlyphClass: 2
Flags: W
LayerCount: 2
Fore
SplineSet
329 802 m 1,0,-1
 353 912 l 1,1,-1
 444 912 l 1,2,-1
 421 802 l 1,3,-1
 329 802 l 1,0,-1
501 802 m 1,4,-1
 524 912 l 1,5,-1
 615 912 l 1,6,-1
 592 802 l 1,7,-1
 501 802 l 1,4,-1
296 -5 m 0,8,9
 233 -5 233 -5 189 13.5 c 128,-1,10
 145 32 145 32 118 64 c 128,-1,11
 91 96 91 96 78.5 139.5 c 128,-1,12
 66 183 66 183 66 233 c 0,13,14
 66 288 66 288 80 350 c 2,15,-1
 156 710 l 1,16,-1
 269 710 l 1,17,-1
 192 350 l 2,18,19
 181 297 181 297 181 253 c 0,20,21
 181 220 181 220 188 191 c 128,-1,22
 195 162 195 162 211 141 c 128,-1,23
 227 120 227 120 253 108 c 128,-1,24
 279 96 279 96 317 96 c 0,25,26
 369 96 369 96 408 118 c 128,-1,27
 447 140 447 140 475.5 175.5 c 128,-1,28
 504 211 504 211 522.5 256.5 c 128,-1,29
 541 302 541 302 551 350 c 2,30,-1
 627 710 l 1,31,-1
 740 710 l 1,32,-1
 663 350 l 2,33,34
 648 277 648 277 618 212.5 c 128,-1,35
 588 148 588 148 542.5 99.5 c 128,-1,36
 497 51 497 51 435.5 23 c 128,-1,37
 374 -5 374 -5 296 -5 c 0,8,9
EndSplineSet
EndChar

StartChar: Yacute
Encoding: 221 221 160
Width: 615
GlyphClass: 2
Flags: W
LayerCount: 2
Fore
SplineSet
237 256 m 1,0,-1
 85 710 l 1,1,-1
 208 710 l 1,2,-1
 314 354 l 1,3,-1
 574 710 l 1,4,-1
 696 710 l 1,5,-1
 349 254 l 1,6,-1
 295 0 l 1,7,-1
 182 0 l 1,8,-1
 237 256 l 1,0,-1
413 788 m 1,9,-1
 343 806 l 1,10,-1
 419 916 l 1,11,-1
 524 916 l 1,12,-1
 413 788 l 1,9,-1
EndSplineSet
EndChar

StartChar: Thorn
Encoding: 222 222 161
Width: 582
GlyphClass: 2
Flags: W
LayerCount: 2
Fore
SplineSet
166 710 m 1,0,-1
 279 710 l 1,1,-1
 251 577 l 1,2,-1
 405 577 l 2,3,4
 444 577 444 577 475 561 c 128,-1,5
 506 545 506 545 527.5 518 c 128,-1,6
 549 491 549 491 560.5 456.5 c 128,-1,7
 572 422 572 422 572 386 c 0,8,9
 572 336 572 336 551 287.5 c 128,-1,10
 530 239 530 239 494.5 200.5 c 128,-1,11
 459 162 459 162 412 138 c 128,-1,12
 365 114 365 114 312 114 c 2,13,-1
 152 114 l 1,14,-1
 128 0 l 1,15,-1
 15 0 l 1,16,-1
 166 710 l 1,0,-1
328 214 m 2,17,18
 354 214 354 214 377.5 228 c 128,-1,19
 401 242 401 242 418.5 264.5 c 128,-1,20
 436 287 436 287 446.5 315.5 c 128,-1,21
 457 344 457 344 457 374 c 0,22,23
 457 419 457 419 435 448.5 c 128,-1,24
 413 478 413 478 378 478 c 2,25,-1
 229 478 l 1,26,-1
 173 214 l 1,27,-1
 328 214 l 2,17,18
EndSplineSet
EndChar

StartChar: germandbls
Encoding: 223 223 162
Width: 535
GlyphClass: 2
Flags: W
LayerCount: 2
Fore
SplineSet
192 95 m 1,0,1
 230 96 230 96 263 105 c 128,-1,2
 296 114 296 114 320.5 133 c 128,-1,3
 345 152 345 152 359 180 c 128,-1,4
 373 208 373 208 373 246 c 0,5,6
 373 293 373 293 346 319 c 128,-1,7
 319 345 319 345 275 345 c 2,8,-1
 255 345 l 1,9,-1
 276 445 l 1,10,-1
 295 445 l 2,11,12
 318 445 318 445 337.5 453.5 c 128,-1,13
 357 462 357 462 371 476.5 c 128,-1,14
 385 491 385 491 393 510.5 c 128,-1,15
 401 530 401 530 401 553 c 0,16,17
 401 587 401 587 380 603.5 c 128,-1,18
 359 620 359 620 330 620 c 0,19,20
 306 620 306 620 286 610.5 c 128,-1,21
 266 601 266 601 251.5 584.5 c 128,-1,22
 237 568 237 568 227 546.5 c 128,-1,23
 217 525 217 525 212 501 c 2,24,-1
 105 0 l 1,25,-1
 0 0 l 1,26,-1
 111 520 l 2,27,28
 120 562 120 562 143 598 c 128,-1,29
 166 634 166 634 199 659.5 c 128,-1,30
 232 685 232 685 272.5 699.5 c 128,-1,31
 313 714 313 714 358 714 c 0,32,33
 427 714 427 714 469 678 c 128,-1,34
 511 642 511 642 511 580 c 0,35,36
 511 550 511 550 500 521 c 128,-1,37
 489 492 489 492 471.5 468 c 128,-1,38
 454 444 454 444 431.5 426.5 c 128,-1,39
 409 409 409 409 387 402 c 1,40,41
 437 389 437 389 462 347.5 c 128,-1,42
 487 306 487 306 487 251 c 0,43,44
 487 186 487 186 461 138.5 c 128,-1,45
 435 91 435 91 391.5 59.5 c 128,-1,46
 348 28 348 28 290.5 12 c 128,-1,47
 233 -4 233 -4 170 -6 c 1,48,-1
 192 95 l 1,0,1
EndSplineSet
EndChar

StartChar: agrave
Encoding: 224 224 163
Width: 615
GlyphClass: 2
Flags: W
LayerCount: 2
Fore
SplineSet
205 -10 m 0,0,1
 161 -10 161 -10 126.5 7 c 128,-1,2
 92 24 92 24 68 53 c 128,-1,3
 44 82 44 82 31.5 121.5 c 128,-1,4
 19 161 19 161 19 206 c 0,5,6
 19 270 19 270 42.5 329 c 128,-1,7
 66 388 66 388 106 433 c 128,-1,8
 146 478 146 478 198 505 c 128,-1,9
 250 532 250 532 307 532 c 256,10,11
 364 532 364 532 402.5 501.5 c 128,-1,12
 441 471 441 471 457 424 c 1,13,-1
 478 522 l 1,14,-1
 589 522 l 1,15,-1
 505 130 l 2,16,17
 504 125 504 125 503.5 121.5 c 128,-1,18
 503 118 503 118 503 115 c 0,19,20
 503 95 503 95 526 94 c 1,21,-1
 506 0 l 1,22,23
 492 -2 492 -2 480.5 -3.5 c 128,-1,24
 469 -5 469 -5 461 -5 c 0,25,26
 396 -5 396 -5 396 47 c 0,27,28
 396 63 396 63 403 95 c 1,29,30
 365 44 365 44 311 17 c 128,-1,31
 257 -10 257 -10 205 -10 c 0,0,1
253 84 m 0,32,33
 273 84 273 84 295.5 92 c 128,-1,34
 318 100 318 100 339.5 114 c 128,-1,35
 361 128 361 128 379 147 c 128,-1,36
 397 166 397 166 408 188 c 1,37,-1
 436 325 l 1,38,39
 433 349 433 349 422.5 369.5 c 128,-1,40
 412 390 412 390 396 405.5 c 128,-1,41
 380 421 380 421 361 429.5 c 128,-1,42
 342 438 342 438 321 438 c 0,43,44
 283 438 283 438 249.5 419 c 128,-1,45
 216 400 216 400 190.5 370 c 128,-1,46
 165 340 165 340 150 301.5 c 128,-1,47
 135 263 135 263 135 224 c 0,48,49
 135 194 135 194 143 168.5 c 128,-1,50
 151 143 151 143 166.5 124.5 c 128,-1,51
 182 106 182 106 204 95 c 128,-1,52
 226 84 226 84 253 84 c 0,32,33
250 730 m 1,53,-1
 354 730 l 1,54,-1
 384 620 l 1,55,-1
 308 601 l 1,56,-1
 250 730 l 1,53,-1
EndSplineSet
EndChar

StartChar: aacute
Encoding: 225 225 164
Width: 615
GlyphClass: 2
Flags: W
LayerCount: 2
Fore
SplineSet
205 -10 m 0,0,1
 161 -10 161 -10 126.5 7 c 128,-1,2
 92 24 92 24 68 53 c 128,-1,3
 44 82 44 82 31.5 121.5 c 128,-1,4
 19 161 19 161 19 206 c 0,5,6
 19 270 19 270 42.5 329 c 128,-1,7
 66 388 66 388 106 433 c 128,-1,8
 146 478 146 478 198 505 c 128,-1,9
 250 532 250 532 307 532 c 256,10,11
 364 532 364 532 402.5 501.5 c 128,-1,12
 441 471 441 471 457 424 c 1,13,-1
 478 522 l 1,14,-1
 589 522 l 1,15,-1
 505 130 l 2,16,17
 504 125 504 125 503.5 121.5 c 128,-1,18
 503 118 503 118 503 115 c 0,19,20
 503 95 503 95 526 94 c 1,21,-1
 506 0 l 1,22,23
 492 -2 492 -2 480.5 -3.5 c 128,-1,24
 469 -5 469 -5 461 -5 c 0,25,26
 396 -5 396 -5 396 47 c 0,27,28
 396 63 396 63 403 95 c 1,29,30
 365 44 365 44 311 17 c 128,-1,31
 257 -10 257 -10 205 -10 c 0,0,1
253 84 m 0,32,33
 273 84 273 84 295.5 92 c 128,-1,34
 318 100 318 100 339.5 114 c 128,-1,35
 361 128 361 128 379 147 c 128,-1,36
 397 166 397 166 408 188 c 1,37,-1
 436 325 l 1,38,39
 433 349 433 349 422.5 369.5 c 128,-1,40
 412 390 412 390 396 405.5 c 128,-1,41
 380 421 380 421 361 429.5 c 128,-1,42
 342 438 342 438 321 438 c 0,43,44
 283 438 283 438 249.5 419 c 128,-1,45
 216 400 216 400 190.5 370 c 128,-1,46
 165 340 165 340 150 301.5 c 128,-1,47
 135 263 135 263 135 224 c 0,48,49
 135 194 135 194 143 168.5 c 128,-1,50
 151 143 151 143 166.5 124.5 c 128,-1,51
 182 106 182 106 204 95 c 128,-1,52
 226 84 226 84 253 84 c 0,32,33
358 602 m 1,53,-1
 288 620 l 1,54,-1
 364 730 l 1,55,-1
 469 730 l 1,56,-1
 358 602 l 1,53,-1
EndSplineSet
EndChar

StartChar: acircumflex
Encoding: 226 226 165
Width: 615
GlyphClass: 2
Flags: W
LayerCount: 2
Fore
SplineSet
205 -10 m 0,0,1
 161 -10 161 -10 126.5 7 c 128,-1,2
 92 24 92 24 68 53 c 128,-1,3
 44 82 44 82 31.5 121.5 c 128,-1,4
 19 161 19 161 19 206 c 0,5,6
 19 270 19 270 42.5 329 c 128,-1,7
 66 388 66 388 106 433 c 128,-1,8
 146 478 146 478 198 505 c 128,-1,9
 250 532 250 532 307 532 c 256,10,11
 364 532 364 532 402.5 501.5 c 128,-1,12
 441 471 441 471 457 424 c 1,13,-1
 478 522 l 1,14,-1
 589 522 l 1,15,-1
 505 130 l 2,16,17
 504 125 504 125 503.5 121.5 c 128,-1,18
 503 118 503 118 503 115 c 0,19,20
 503 95 503 95 526 94 c 1,21,-1
 506 0 l 1,22,23
 492 -2 492 -2 480.5 -3.5 c 128,-1,24
 469 -5 469 -5 461 -5 c 0,25,26
 396 -5 396 -5 396 47 c 0,27,28
 396 63 396 63 403 95 c 1,29,30
 365 44 365 44 311 17 c 128,-1,31
 257 -10 257 -10 205 -10 c 0,0,1
253 84 m 0,32,33
 273 84 273 84 295.5 92 c 128,-1,34
 318 100 318 100 339.5 114 c 128,-1,35
 361 128 361 128 379 147 c 128,-1,36
 397 166 397 166 408 188 c 1,37,-1
 436 325 l 1,38,39
 433 349 433 349 422.5 369.5 c 128,-1,40
 412 390 412 390 396 405.5 c 128,-1,41
 380 421 380 421 361 429.5 c 128,-1,42
 342 438 342 438 321 438 c 0,43,44
 283 438 283 438 249.5 419 c 128,-1,45
 216 400 216 400 190.5 370 c 128,-1,46
 165 340 165 340 150 301.5 c 128,-1,47
 135 263 135 263 135 224 c 0,48,49
 135 194 135 194 143 168.5 c 128,-1,50
 151 143 151 143 166.5 124.5 c 128,-1,51
 182 106 182 106 204 95 c 128,-1,52
 226 84 226 84 253 84 c 0,32,33
208 635 m 1,53,-1
 327 730 l 1,54,-1
 407 730 l 1,55,-1
 485 635 l 1,56,-1
 421 607 l 1,57,-1
 354 670 l 1,58,-1
 260 607 l 1,59,-1
 208 635 l 1,53,-1
EndSplineSet
EndChar

StartChar: atilde
Encoding: 227 227 166
Width: 615
GlyphClass: 2
Flags: W
LayerCount: 2
Fore
SplineSet
205 -10 m 0,0,1
 161 -10 161 -10 126.5 7 c 128,-1,2
 92 24 92 24 68 53 c 128,-1,3
 44 82 44 82 31.5 121.5 c 128,-1,4
 19 161 19 161 19 206 c 0,5,6
 19 270 19 270 42.5 329 c 128,-1,7
 66 388 66 388 106 433 c 128,-1,8
 146 478 146 478 198 505 c 128,-1,9
 250 532 250 532 307 532 c 256,10,11
 364 532 364 532 402.5 501.5 c 128,-1,12
 441 471 441 471 457 424 c 1,13,-1
 478 522 l 1,14,-1
 589 522 l 1,15,-1
 505 130 l 2,16,17
 504 125 504 125 503.5 121.5 c 128,-1,18
 503 118 503 118 503 115 c 0,19,20
 503 95 503 95 526 94 c 1,21,-1
 506 0 l 1,22,23
 492 -2 492 -2 480.5 -3.5 c 128,-1,24
 469 -5 469 -5 461 -5 c 0,25,26
 396 -5 396 -5 396 47 c 0,27,28
 396 63 396 63 403 95 c 1,29,30
 365 44 365 44 311 17 c 128,-1,31
 257 -10 257 -10 205 -10 c 0,0,1
253 84 m 0,32,33
 273 84 273 84 295.5 92 c 128,-1,34
 318 100 318 100 339.5 114 c 128,-1,35
 361 128 361 128 379 147 c 128,-1,36
 397 166 397 166 408 188 c 1,37,-1
 436 325 l 1,38,39
 433 349 433 349 422.5 369.5 c 128,-1,40
 412 390 412 390 396 405.5 c 128,-1,41
 380 421 380 421 361 429.5 c 128,-1,42
 342 438 342 438 321 438 c 0,43,44
 283 438 283 438 249.5 419 c 128,-1,45
 216 400 216 400 190.5 370 c 128,-1,46
 165 340 165 340 150 301.5 c 128,-1,47
 135 263 135 263 135 224 c 0,48,49
 135 194 135 194 143 168.5 c 128,-1,50
 151 143 151 143 166.5 124.5 c 128,-1,51
 182 106 182 106 204 95 c 128,-1,52
 226 84 226 84 253 84 c 0,32,33
398 615 m 0,53,54
 377 615 377 615 362 621.5 c 128,-1,55
 347 628 347 628 335 636.5 c 128,-1,56
 323 645 323 645 311 651.5 c 128,-1,57
 299 658 299 658 283 658 c 256,58,59
 267 658 267 658 256.5 651 c 128,-1,60
 246 644 246 644 239.5 635.5 c 128,-1,61
 233 627 233 627 230.5 619 c 128,-1,62
 228 611 228 611 228 610 c 2,63,-1
 165 610 l 1,64,65
 167 618 167 618 176 637 c 128,-1,66
 185 656 185 656 201.5 675.5 c 128,-1,67
 218 695 218 695 241 710 c 128,-1,68
 264 725 264 725 294 725 c 0,69,70
 315 725 315 725 329 718 c 128,-1,71
 343 711 343 711 355 703 c 128,-1,72
 367 695 367 695 379 688 c 128,-1,73
 391 681 391 681 408 681 c 0,74,75
 426 681 426 681 437.5 688 c 128,-1,76
 449 695 449 695 456.5 704 c 128,-1,77
 464 713 464 713 467.5 720.5 c 128,-1,78
 471 728 471 728 471 730 c 2,79,-1
 533 730 l 1,80,81
 531 724 531 724 522 705 c 128,-1,82
 513 686 513 686 496 666 c 128,-1,83
 479 646 479 646 454.5 630.5 c 128,-1,84
 430 615 430 615 398 615 c 0,53,54
EndSplineSet
EndChar

StartChar: adieresis
Encoding: 228 228 167
Width: 615
GlyphClass: 2
Flags: W
LayerCount: 2
Fore
SplineSet
205 -10 m 0,0,1
 161 -10 161 -10 126.5 7 c 128,-1,2
 92 24 92 24 68 53 c 128,-1,3
 44 82 44 82 31.5 121.5 c 128,-1,4
 19 161 19 161 19 206 c 0,5,6
 19 270 19 270 42.5 329 c 128,-1,7
 66 388 66 388 106 433 c 128,-1,8
 146 478 146 478 198 505 c 128,-1,9
 250 532 250 532 307 532 c 256,10,11
 364 532 364 532 402.5 501.5 c 128,-1,12
 441 471 441 471 457 424 c 1,13,-1
 478 522 l 1,14,-1
 589 522 l 1,15,-1
 505 130 l 2,16,17
 504 125 504 125 503.5 121.5 c 128,-1,18
 503 118 503 118 503 115 c 0,19,20
 503 95 503 95 526 94 c 1,21,-1
 506 0 l 1,22,23
 492 -2 492 -2 480.5 -3.5 c 128,-1,24
 469 -5 469 -5 461 -5 c 0,25,26
 396 -5 396 -5 396 47 c 0,27,28
 396 63 396 63 403 95 c 1,29,30
 365 44 365 44 311 17 c 128,-1,31
 257 -10 257 -10 205 -10 c 0,0,1
253 84 m 0,32,33
 273 84 273 84 295.5 92 c 128,-1,34
 318 100 318 100 339.5 114 c 128,-1,35
 361 128 361 128 379 147 c 128,-1,36
 397 166 397 166 408 188 c 1,37,-1
 436 325 l 1,38,39
 433 349 433 349 422.5 369.5 c 128,-1,40
 412 390 412 390 396 405.5 c 128,-1,41
 380 421 380 421 361 429.5 c 128,-1,42
 342 438 342 438 321 438 c 0,43,44
 283 438 283 438 249.5 419 c 128,-1,45
 216 400 216 400 190.5 370 c 128,-1,46
 165 340 165 340 150 301.5 c 128,-1,47
 135 263 135 263 135 224 c 0,48,49
 135 194 135 194 143 168.5 c 128,-1,50
 151 143 151 143 166.5 124.5 c 128,-1,51
 182 106 182 106 204 95 c 128,-1,52
 226 84 226 84 253 84 c 0,32,33
211 615 m 1,53,-1
 235 725 l 1,54,-1
 326 725 l 1,55,-1
 303 615 l 1,56,-1
 211 615 l 1,53,-1
383 615 m 1,57,-1
 406 725 l 1,58,-1
 497 725 l 1,59,-1
 474 615 l 1,60,-1
 383 615 l 1,57,-1
EndSplineSet
EndChar

StartChar: aring
Encoding: 229 229 168
Width: 615
GlyphClass: 2
Flags: W
LayerCount: 2
Fore
SplineSet
205 -10 m 0,0,1
 161 -10 161 -10 126.5 7 c 128,-1,2
 92 24 92 24 68 53 c 128,-1,3
 44 82 44 82 31.5 121.5 c 128,-1,4
 19 161 19 161 19 206 c 0,5,6
 19 270 19 270 42.5 329 c 128,-1,7
 66 388 66 388 106 433 c 128,-1,8
 146 478 146 478 198 505 c 128,-1,9
 250 532 250 532 307 532 c 256,10,11
 364 532 364 532 402.5 501.5 c 128,-1,12
 441 471 441 471 457 424 c 1,13,-1
 478 522 l 1,14,-1
 589 522 l 1,15,-1
 505 130 l 2,16,17
 504 125 504 125 503.5 121.5 c 128,-1,18
 503 118 503 118 503 115 c 0,19,20
 503 95 503 95 526 94 c 1,21,-1
 506 0 l 1,22,23
 492 -2 492 -2 480.5 -3.5 c 128,-1,24
 469 -5 469 -5 461 -5 c 0,25,26
 396 -5 396 -5 396 47 c 0,27,28
 396 63 396 63 403 95 c 1,29,30
 365 44 365 44 311 17 c 128,-1,31
 257 -10 257 -10 205 -10 c 0,0,1
253 84 m 0,32,33
 273 84 273 84 295.5 92 c 128,-1,34
 318 100 318 100 339.5 114 c 128,-1,35
 361 128 361 128 379 147 c 128,-1,36
 397 166 397 166 408 188 c 1,37,-1
 436 325 l 1,38,39
 433 349 433 349 422.5 369.5 c 128,-1,40
 412 390 412 390 396 405.5 c 128,-1,41
 380 421 380 421 361 429.5 c 128,-1,42
 342 438 342 438 321 438 c 0,43,44
 283 438 283 438 249.5 419 c 128,-1,45
 216 400 216 400 190.5 370 c 128,-1,46
 165 340 165 340 150 301.5 c 128,-1,47
 135 263 135 263 135 224 c 0,48,49
 135 194 135 194 143 168.5 c 128,-1,50
 151 143 151 143 166.5 124.5 c 128,-1,51
 182 106 182 106 204 95 c 128,-1,52
 226 84 226 84 253 84 c 0,32,33
260 643 m 0,53,54
 260 683 260 683 290 706.5 c 128,-1,55
 320 730 320 730 364 730 c 0,56,57
 399 730 399 730 417.5 714.5 c 128,-1,58
 436 699 436 699 436 671 c 0,59,60
 436 632 436 632 407 608 c 128,-1,61
 378 584 378 584 333 584 c 0,62,63
 299 584 299 584 279.5 600 c 128,-1,64
 260 616 260 616 260 643 c 0,53,54
356 694 m 0,65,66
 338 694 338 694 324 682 c 128,-1,67
 310 670 310 670 310 651 c 0,68,69
 310 638 310 638 318.5 629 c 128,-1,70
 327 620 327 620 341 620 c 0,71,72
 358 620 358 620 373 632.5 c 128,-1,73
 388 645 388 645 388 664 c 0,74,75
 388 678 388 678 379 686 c 128,-1,76
 370 694 370 694 356 694 c 0,65,66
EndSplineSet
EndChar

StartChar: ae
Encoding: 230 230 169
Width: 891
GlyphClass: 2
Flags: W
LayerCount: 2
Fore
SplineSet
132 -10 m 0,0,1
 66 -10 66 -10 29 28.5 c 128,-1,2
 -8 67 -8 67 -8 125 c 0,3,4
 -8 167 -8 167 11.5 203 c 128,-1,5
 31 239 31 239 64.5 264.5 c 128,-1,6
 98 290 98 290 143.5 304.5 c 128,-1,7
 189 319 189 319 241 319 c 0,8,9
 273 319 273 319 302 314 c 128,-1,10
 331 309 331 309 354 299 c 1,11,12
 360 322 360 322 368 339 c 128,-1,13
 376 356 376 356 376 376 c 0,14,15
 376 410 376 410 351.5 432 c 128,-1,16
 327 454 327 454 279 454 c 0,17,18
 240 454 240 454 199 438.5 c 128,-1,19
 158 423 158 423 110 394 c 1,20,-1
 91 464 l 1,21,22
 203 532 203 532 307 532 c 0,23,24
 367 532 367 532 405.5 510 c 128,-1,25
 444 488 444 488 461 447 c 1,26,27
 501 485 501 485 552 508.5 c 128,-1,28
 603 532 603 532 661 532 c 0,29,30
 711 532 711 532 749 515 c 128,-1,31
 787 498 787 498 813 468 c 128,-1,32
 839 438 839 438 852.5 398 c 128,-1,33
 866 358 866 358 866 313 c 0,34,35
 866 277 866 277 859.5 255.5 c 128,-1,36
 853 234 853 234 849 225 c 1,37,-1
 448 225 l 1,38,39
 445 211 445 211 445 198 c 0,40,41
 445 140 445 140 479.5 105.5 c 128,-1,42
 514 71 514 71 567 71 c 0,43,44
 588 71 588 71 609 76.5 c 128,-1,45
 630 82 630 82 649 92.5 c 128,-1,46
 668 103 668 103 684 118 c 128,-1,47
 700 133 700 133 711 151 c 1,48,-1
 800 124 l 1,49,50
 781 95 781 95 754 70.5 c 128,-1,51
 727 46 727 46 694 28 c 128,-1,52
 661 10 661 10 623.5 0 c 128,-1,53
 586 -10 586 -10 547 -10 c 0,54,55
 477 -10 477 -10 429.5 20 c 128,-1,56
 382 50 382 50 359 101 c 1,57,58
 336 71 336 71 306.5 50 c 128,-1,59
 277 29 277 29 246 15.5 c 128,-1,60
 215 2 215 2 185.5 -4 c 128,-1,61
 156 -10 156 -10 132 -10 c 0,0,1
180 71 m 0,62,63
 201 71 201 71 225.5 78 c 128,-1,64
 250 85 250 85 272.5 96.5 c 128,-1,65
 295 108 295 108 313 123.5 c 128,-1,66
 331 139 331 139 339 156 c 1,67,68
 336 168 336 168 336 185 c 0,69,70
 336 198 336 198 337.5 212 c 128,-1,71
 339 226 339 226 341 238 c 1,72,73
 320 246 320 246 294.5 251 c 128,-1,74
 269 256 269 256 246 256 c 0,75,76
 215 256 215 256 188 248 c 128,-1,77
 161 240 161 240 141.5 225.5 c 128,-1,78
 122 211 122 211 111 191 c 128,-1,79
 100 171 100 171 100 147 c 0,80,81
 100 115 100 115 120 93 c 128,-1,82
 140 71 140 71 180 71 c 0,62,63
755 295 m 1,83,84
 758 310 758 310 758 324 c 0,85,86
 758 381 758 381 726.5 416 c 128,-1,87
 695 451 695 451 641 451 c 0,88,89
 611 451 611 451 582.5 439.5 c 128,-1,90
 554 428 554 428 530 407 c 128,-1,91
 506 386 506 386 488 357.5 c 128,-1,92
 470 329 470 329 460 295 c 1,93,-1
 755 295 l 1,83,84
EndSplineSet
EndChar

StartChar: ccedilla
Encoding: 231 231 170
Width: 536
GlyphClass: 2
Flags: W
LayerCount: 2
Fore
SplineSet
119 -126 m 1,0,1
 129 -133 129 -133 151 -139.5 c 128,-1,2
 173 -146 173 -146 198 -146 c 0,3,4
 227 -146 227 -146 244 -136.5 c 128,-1,5
 261 -127 261 -127 261 -105 c 0,6,7
 261 -90 261 -90 249 -84 c 128,-1,8
 237 -78 237 -78 218 -78 c 0,9,10
 198 -78 198 -78 175 -82 c 128,-1,11
 152 -86 152 -86 139 -90 c 1,12,-1
 197 -8 l 1,13,14
 154 -3 154 -3 120.5 16 c 128,-1,15
 87 35 87 35 64.5 64 c 128,-1,16
 42 93 42 93 30.5 130.5 c 128,-1,17
 19 168 19 168 19 210 c 0,18,19
 19 273 19 273 43.5 331 c 128,-1,20
 68 389 68 389 111.5 433.5 c 128,-1,21
 155 478 155 478 213.5 505 c 128,-1,22
 272 532 272 532 341 532 c 0,23,24
 419 532 419 532 467 496.5 c 128,-1,25
 515 461 515 461 531 402 c 1,26,-1
 417 368 l 1,27,28
 406 401 406 401 380.5 419.5 c 128,-1,29
 355 438 355 438 319 438 c 256,30,31
 283 438 283 438 249.5 421.5 c 128,-1,32
 216 405 216 405 190 375.5 c 128,-1,33
 164 346 164 346 148.5 307 c 128,-1,34
 133 268 133 268 133 223 c 0,35,36
 133 193 133 193 141 167.5 c 128,-1,37
 149 142 149 142 164 123.5 c 128,-1,38
 179 105 179 105 199.5 94.5 c 128,-1,39
 220 84 220 84 245 84 c 0,40,41
 264 84 264 84 283 89.5 c 128,-1,42
 302 95 302 95 319.5 105 c 128,-1,43
 337 115 337 115 351 128 c 128,-1,44
 365 141 365 141 374 156 c 1,45,-1
 475 124 l 1,46,47
 440 69 440 69 380 32.5 c 128,-1,48
 320 -4 320 -4 247 -9 c 1,49,-1
 217 -45 l 1,50,51
 225 -43 225 -43 233.5 -42 c 128,-1,52
 242 -41 242 -41 249 -41 c 0,53,54
 278 -41 278 -41 296.5 -54 c 128,-1,55
 315 -67 315 -67 315 -94 c 0,56,57
 315 -135 315 -135 281.5 -162 c 128,-1,58
 248 -189 248 -189 181 -189 c 0,59,60
 151 -189 151 -189 127 -183 c 128,-1,61
 103 -177 103 -177 86 -169 c 1,62,-1
 119 -126 l 1,0,1
EndSplineSet
EndChar

StartChar: egrave
Encoding: 232 232 171
Width: 545
GlyphClass: 2
Flags: W
LayerCount: 2
Fore
SplineSet
229 -10 m 0,0,1
 179 -10 179 -10 140.5 7 c 128,-1,2
 102 24 102 24 75 53.5 c 128,-1,3
 48 83 48 83 34 123.5 c 128,-1,4
 20 164 20 164 20 211 c 0,5,6
 20 275 20 275 44.5 333 c 128,-1,7
 69 391 69 391 112.5 435 c 128,-1,8
 156 479 156 479 215.5 505.5 c 128,-1,9
 275 532 275 532 344 532 c 0,10,11
 425 532 425 532 473.5 495.5 c 128,-1,12
 522 459 522 459 522 388 c 0,13,14
 522 224 522 224 229 224 c 0,15,16
 186 224 186 224 132 227 c 1,17,-1
 132 209 l 2,18,19
 132 180 132 180 139 155 c 128,-1,20
 146 130 146 130 160 111 c 128,-1,21
 174 92 174 92 196 81.5 c 128,-1,22
 218 71 218 71 248 71 c 0,23,24
 291 71 291 71 331 92.5 c 128,-1,25
 371 114 371 114 394 151 c 1,26,-1
 481 124 l 1,27,28
 462 94 462 94 434.5 69.5 c 128,-1,29
 407 45 407 45 374 27.5 c 128,-1,30
 341 10 341 10 304 0 c 128,-1,31
 267 -10 267 -10 229 -10 c 0,0,1
330 451 m 0,32,33
 294 451 294 451 264 438.5 c 128,-1,34
 234 426 234 426 211 405 c 128,-1,35
 188 384 188 384 172 356.5 c 128,-1,36
 156 329 156 329 146 299 c 1,37,38
 192 296 192 296 231 296 c 0,39,40
 284 296 284 296 320 302.5 c 128,-1,41
 356 309 356 309 378.5 320.5 c 128,-1,42
 401 332 401 332 410.5 348.5 c 128,-1,43
 420 365 420 365 420 385 c 0,44,45
 420 419 420 419 396 435 c 128,-1,46
 372 451 372 451 330 451 c 0,32,33
276 730 m 1,47,-1
 380 730 l 1,48,-1
 410 620 l 1,49,-1
 334 601 l 1,50,-1
 276 730 l 1,47,-1
EndSplineSet
EndChar

StartChar: eacute
Encoding: 233 233 172
Width: 545
GlyphClass: 2
Flags: W
LayerCount: 2
Fore
SplineSet
357 602 m 1,0,-1
 287 620 l 1,1,-1
 363 730 l 1,2,-1
 468 730 l 1,3,-1
 357 602 l 1,0,-1
229 -10 m 0,4,5
 179 -10 179 -10 140.5 7 c 128,-1,6
 102 24 102 24 75 53.5 c 128,-1,7
 48 83 48 83 34 123.5 c 128,-1,8
 20 164 20 164 20 211 c 0,9,10
 20 275 20 275 44.5 333 c 128,-1,11
 69 391 69 391 112.5 435 c 128,-1,12
 156 479 156 479 215.5 505.5 c 128,-1,13
 275 532 275 532 344 532 c 0,14,15
 425 532 425 532 473.5 495.5 c 128,-1,16
 522 459 522 459 522 388 c 0,17,18
 522 224 522 224 229 224 c 0,19,20
 186 224 186 224 132 227 c 1,21,-1
 132 209 l 2,22,23
 132 180 132 180 139 155 c 128,-1,24
 146 130 146 130 160 111 c 128,-1,25
 174 92 174 92 196 81.5 c 128,-1,26
 218 71 218 71 248 71 c 0,27,28
 291 71 291 71 331 92.5 c 128,-1,29
 371 114 371 114 394 151 c 1,30,-1
 481 124 l 1,31,32
 462 94 462 94 434.5 69.5 c 128,-1,33
 407 45 407 45 374 27.5 c 128,-1,34
 341 10 341 10 304 0 c 128,-1,35
 267 -10 267 -10 229 -10 c 0,4,5
330 451 m 0,36,37
 294 451 294 451 264 438.5 c 128,-1,38
 234 426 234 426 211 405 c 128,-1,39
 188 384 188 384 172 356.5 c 128,-1,40
 156 329 156 329 146 299 c 1,41,42
 192 296 192 296 231 296 c 0,43,44
 284 296 284 296 320 302.5 c 128,-1,45
 356 309 356 309 378.5 320.5 c 128,-1,46
 401 332 401 332 410.5 348.5 c 128,-1,47
 420 365 420 365 420 385 c 0,48,49
 420 419 420 419 396 435 c 128,-1,50
 372 451 372 451 330 451 c 0,36,37
EndSplineSet
EndChar

StartChar: ecircumflex
Encoding: 234 234 173
Width: 545
GlyphClass: 2
Flags: W
LayerCount: 2
Fore
SplineSet
227 635 m 1,0,-1
 346 730 l 1,1,-1
 426 730 l 1,2,-1
 504 635 l 1,3,-1
 440 607 l 1,4,-1
 373 670 l 1,5,-1
 279 607 l 1,6,-1
 227 635 l 1,0,-1
229 -10 m 0,7,8
 179 -10 179 -10 140.5 7 c 128,-1,9
 102 24 102 24 75 53.5 c 128,-1,10
 48 83 48 83 34 123.5 c 128,-1,11
 20 164 20 164 20 211 c 0,12,13
 20 275 20 275 44.5 333 c 128,-1,14
 69 391 69 391 112.5 435 c 128,-1,15
 156 479 156 479 215.5 505.5 c 128,-1,16
 275 532 275 532 344 532 c 0,17,18
 425 532 425 532 473.5 495.5 c 128,-1,19
 522 459 522 459 522 388 c 0,20,21
 522 224 522 224 229 224 c 0,22,23
 186 224 186 224 132 227 c 1,24,-1
 132 209 l 2,25,26
 132 180 132 180 139 155 c 128,-1,27
 146 130 146 130 160 111 c 128,-1,28
 174 92 174 92 196 81.5 c 128,-1,29
 218 71 218 71 248 71 c 0,30,31
 291 71 291 71 331 92.5 c 128,-1,32
 371 114 371 114 394 151 c 1,33,-1
 481 124 l 1,34,35
 462 94 462 94 434.5 69.5 c 128,-1,36
 407 45 407 45 374 27.5 c 128,-1,37
 341 10 341 10 304 0 c 128,-1,38
 267 -10 267 -10 229 -10 c 0,7,8
330 451 m 0,39,40
 294 451 294 451 264 438.5 c 128,-1,41
 234 426 234 426 211 405 c 128,-1,42
 188 384 188 384 172 356.5 c 128,-1,43
 156 329 156 329 146 299 c 1,44,45
 192 296 192 296 231 296 c 0,46,47
 284 296 284 296 320 302.5 c 128,-1,48
 356 309 356 309 378.5 320.5 c 128,-1,49
 401 332 401 332 410.5 348.5 c 128,-1,50
 420 365 420 365 420 385 c 0,51,52
 420 419 420 419 396 435 c 128,-1,53
 372 451 372 451 330 451 c 0,39,40
EndSplineSet
EndChar

StartChar: edieresis
Encoding: 235 235 174
Width: 545
GlyphClass: 2
Flags: W
LayerCount: 2
Fore
SplineSet
223 615 m 1,0,-1
 247 725 l 1,1,-1
 338 725 l 1,2,-1
 315 615 l 1,3,-1
 223 615 l 1,0,-1
395 615 m 1,4,-1
 418 725 l 1,5,-1
 509 725 l 1,6,-1
 486 615 l 1,7,-1
 395 615 l 1,4,-1
229 -10 m 0,8,9
 179 -10 179 -10 140.5 7 c 128,-1,10
 102 24 102 24 75 53.5 c 128,-1,11
 48 83 48 83 34 123.5 c 128,-1,12
 20 164 20 164 20 211 c 0,13,14
 20 275 20 275 44.5 333 c 128,-1,15
 69 391 69 391 112.5 435 c 128,-1,16
 156 479 156 479 215.5 505.5 c 128,-1,17
 275 532 275 532 344 532 c 0,18,19
 425 532 425 532 473.5 495.5 c 128,-1,20
 522 459 522 459 522 388 c 0,21,22
 522 224 522 224 229 224 c 0,23,24
 186 224 186 224 132 227 c 1,25,-1
 132 209 l 2,26,27
 132 180 132 180 139 155 c 128,-1,28
 146 130 146 130 160 111 c 128,-1,29
 174 92 174 92 196 81.5 c 128,-1,30
 218 71 218 71 248 71 c 0,31,32
 291 71 291 71 331 92.5 c 128,-1,33
 371 114 371 114 394 151 c 1,34,-1
 481 124 l 1,35,36
 462 94 462 94 434.5 69.5 c 128,-1,37
 407 45 407 45 374 27.5 c 128,-1,38
 341 10 341 10 304 0 c 128,-1,39
 267 -10 267 -10 229 -10 c 0,8,9
330 451 m 0,40,41
 294 451 294 451 264 438.5 c 128,-1,42
 234 426 234 426 211 405 c 128,-1,43
 188 384 188 384 172 356.5 c 128,-1,44
 156 329 156 329 146 299 c 1,45,46
 192 296 192 296 231 296 c 0,47,48
 284 296 284 296 320 302.5 c 128,-1,49
 356 309 356 309 378.5 320.5 c 128,-1,50
 401 332 401 332 410.5 348.5 c 128,-1,51
 420 365 420 365 420 385 c 0,52,53
 420 419 420 419 396 435 c 128,-1,54
 372 451 372 451 330 451 c 0,40,41
EndSplineSet
EndChar

StartChar: igrave
Encoding: 236 236 175
Width: 239
GlyphClass: 2
Flags: W
LayerCount: 2
Fore
SplineSet
112 523 m 1,0,-1
 222 523 l 1,1,-1
 110 0 l 1,2,-1
 0 0 l 1,3,-1
 112 523 l 1,0,-1
98 730 m 1,4,-1
 202 730 l 1,5,-1
 232 620 l 1,6,-1
 156 601 l 1,7,-1
 98 730 l 1,4,-1
EndSplineSet
EndChar

StartChar: iacute
Encoding: 237 237 176
Width: 239
GlyphClass: 2
Flags: W
LayerCount: 2
Fore
SplineSet
196 602 m 1,0,-1
 126 620 l 1,1,-1
 202 730 l 1,2,-1
 307 730 l 1,3,-1
 196 602 l 1,0,-1
112 523 m 1,4,-1
 222 523 l 1,5,-1
 110 0 l 1,6,-1
 0 0 l 1,7,-1
 112 523 l 1,4,-1
EndSplineSet
EndChar

StartChar: icircumflex
Encoding: 238 238 177
Width: 239
GlyphClass: 2
Flags: W
LayerCount: 2
Fore
SplineSet
56 635 m 1,0,-1
 175 730 l 1,1,-1
 255 730 l 1,2,-1
 333 635 l 1,3,-1
 269 607 l 1,4,-1
 202 670 l 1,5,-1
 108 607 l 1,6,-1
 56 635 l 1,0,-1
112 523 m 1,7,-1
 222 523 l 1,8,-1
 110 0 l 1,9,-1
 0 0 l 1,10,-1
 112 523 l 1,7,-1
EndSplineSet
EndChar

StartChar: idieresis
Encoding: 239 239 178
Width: 239
GlyphClass: 2
Flags: W
LayerCount: 2
Fore
SplineSet
51 615 m 1,0,-1
 75 725 l 1,1,-1
 166 725 l 1,2,-1
 143 615 l 1,3,-1
 51 615 l 1,0,-1
223 615 m 1,4,-1
 246 725 l 1,5,-1
 337 725 l 1,6,-1
 314 615 l 1,7,-1
 223 615 l 1,4,-1
112 523 m 1,8,-1
 222 523 l 1,9,-1
 110 0 l 1,10,-1
 0 0 l 1,11,-1
 112 523 l 1,8,-1
EndSplineSet
EndChar

StartChar: eth
Encoding: 240 240 179
Width: 587
GlyphClass: 2
Flags: W
LayerCount: 2
Fore
SplineSet
572 668 m 1,0,-1
 489 624 l 1,1,2
 525 566 525 566 541 500 c 128,-1,3
 557 434 557 434 557 374 c 0,4,5
 557 286 557 286 529 215 c 128,-1,6
 501 144 501 144 454.5 94 c 128,-1,7
 408 44 408 44 347.5 17 c 128,-1,8
 287 -10 287 -10 221 -10 c 0,9,10
 175 -10 175 -10 137 5.5 c 128,-1,11
 99 21 99 21 72 48 c 128,-1,12
 45 75 45 75 30 111.5 c 128,-1,13
 15 148 15 148 15 191 c 0,14,15
 15 247 15 247 39.5 298 c 128,-1,16
 64 349 64 349 104 388 c 128,-1,17
 144 427 144 427 195.5 450 c 128,-1,18
 247 473 247 473 302 473 c 0,19,20
 356 473 356 473 395.5 447.5 c 128,-1,21
 435 422 435 422 452 380 c 1,22,23
 452 397 452 397 451 413 c 128,-1,24
 450 429 450 429 447 444 c 0,25,26
 442 480 442 480 430 514.5 c 128,-1,27
 418 549 418 549 397 583 c 1,28,-1
 295 527 l 1,29,-1
 272 572 l 1,30,-1
 367 623 l 1,31,32
 322 678 322 678 244 730 c 1,33,-1
 389 730 l 1,34,35
 431 701 431 701 460 664 c 1,36,-1
 549 713 l 1,37,-1
 572 668 l 1,0,-1
129 205 m 0,38,39
 129 179 129 179 137.5 157 c 128,-1,40
 146 135 146 135 161 119 c 128,-1,41
 176 103 176 103 197 93.5 c 128,-1,42
 218 84 218 84 244 84 c 0,43,44
 280 84 280 84 312.5 99 c 128,-1,45
 345 114 345 114 370 139 c 128,-1,46
 395 164 395 164 410 196.5 c 128,-1,47
 425 229 425 229 425 265 c 0,48,49
 425 316 425 316 394 350 c 128,-1,50
 363 384 363 384 310 384 c 0,51,52
 275 384 275 384 242 369.5 c 128,-1,53
 209 355 209 355 184 330.5 c 128,-1,54
 159 306 159 306 144 273.5 c 128,-1,55
 129 241 129 241 129 205 c 0,38,39
EndSplineSet
EndChar

StartChar: ntilde
Encoding: 241 241 180
Width: 574
GlyphClass: 2
Flags: W
LayerCount: 2
Fore
SplineSet
112 523 m 1,0,-1
 211 523 l 1,1,-1
 189 418 l 1,2,3
 228 471 228 471 288 501.5 c 128,-1,4
 348 532 348 532 414 532 c 0,5,6
 447 532 447 532 469 523 c 128,-1,7
 491 514 491 514 504.5 497.5 c 128,-1,8
 518 481 518 481 524 459 c 128,-1,9
 530 437 530 437 530 410 c 0,10,11
 530 389 530 389 526.5 366 c 128,-1,12
 523 343 523 343 518 319 c 2,13,-1
 451 0 l 1,14,-1
 341 0 l 1,15,-1
 403 293 l 2,16,17
 407 312 407 312 409 327.5 c 128,-1,18
 411 343 411 343 411 357 c 0,19,20
 411 434 411 434 347 434 c 0,21,22
 325 434 325 434 301 425 c 128,-1,23
 277 416 277 416 254 399.5 c 128,-1,24
 231 383 231 383 210.5 360.5 c 128,-1,25
 190 338 190 338 177 311 c 1,26,-1
 110 0 l 1,27,-1
 0 0 l 1,28,-1
 112 523 l 1,0,-1
395 615 m 0,29,30
 374 615 374 615 359 621.5 c 128,-1,31
 344 628 344 628 332 636.5 c 128,-1,32
 320 645 320 645 308 651.5 c 128,-1,33
 296 658 296 658 280 658 c 256,34,35
 264 658 264 658 253.5 651 c 128,-1,36
 243 644 243 644 236.5 635.5 c 128,-1,37
 230 627 230 627 227.5 619 c 128,-1,38
 225 611 225 611 225 610 c 2,39,-1
 162 610 l 1,40,41
 164 618 164 618 173 637 c 128,-1,42
 182 656 182 656 198.5 675.5 c 128,-1,43
 215 695 215 695 238 710 c 128,-1,44
 261 725 261 725 291 725 c 0,45,46
 312 725 312 725 326 718 c 128,-1,47
 340 711 340 711 352 703 c 128,-1,48
 364 695 364 695 376 688 c 128,-1,49
 388 681 388 681 405 681 c 0,50,51
 423 681 423 681 434.5 688 c 128,-1,52
 446 695 446 695 453.5 704 c 128,-1,53
 461 713 461 713 464.5 720.5 c 128,-1,54
 468 728 468 728 468 730 c 2,55,-1
 530 730 l 1,56,57
 528 724 528 724 519 705 c 128,-1,58
 510 686 510 686 493 666 c 128,-1,59
 476 646 476 646 451.5 630.5 c 128,-1,60
 427 615 427 615 395 615 c 0,29,30
EndSplineSet
EndChar

StartChar: ograve
Encoding: 242 242 181
Width: 582
GlyphClass: 2
Flags: W
LayerCount: 2
Fore
SplineSet
224 -10 m 0,0,1
 174 -10 174 -10 136 7.5 c 128,-1,2
 98 25 98 25 72 54.5 c 128,-1,3
 46 84 46 84 32.5 123.5 c 128,-1,4
 19 163 19 163 19 208 c 0,5,6
 19 271 19 271 44 329.5 c 128,-1,7
 69 388 69 388 112 433 c 128,-1,8
 155 478 155 478 213.5 505 c 128,-1,9
 272 532 272 532 339 532 c 0,10,11
 389 532 389 532 427.5 514.5 c 128,-1,12
 466 497 466 497 492.5 467.5 c 128,-1,13
 519 438 519 438 532.5 398 c 128,-1,14
 546 358 546 358 546 313 c 0,15,16
 546 251 546 251 521 193 c 128,-1,17
 496 135 496 135 452.5 90 c 128,-1,18
 409 45 409 45 350.5 17.5 c 128,-1,19
 292 -10 292 -10 224 -10 c 0,0,1
245 84 m 0,20,21
 280 84 280 84 313.5 101 c 128,-1,22
 347 118 347 118 373 147.5 c 128,-1,23
 399 177 399 177 415 216 c 128,-1,24
 431 255 431 255 431 299 c 0,25,26
 431 359 431 359 400.5 398.5 c 128,-1,27
 370 438 370 438 319 438 c 0,28,29
 284 438 284 438 251 420.5 c 128,-1,30
 218 403 218 403 191.5 373.5 c 128,-1,31
 165 344 165 344 149 305 c 128,-1,32
 133 266 133 266 133 222 c 0,33,34
 133 162 133 162 163.5 123 c 128,-1,35
 194 84 194 84 245 84 c 0,20,21
275 730 m 1,36,-1
 379 730 l 1,37,-1
 409 620 l 1,38,-1
 333 601 l 1,39,-1
 275 730 l 1,36,-1
EndSplineSet
EndChar

StartChar: oacute
Encoding: 243 243 182
Width: 582
GlyphClass: 2
Flags: W
LayerCount: 2
Fore
SplineSet
363 602 m 1,0,-1
 293 620 l 1,1,-1
 369 730 l 1,2,-1
 474 730 l 1,3,-1
 363 602 l 1,0,-1
224 -10 m 0,4,5
 174 -10 174 -10 136 7.5 c 128,-1,6
 98 25 98 25 72 54.5 c 128,-1,7
 46 84 46 84 32.5 123.5 c 128,-1,8
 19 163 19 163 19 208 c 0,9,10
 19 271 19 271 44 329.5 c 128,-1,11
 69 388 69 388 112 433 c 128,-1,12
 155 478 155 478 213.5 505 c 128,-1,13
 272 532 272 532 339 532 c 0,14,15
 389 532 389 532 427.5 514.5 c 128,-1,16
 466 497 466 497 492.5 467.5 c 128,-1,17
 519 438 519 438 532.5 398 c 128,-1,18
 546 358 546 358 546 313 c 0,19,20
 546 251 546 251 521 193 c 128,-1,21
 496 135 496 135 452.5 90 c 128,-1,22
 409 45 409 45 350.5 17.5 c 128,-1,23
 292 -10 292 -10 224 -10 c 0,4,5
245 84 m 0,24,25
 280 84 280 84 313.5 101 c 128,-1,26
 347 118 347 118 373 147.5 c 128,-1,27
 399 177 399 177 415 216 c 128,-1,28
 431 255 431 255 431 299 c 0,29,30
 431 359 431 359 400.5 398.5 c 128,-1,31
 370 438 370 438 319 438 c 0,32,33
 284 438 284 438 251 420.5 c 128,-1,34
 218 403 218 403 191.5 373.5 c 128,-1,35
 165 344 165 344 149 305 c 128,-1,36
 133 266 133 266 133 222 c 0,37,38
 133 162 133 162 163.5 123 c 128,-1,39
 194 84 194 84 245 84 c 0,24,25
EndSplineSet
EndChar

StartChar: ocircumflex
Encoding: 244 244 183
Width: 582
GlyphClass: 2
Flags: W
LayerCount: 2
Fore
SplineSet
223 635 m 1,0,-1
 342 730 l 1,1,-1
 422 730 l 1,2,-1
 500 635 l 1,3,-1
 436 607 l 1,4,-1
 369 670 l 1,5,-1
 275 607 l 1,6,-1
 223 635 l 1,0,-1
224 -10 m 0,7,8
 174 -10 174 -10 136 7.5 c 128,-1,9
 98 25 98 25 72 54.5 c 128,-1,10
 46 84 46 84 32.5 123.5 c 128,-1,11
 19 163 19 163 19 208 c 0,12,13
 19 271 19 271 44 329.5 c 128,-1,14
 69 388 69 388 112 433 c 128,-1,15
 155 478 155 478 213.5 505 c 128,-1,16
 272 532 272 532 339 532 c 0,17,18
 389 532 389 532 427.5 514.5 c 128,-1,19
 466 497 466 497 492.5 467.5 c 128,-1,20
 519 438 519 438 532.5 398 c 128,-1,21
 546 358 546 358 546 313 c 0,22,23
 546 251 546 251 521 193 c 128,-1,24
 496 135 496 135 452.5 90 c 128,-1,25
 409 45 409 45 350.5 17.5 c 128,-1,26
 292 -10 292 -10 224 -10 c 0,7,8
245 84 m 0,27,28
 280 84 280 84 313.5 101 c 128,-1,29
 347 118 347 118 373 147.5 c 128,-1,30
 399 177 399 177 415 216 c 128,-1,31
 431 255 431 255 431 299 c 0,32,33
 431 359 431 359 400.5 398.5 c 128,-1,34
 370 438 370 438 319 438 c 0,35,36
 284 438 284 438 251 420.5 c 128,-1,37
 218 403 218 403 191.5 373.5 c 128,-1,38
 165 344 165 344 149 305 c 128,-1,39
 133 266 133 266 133 222 c 0,40,41
 133 162 133 162 163.5 123 c 128,-1,42
 194 84 194 84 245 84 c 0,27,28
EndSplineSet
EndChar

StartChar: otilde
Encoding: 245 245 184
Width: 582
GlyphClass: 2
Flags: W
LayerCount: 2
Fore
SplineSet
224 -10 m 0,0,1
 174 -10 174 -10 136 7.5 c 128,-1,2
 98 25 98 25 72 54.5 c 128,-1,3
 46 84 46 84 32.5 123.5 c 128,-1,4
 19 163 19 163 19 208 c 0,5,6
 19 271 19 271 44 329.5 c 128,-1,7
 69 388 69 388 112 433 c 128,-1,8
 155 478 155 478 213.5 505 c 128,-1,9
 272 532 272 532 339 532 c 0,10,11
 389 532 389 532 427.5 514.5 c 128,-1,12
 466 497 466 497 492.5 467.5 c 128,-1,13
 519 438 519 438 532.5 398 c 128,-1,14
 546 358 546 358 546 313 c 0,15,16
 546 251 546 251 521 193 c 128,-1,17
 496 135 496 135 452.5 90 c 128,-1,18
 409 45 409 45 350.5 17.5 c 128,-1,19
 292 -10 292 -10 224 -10 c 0,0,1
245 84 m 0,20,21
 280 84 280 84 313.5 101 c 128,-1,22
 347 118 347 118 373 147.5 c 128,-1,23
 399 177 399 177 415 216 c 128,-1,24
 431 255 431 255 431 299 c 0,25,26
 431 359 431 359 400.5 398.5 c 128,-1,27
 370 438 370 438 319 438 c 0,28,29
 284 438 284 438 251 420.5 c 128,-1,30
 218 403 218 403 191.5 373.5 c 128,-1,31
 165 344 165 344 149 305 c 128,-1,32
 133 266 133 266 133 222 c 0,33,34
 133 162 133 162 163.5 123 c 128,-1,35
 194 84 194 84 245 84 c 0,20,21
413 615 m 0,36,37
 392 615 392 615 377 621.5 c 128,-1,38
 362 628 362 628 350 636.5 c 128,-1,39
 338 645 338 645 326 651.5 c 128,-1,40
 314 658 314 658 298 658 c 256,41,42
 282 658 282 658 271.5 651 c 128,-1,43
 261 644 261 644 254.5 635.5 c 128,-1,44
 248 627 248 627 245.5 619 c 128,-1,45
 243 611 243 611 243 610 c 2,46,-1
 180 610 l 1,47,48
 182 618 182 618 191 637 c 128,-1,49
 200 656 200 656 216.5 675.5 c 128,-1,50
 233 695 233 695 256 710 c 128,-1,51
 279 725 279 725 309 725 c 0,52,53
 330 725 330 725 344 718 c 128,-1,54
 358 711 358 711 370 703 c 128,-1,55
 382 695 382 695 394 688 c 128,-1,56
 406 681 406 681 423 681 c 0,57,58
 441 681 441 681 452.5 688 c 128,-1,59
 464 695 464 695 471.5 704 c 128,-1,60
 479 713 479 713 482.5 720.5 c 128,-1,61
 486 728 486 728 486 730 c 2,62,-1
 548 730 l 1,63,64
 546 724 546 724 537 705 c 128,-1,65
 528 686 528 686 511 666 c 128,-1,66
 494 646 494 646 469.5 630.5 c 128,-1,67
 445 615 445 615 413 615 c 0,36,37
EndSplineSet
EndChar

StartChar: odieresis
Encoding: 246 246 185
Width: 582
GlyphClass: 2
Flags: W
LayerCount: 2
Fore
SplineSet
227 615 m 1,0,-1
 251 725 l 1,1,-1
 342 725 l 1,2,-1
 319 615 l 1,3,-1
 227 615 l 1,0,-1
399 615 m 1,4,-1
 422 725 l 1,5,-1
 513 725 l 1,6,-1
 490 615 l 1,7,-1
 399 615 l 1,4,-1
224 -10 m 0,8,9
 174 -10 174 -10 136 7.5 c 128,-1,10
 98 25 98 25 72 54.5 c 128,-1,11
 46 84 46 84 32.5 123.5 c 128,-1,12
 19 163 19 163 19 208 c 0,13,14
 19 271 19 271 44 329.5 c 128,-1,15
 69 388 69 388 112 433 c 128,-1,16
 155 478 155 478 213.5 505 c 128,-1,17
 272 532 272 532 339 532 c 0,18,19
 389 532 389 532 427.5 514.5 c 128,-1,20
 466 497 466 497 492.5 467.5 c 128,-1,21
 519 438 519 438 532.5 398 c 128,-1,22
 546 358 546 358 546 313 c 0,23,24
 546 251 546 251 521 193 c 128,-1,25
 496 135 496 135 452.5 90 c 128,-1,26
 409 45 409 45 350.5 17.5 c 128,-1,27
 292 -10 292 -10 224 -10 c 0,8,9
245 84 m 0,28,29
 280 84 280 84 313.5 101 c 128,-1,30
 347 118 347 118 373 147.5 c 128,-1,31
 399 177 399 177 415 216 c 128,-1,32
 431 255 431 255 431 299 c 0,33,34
 431 359 431 359 400.5 398.5 c 128,-1,35
 370 438 370 438 319 438 c 0,36,37
 284 438 284 438 251 420.5 c 128,-1,38
 218 403 218 403 191.5 373.5 c 128,-1,39
 165 344 165 344 149 305 c 128,-1,40
 133 266 133 266 133 222 c 0,41,42
 133 162 133 162 163.5 123 c 128,-1,43
 194 84 194 84 245 84 c 0,28,29
EndSplineSet
EndChar

StartChar: divide
Encoding: 247 247 186
Width: 527
GlyphClass: 2
Flags: W
LayerCount: 2
Fore
SplineSet
214 411 m 1,0,-1
 214 526 l 1,1,-1
 308 526 l 1,2,-1
 308 411 l 1,3,-1
 214 411 l 1,0,-1
214 58 m 1,4,-1
 214 172 l 1,5,-1
 308 172 l 1,6,-1
 308 58 l 1,7,-1
 214 58 l 1,4,-1
59 248 m 1,8,-1
 59 336 l 1,9,-1
 462 336 l 1,10,-1
 462 248 l 1,11,-1
 59 248 l 1,8,-1
EndSplineSet
EndChar

StartChar: oslash
Encoding: 248 248 187
Width: 582
GlyphClass: 2
Flags: W
LayerCount: 2
Fore
SplineSet
66 62 m 1,0,1
 43 91 43 91 31 128.5 c 128,-1,2
 19 166 19 166 19 208 c 0,3,4
 19 271 19 271 44 329.5 c 128,-1,5
 69 388 69 388 112.5 433 c 128,-1,6
 156 478 156 478 214.5 505 c 128,-1,7
 273 532 273 532 340 532 c 0,8,9
 378 532 378 532 409 521.5 c 128,-1,10
 440 511 440 511 465 493 c 1,11,-1
 498 526 l 1,12,-1
 563 526 l 1,13,-1
 497 462 l 1,14,15
 521 433 521 433 533.5 394.5 c 128,-1,16
 546 356 546 356 546 313 c 0,17,18
 546 251 546 251 521.5 193 c 128,-1,19
 497 135 497 135 453.5 90 c 128,-1,20
 410 45 410 45 351.5 17.5 c 128,-1,21
 293 -10 293 -10 225 -10 c 0,22,23
 186 -10 186 -10 154 0.5 c 128,-1,24
 122 11 122 11 97 31 c 1,25,-1
 63 -3 l 1,26,-1
 -1 -3 l 1,27,-1
 66 62 l 1,0,1
245 84 m 0,28,29
 280 84 280 84 313.5 101 c 128,-1,30
 347 118 347 118 373.5 147.5 c 128,-1,31
 400 177 400 177 416 216 c 128,-1,32
 432 255 432 255 432 299 c 0,33,34
 432 322 432 322 427 341.5 c 128,-1,35
 422 361 422 361 414 378 c 1,36,-1
 174 111 l 1,37,38
 203 84 203 84 245 84 c 0,28,29
133 222 m 256,39,40
 133 178 133 178 150 144 c 1,41,-1
 388 411 l 1,42,43
 359 438 359 438 319 438 c 0,44,45
 284 438 284 438 251 420.5 c 128,-1,46
 218 403 218 403 191.5 373.5 c 128,-1,47
 165 344 165 344 149 305 c 128,-1,48
 133 266 133 266 133 222 c 256,39,40
EndSplineSet
EndChar

StartChar: ugrave
Encoding: 249 249 188
Width: 586
GlyphClass: 2
Flags: W
LayerCount: 2
Fore
SplineSet
150 -10 m 0,0,1
 28 -10 28 -10 28 120 c 0,2,3
 28 157 28 157 38 203 c 2,4,-1
 107 523 l 1,5,-1
 216 523 l 1,6,-1
 152 225 l 2,7,8
 145 193 145 193 145 165 c 0,9,10
 145 84 145 84 214 84 c 0,11,12
 258 84 258 84 302.5 113 c 128,-1,13
 347 142 347 142 381 197 c 1,14,-1
 450 523 l 1,15,-1
 560 523 l 1,16,-1
 477 130 l 2,17,18
 474 121 474 121 474 115 c 0,19,20
 474 96 474 96 497 94 c 1,21,-1
 478 0 l 1,22,23
 463 -2 463 -2 452 -3.5 c 128,-1,24
 441 -5 441 -5 432 -5 c 0,25,26
 402 -5 402 -5 385 7.5 c 128,-1,27
 368 20 368 20 368 45 c 0,28,29
 368 53 368 53 370 66 c 128,-1,30
 372 79 372 79 377 106 c 1,31,32
 332 49 332 49 273 19.5 c 128,-1,33
 214 -10 214 -10 150 -10 c 0,0,1
265 730 m 1,34,-1
 369 730 l 1,35,-1
 399 620 l 1,36,-1
 323 601 l 1,37,-1
 265 730 l 1,34,-1
EndSplineSet
EndChar

StartChar: uacute
Encoding: 250 250 189
Width: 586
GlyphClass: 2
Flags: W
LayerCount: 2
Fore
SplineSet
346 602 m 1,0,-1
 276 620 l 1,1,-1
 352 730 l 1,2,-1
 457 730 l 1,3,-1
 346 602 l 1,0,-1
150 -10 m 0,4,5
 28 -10 28 -10 28 120 c 0,6,7
 28 157 28 157 38 203 c 2,8,-1
 107 523 l 1,9,-1
 216 523 l 1,10,-1
 152 225 l 2,11,12
 145 193 145 193 145 165 c 0,13,14
 145 84 145 84 214 84 c 0,15,16
 258 84 258 84 302.5 113 c 128,-1,17
 347 142 347 142 381 197 c 1,18,-1
 450 523 l 1,19,-1
 560 523 l 1,20,-1
 477 130 l 2,21,22
 474 121 474 121 474 115 c 0,23,24
 474 96 474 96 497 94 c 1,25,-1
 478 0 l 1,26,27
 463 -2 463 -2 452 -3.5 c 128,-1,28
 441 -5 441 -5 432 -5 c 0,29,30
 402 -5 402 -5 385 7.5 c 128,-1,31
 368 20 368 20 368 45 c 0,32,33
 368 53 368 53 370 66 c 128,-1,34
 372 79 372 79 377 106 c 1,35,36
 332 49 332 49 273 19.5 c 128,-1,37
 214 -10 214 -10 150 -10 c 0,4,5
EndSplineSet
EndChar

StartChar: ucircumflex
Encoding: 251 251 190
Width: 586
GlyphClass: 2
Flags: W
LayerCount: 2
Fore
SplineSet
222 635 m 1,0,-1
 341 730 l 1,1,-1
 421 730 l 1,2,-1
 499 635 l 1,3,-1
 435 607 l 1,4,-1
 368 670 l 1,5,-1
 274 607 l 1,6,-1
 222 635 l 1,0,-1
150 -10 m 0,7,8
 28 -10 28 -10 28 120 c 0,9,10
 28 157 28 157 38 203 c 2,11,-1
 107 523 l 1,12,-1
 216 523 l 1,13,-1
 152 225 l 2,14,15
 145 193 145 193 145 165 c 0,16,17
 145 84 145 84 214 84 c 0,18,19
 258 84 258 84 302.5 113 c 128,-1,20
 347 142 347 142 381 197 c 1,21,-1
 450 523 l 1,22,-1
 560 523 l 1,23,-1
 477 130 l 2,24,25
 474 121 474 121 474 115 c 0,26,27
 474 96 474 96 497 94 c 1,28,-1
 478 0 l 1,29,30
 463 -2 463 -2 452 -3.5 c 128,-1,31
 441 -5 441 -5 432 -5 c 0,32,33
 402 -5 402 -5 385 7.5 c 128,-1,34
 368 20 368 20 368 45 c 0,35,36
 368 53 368 53 370 66 c 128,-1,37
 372 79 372 79 377 106 c 1,38,39
 332 49 332 49 273 19.5 c 128,-1,40
 214 -10 214 -10 150 -10 c 0,7,8
EndSplineSet
EndChar

StartChar: udieresis
Encoding: 252 252 191
Width: 586
GlyphClass: 2
Flags: W
LayerCount: 2
Fore
SplineSet
216 615 m 1,0,-1
 240 725 l 1,1,-1
 331 725 l 1,2,-1
 308 615 l 1,3,-1
 216 615 l 1,0,-1
388 615 m 1,4,-1
 411 725 l 1,5,-1
 502 725 l 1,6,-1
 479 615 l 1,7,-1
 388 615 l 1,4,-1
150 -10 m 0,8,9
 28 -10 28 -10 28 120 c 0,10,11
 28 157 28 157 38 203 c 2,12,-1
 107 523 l 1,13,-1
 216 523 l 1,14,-1
 152 225 l 2,15,16
 145 193 145 193 145 165 c 0,17,18
 145 84 145 84 214 84 c 0,19,20
 258 84 258 84 302.5 113 c 128,-1,21
 347 142 347 142 381 197 c 1,22,-1
 450 523 l 1,23,-1
 560 523 l 1,24,-1
 477 130 l 2,25,26
 474 121 474 121 474 115 c 0,27,28
 474 96 474 96 497 94 c 1,29,-1
 478 0 l 1,30,31
 463 -2 463 -2 452 -3.5 c 128,-1,32
 441 -5 441 -5 432 -5 c 0,33,34
 402 -5 402 -5 385 7.5 c 128,-1,35
 368 20 368 20 368 45 c 0,36,37
 368 53 368 53 370 66 c 128,-1,38
 372 79 372 79 377 106 c 1,39,40
 332 49 332 49 273 19.5 c 128,-1,41
 214 -10 214 -10 150 -10 c 0,8,9
EndSplineSet
EndChar

StartChar: yacute
Encoding: 253 253 192
Width: 510
GlyphClass: 2
Flags: W
LayerCount: 2
Fore
SplineSet
-40 -140 m 1,0,1
 -9 -137 -9 -137 13 -131.5 c 128,-1,2
 35 -126 35 -126 52 -116.5 c 128,-1,3
 69 -107 69 -107 83.5 -91.5 c 128,-1,4
 98 -76 98 -76 114 -53 c 2,5,-1
 143 -11 l 1,6,-1
 49 523 l 1,7,-1
 162 523 l 1,8,-1
 221 97 l 1,9,-1
 255 153 l 2,10,11
 292 213 292 213 318.5 261.5 c 128,-1,12
 345 310 345 310 364 353 c 128,-1,13
 383 396 383 396 396.5 437 c 128,-1,14
 410 478 410 478 421 523 c 1,15,-1
 529 523 l 1,16,17
 515 475 515 475 500 433 c 128,-1,18
 485 391 485 391 462 344.5 c 128,-1,19
 439 298 439 298 405.5 240.5 c 128,-1,20
 372 183 372 183 323 103 c 2,21,-1
 243 -26 l 2,22,23
 208 -82 208 -82 177 -120 c 128,-1,24
 146 -158 146 -158 114.5 -181.5 c 128,-1,25
 83 -205 83 -205 49 -215.5 c 128,-1,26
 15 -226 15 -226 -25 -226 c 1,27,-1
 -40 -140 l 1,0,1
312 602 m 1,28,-1
 242 620 l 1,29,-1
 318 730 l 1,30,-1
 423 730 l 1,31,-1
 312 602 l 1,28,-1
EndSplineSet
EndChar

StartChar: thorn
Encoding: 254 254 193
Width: 577
GlyphClass: 2
Flags: W
LayerCount: 2
Fore
SplineSet
151 710 m 1,0,-1
 264 710 l 1,1,2
 262 702 262 702 259 687.5 c 128,-1,3
 256 673 256 673 252 654.5 c 128,-1,4
 248 636 248 636 243.5 614.5 c 128,-1,5
 239 593 239 593 235 572 c 0,6,7
 224 523 224 523 212 465 c 1,8,9
 237 494 237 494 271.5 515 c 128,-1,10
 306 536 306 536 356 536 c 0,11,12
 402 536 402 536 437.5 518 c 128,-1,13
 473 500 473 500 496.5 470 c 128,-1,14
 520 440 520 440 532 401 c 128,-1,15
 544 362 544 362 544 321 c 0,16,17
 544 264 544 264 521.5 203.5 c 128,-1,18
 499 143 499 143 458 93 c 128,-1,19
 417 43 417 43 360.5 11 c 128,-1,20
 304 -21 304 -21 237 -21 c 0,21,22
 183 -21 183 -21 157.5 -1 c 128,-1,23
 132 19 132 19 122 44 c 1,24,25
 109 -18 109 -18 98 -70 c 0,26,27
 93 -92 93 -92 88.5 -114.5 c 128,-1,28
 84 -137 84 -137 80 -156.5 c 128,-1,29
 76 -176 76 -176 72.5 -191 c 128,-1,30
 69 -206 69 -206 68 -213 c 1,31,-1
 -45 -213 l 1,32,-1
 151 710 l 1,0,-1
256 79 m 0,33,34
 293 79 293 79 325 98 c 128,-1,35
 357 117 357 117 380.5 147.5 c 128,-1,36
 404 178 404 178 417 217.5 c 128,-1,37
 430 257 430 257 430 299 c 0,38,39
 430 327 430 327 423.5 352.5 c 128,-1,40
 417 378 417 378 404 396.5 c 128,-1,41
 391 415 391 415 371.5 426 c 128,-1,42
 352 437 352 437 327 437 c 0,43,44
 285 437 285 437 249 408.5 c 128,-1,45
 213 380 213 380 185 340 c 1,46,-1
 150 174 l 2,47,48
 149 171 149 171 148.5 168.5 c 128,-1,49
 148 166 148 166 148 161 c 0,50,51
 148 146 148 146 156 131.5 c 128,-1,52
 164 117 164 117 178.5 105 c 128,-1,53
 193 93 193 93 212.5 86 c 128,-1,54
 232 79 232 79 256 79 c 0,33,34
EndSplineSet
EndChar

StartChar: ydieresis
Encoding: 255 255 194
Width: 510
GlyphClass: 2
Flags: W
LayerCount: 2
Fore
SplineSet
-40 -140 m 1,0,1
 -9 -137 -9 -137 13 -131.5 c 128,-1,2
 35 -126 35 -126 52 -116.5 c 128,-1,3
 69 -107 69 -107 83.5 -91.5 c 128,-1,4
 98 -76 98 -76 114 -53 c 2,5,-1
 143 -11 l 1,6,-1
 49 523 l 1,7,-1
 162 523 l 1,8,-1
 221 97 l 1,9,-1
 255 153 l 2,10,11
 292 213 292 213 318.5 261.5 c 128,-1,12
 345 310 345 310 364 353 c 128,-1,13
 383 396 383 396 396.5 437 c 128,-1,14
 410 478 410 478 421 523 c 1,15,-1
 529 523 l 1,16,17
 515 475 515 475 500 433 c 128,-1,18
 485 391 485 391 462 344.5 c 128,-1,19
 439 298 439 298 405.5 240.5 c 128,-1,20
 372 183 372 183 323 103 c 2,21,-1
 243 -26 l 2,22,23
 208 -82 208 -82 177 -120 c 128,-1,24
 146 -158 146 -158 114.5 -181.5 c 128,-1,25
 83 -205 83 -205 49 -215.5 c 128,-1,26
 15 -226 15 -226 -25 -226 c 1,27,-1
 -40 -140 l 1,0,1
171 615 m 1,28,-1
 195 725 l 1,29,-1
 286 725 l 1,30,-1
 263 615 l 1,31,-1
 171 615 l 1,28,-1
343 615 m 1,32,-1
 366 725 l 1,33,-1
 457 725 l 1,34,-1
 434 615 l 1,35,-1
 343 615 l 1,32,-1
EndSplineSet
EndChar

StartChar: Amacron
Encoding: 256 256 195
Width: 649
GlyphClass: 2
Flags: W
LayerCount: 2
Fore
SplineSet
365 710 m 1,0,-1
 464 710 l 1,1,-1
 578 0 l 1,2,-1
 460 0 l 1,3,-1
 432 193 l 1,4,-1
 177 193 l 1,5,-1
 68 0 l 1,6,-1
 -50 0 l 1,7,-1
 365 710 l 1,0,-1
428 276 m 1,8,-1
 388 581 l 1,9,-1
 214 276 l 1,10,-1
 428 276 l 1,8,-1
295 828 m 1,11,-1
 309 898 l 1,12,-1
 592 898 l 1,13,-1
 577 828 l 1,14,-1
 295 828 l 1,11,-1
EndSplineSet
EndChar

StartChar: amacron
Encoding: 257 257 196
Width: 615
GlyphClass: 2
Flags: W
LayerCount: 2
Fore
SplineSet
205 -10 m 0,0,1
 161 -10 161 -10 126.5 7 c 128,-1,2
 92 24 92 24 68 53 c 128,-1,3
 44 82 44 82 31.5 121.5 c 128,-1,4
 19 161 19 161 19 206 c 0,5,6
 19 270 19 270 42.5 329 c 128,-1,7
 66 388 66 388 106 433 c 128,-1,8
 146 478 146 478 198 505 c 128,-1,9
 250 532 250 532 307 532 c 256,10,11
 364 532 364 532 402.5 501.5 c 128,-1,12
 441 471 441 471 457 424 c 1,13,-1
 478 522 l 1,14,-1
 589 522 l 1,15,-1
 505 130 l 2,16,17
 504 125 504 125 503.5 121.5 c 128,-1,18
 503 118 503 118 503 115 c 0,19,20
 503 95 503 95 526 94 c 1,21,-1
 506 0 l 1,22,23
 492 -2 492 -2 480.5 -3.5 c 128,-1,24
 469 -5 469 -5 461 -5 c 0,25,26
 396 -5 396 -5 396 47 c 0,27,28
 396 63 396 63 403 95 c 1,29,30
 365 44 365 44 311 17 c 128,-1,31
 257 -10 257 -10 205 -10 c 0,0,1
253 84 m 0,32,33
 273 84 273 84 295.5 92 c 128,-1,34
 318 100 318 100 339.5 114 c 128,-1,35
 361 128 361 128 379 147 c 128,-1,36
 397 166 397 166 408 188 c 1,37,-1
 436 325 l 1,38,39
 433 349 433 349 422.5 369.5 c 128,-1,40
 412 390 412 390 396 405.5 c 128,-1,41
 380 421 380 421 361 429.5 c 128,-1,42
 342 438 342 438 321 438 c 0,43,44
 283 438 283 438 249.5 419 c 128,-1,45
 216 400 216 400 190.5 370 c 128,-1,46
 165 340 165 340 150 301.5 c 128,-1,47
 135 263 135 263 135 224 c 0,48,49
 135 194 135 194 143 168.5 c 128,-1,50
 151 143 151 143 166.5 124.5 c 128,-1,51
 182 106 182 106 204 95 c 128,-1,52
 226 84 226 84 253 84 c 0,32,33
216 642 m 1,53,-1
 230 712 l 1,54,-1
 513 712 l 1,55,-1
 498 642 l 1,56,-1
 216 642 l 1,53,-1
EndSplineSet
EndChar

StartChar: Abreve
Encoding: 258 258 197
Width: 649
GlyphClass: 2
Flags: W
LayerCount: 2
Fore
SplineSet
365 710 m 1,0,-1
 464 710 l 1,1,-1
 578 0 l 1,2,-1
 460 0 l 1,3,-1
 432 193 l 1,4,-1
 177 193 l 1,5,-1
 68 0 l 1,6,-1
 -50 0 l 1,7,-1
 365 710 l 1,0,-1
428 276 m 1,8,-1
 388 581 l 1,9,-1
 214 276 l 1,10,-1
 428 276 l 1,8,-1
435 845 m 0,11,12
 456 845 456 845 476 865 c 128,-1,13
 496 885 496 885 505 916 c 1,14,-1
 566 916 l 1,15,16
 560 890 560 890 546.5 867.5 c 128,-1,17
 533 845 533 845 514 828.5 c 128,-1,18
 495 812 495 812 472 803 c 128,-1,19
 449 794 449 794 424 794 c 0,20,21
 381 794 381 794 355.5 819.5 c 128,-1,22
 330 845 330 845 330 887 c 0,23,24
 330 895 330 895 331 902 c 128,-1,25
 332 909 332 909 334 916 c 1,26,-1
 395 916 l 1,27,28
 394 911 394 911 393.5 907 c 128,-1,29
 393 903 393 903 393 898 c 0,30,31
 393 876 393 876 404.5 860.5 c 128,-1,32
 416 845 416 845 435 845 c 0,11,12
EndSplineSet
EndChar

StartChar: abreve
Encoding: 259 259 198
Width: 615
GlyphClass: 2
Flags: W
LayerCount: 2
Fore
SplineSet
205 -10 m 0,0,1
 161 -10 161 -10 126.5 7 c 128,-1,2
 92 24 92 24 68 53 c 128,-1,3
 44 82 44 82 31.5 121.5 c 128,-1,4
 19 161 19 161 19 206 c 0,5,6
 19 270 19 270 42.5 329 c 128,-1,7
 66 388 66 388 106 433 c 128,-1,8
 146 478 146 478 198 505 c 128,-1,9
 250 532 250 532 307 532 c 256,10,11
 364 532 364 532 402.5 501.5 c 128,-1,12
 441 471 441 471 457 424 c 1,13,-1
 478 522 l 1,14,-1
 589 522 l 1,15,-1
 505 130 l 2,16,17
 504 125 504 125 503.5 121.5 c 128,-1,18
 503 118 503 118 503 115 c 0,19,20
 503 95 503 95 526 94 c 1,21,-1
 506 0 l 1,22,23
 492 -2 492 -2 480.5 -3.5 c 128,-1,24
 469 -5 469 -5 461 -5 c 0,25,26
 396 -5 396 -5 396 47 c 0,27,28
 396 63 396 63 403 95 c 1,29,30
 365 44 365 44 311 17 c 128,-1,31
 257 -10 257 -10 205 -10 c 0,0,1
253 84 m 0,32,33
 273 84 273 84 295.5 92 c 128,-1,34
 318 100 318 100 339.5 114 c 128,-1,35
 361 128 361 128 379 147 c 128,-1,36
 397 166 397 166 408 188 c 1,37,-1
 436 325 l 1,38,39
 433 349 433 349 422.5 369.5 c 128,-1,40
 412 390 412 390 396 405.5 c 128,-1,41
 380 421 380 421 361 429.5 c 128,-1,42
 342 438 342 438 321 438 c 0,43,44
 283 438 283 438 249.5 419 c 128,-1,45
 216 400 216 400 190.5 370 c 128,-1,46
 165 340 165 340 150 301.5 c 128,-1,47
 135 263 135 263 135 224 c 0,48,49
 135 194 135 194 143 168.5 c 128,-1,50
 151 143 151 143 166.5 124.5 c 128,-1,51
 182 106 182 106 204 95 c 128,-1,52
 226 84 226 84 253 84 c 0,32,33
344 659 m 0,53,54
 365 659 365 659 385 679 c 128,-1,55
 405 699 405 699 414 730 c 1,56,-1
 475 730 l 1,57,58
 469 704 469 704 455.5 681.5 c 128,-1,59
 442 659 442 659 423 642.5 c 128,-1,60
 404 626 404 626 381 617 c 128,-1,61
 358 608 358 608 333 608 c 0,62,63
 290 608 290 608 264.5 633.5 c 128,-1,64
 239 659 239 659 239 701 c 0,65,66
 239 709 239 709 240 716 c 128,-1,67
 241 723 241 723 243 730 c 1,68,-1
 304 730 l 1,69,70
 303 725 303 725 302.5 721 c 128,-1,71
 302 717 302 717 302 712 c 0,72,73
 302 690 302 690 313.5 674.5 c 128,-1,74
 325 659 325 659 344 659 c 0,53,54
EndSplineSet
EndChar

StartChar: Aogonek
Encoding: 260 260 199
Width: 649
GlyphClass: 2
Flags: W
LayerCount: 2
Fore
SplineSet
495 -188 m 1,0,1
 453 -181 453 -181 433 -162 c 128,-1,2
 413 -143 413 -143 413 -118 c 0,3,4
 413 -89 413 -89 437 -59.5 c 128,-1,5
 461 -30 461 -30 512 0 c 1,6,-1
 460 0 l 1,7,-1
 432 193 l 1,8,-1
 177 193 l 1,9,-1
 68 0 l 1,10,-1
 -50 0 l 1,11,-1
 365 710 l 1,12,-1
 464 710 l 1,13,-1
 578 0 l 1,14,15
 527 -29 527 -29 505 -51.5 c 128,-1,16
 483 -74 483 -74 483 -95 c 0,17,18
 483 -127 483 -127 531 -130 c 1,19,-1
 495 -188 l 1,0,1
428 276 m 1,20,-1
 388 581 l 1,21,-1
 214 276 l 1,22,-1
 428 276 l 1,20,-1
EndSplineSet
EndChar

StartChar: aogonek
Encoding: 261 261 200
Width: 615
GlyphClass: 2
Flags: W
LayerCount: 2
Fore
SplineSet
423 -188 m 1,0,1
 381 -181 381 -181 361 -162 c 128,-1,2
 341 -143 341 -143 341 -118 c 0,3,4
 341 -89 341 -89 364 -60 c 128,-1,5
 387 -31 387 -31 436 -2 c 1,6,7
 396 7 396 7 396 47 c 0,8,9
 396 63 396 63 403 95 c 1,10,11
 365 44 365 44 311 17 c 128,-1,12
 257 -10 257 -10 205 -10 c 0,13,14
 161 -10 161 -10 126.5 7 c 128,-1,15
 92 24 92 24 68 53 c 128,-1,16
 44 82 44 82 31.5 121.5 c 128,-1,17
 19 161 19 161 19 206 c 0,18,19
 19 270 19 270 42.5 329 c 128,-1,20
 66 388 66 388 106 433 c 128,-1,21
 146 478 146 478 198 505 c 128,-1,22
 250 532 250 532 307 532 c 256,23,24
 364 532 364 532 402.5 501.5 c 128,-1,25
 441 471 441 471 457 424 c 1,26,-1
 478 522 l 1,27,-1
 589 522 l 1,28,-1
 505 130 l 2,29,30
 504 125 504 125 503.5 121.5 c 128,-1,31
 503 118 503 118 503 115 c 0,32,33
 503 95 503 95 526 94 c 1,34,-1
 506 0 l 1,35,36
 455 -29 455 -29 433 -51.5 c 128,-1,37
 411 -74 411 -74 411 -95 c 0,38,39
 411 -127 411 -127 459 -130 c 1,40,-1
 423 -188 l 1,0,1
253 84 m 0,41,42
 273 84 273 84 295.5 92 c 128,-1,43
 318 100 318 100 339.5 114 c 128,-1,44
 361 128 361 128 379 147 c 128,-1,45
 397 166 397 166 408 188 c 1,46,-1
 436 325 l 1,47,48
 433 349 433 349 422.5 369.5 c 128,-1,49
 412 390 412 390 396 405.5 c 128,-1,50
 380 421 380 421 361 429.5 c 128,-1,51
 342 438 342 438 321 438 c 0,52,53
 283 438 283 438 249.5 419 c 128,-1,54
 216 400 216 400 190.5 370 c 128,-1,55
 165 340 165 340 150 301.5 c 128,-1,56
 135 263 135 263 135 224 c 0,57,58
 135 194 135 194 143 168.5 c 128,-1,59
 151 143 151 143 166.5 124.5 c 128,-1,60
 182 106 182 106 204 95 c 128,-1,61
 226 84 226 84 253 84 c 0,41,42
EndSplineSet
EndChar

StartChar: Cacute
Encoding: 262 262 201
Width: 655
GlyphClass: 2
Flags: W
LayerCount: 2
Fore
SplineSet
484 788 m 1,0,-1
 414 806 l 1,1,-1
 490 916 l 1,2,-1
 595 916 l 1,3,-1
 484 788 l 1,0,-1
294 -6 m 0,4,5
 234 -6 234 -6 186.5 19.5 c 128,-1,6
 139 45 139 45 107 87 c 128,-1,7
 75 129 75 129 58 183 c 128,-1,8
 41 237 41 237 41 295 c 0,9,10
 41 368 41 368 72 442.5 c 128,-1,11
 103 517 103 517 158 577.5 c 128,-1,12
 213 638 213 638 288.5 676 c 128,-1,13
 364 714 364 714 453 714 c 0,14,15
 545 714 545 714 602 671 c 128,-1,16
 659 628 659 628 677 559 c 1,17,-1
 577 500 l 1,18,19
 570 532 570 532 555 554 c 128,-1,20
 540 576 540 576 519.5 589 c 128,-1,21
 499 602 499 602 475 607.5 c 128,-1,22
 451 613 451 613 427 613 c 0,23,24
 366 613 366 613 316 584 c 128,-1,25
 266 555 266 555 230.5 509.5 c 128,-1,26
 195 464 195 464 175.5 409 c 128,-1,27
 156 354 156 354 156 302 c 0,28,29
 156 260 156 260 167 222.5 c 128,-1,30
 178 185 178 185 199 156.5 c 128,-1,31
 220 128 220 128 250.5 111.5 c 128,-1,32
 281 95 281 95 320 95 c 0,33,34
 344 95 344 95 371.5 101.5 c 128,-1,35
 399 108 399 108 425.5 122.5 c 128,-1,36
 452 137 452 137 476.5 159 c 128,-1,37
 501 181 501 181 521 212 c 1,38,-1
 603 159 l 1,39,40
 579 119 579 119 543 88.5 c 128,-1,41
 507 58 507 58 465 37 c 128,-1,42
 423 16 423 16 378.5 5 c 128,-1,43
 334 -6 334 -6 294 -6 c 0,4,5
EndSplineSet
EndChar

StartChar: cacute
Encoding: 263 263 202
Width: 536
GlyphClass: 2
Flags: W
LayerCount: 2
Fore
SplineSet
355 602 m 1,0,-1
 285 620 l 1,1,-1
 361 730 l 1,2,-1
 466 730 l 1,3,-1
 355 602 l 1,0,-1
227 -10 m 0,4,5
 177 -10 177 -10 138 7.5 c 128,-1,6
 99 25 99 25 72.5 55 c 128,-1,7
 46 85 46 85 32.5 125 c 128,-1,8
 19 165 19 165 19 210 c 0,9,10
 19 273 19 273 43.5 331 c 128,-1,11
 68 389 68 389 111.5 433.5 c 128,-1,12
 155 478 155 478 213.5 505 c 128,-1,13
 272 532 272 532 341 532 c 0,14,15
 419 532 419 532 467 496.5 c 128,-1,16
 515 461 515 461 531 402 c 1,17,-1
 417 368 l 1,18,19
 406 401 406 401 380.5 419.5 c 128,-1,20
 355 438 355 438 319 438 c 256,21,22
 283 438 283 438 249.5 421.5 c 128,-1,23
 216 405 216 405 190 375.5 c 128,-1,24
 164 346 164 346 148.5 307 c 128,-1,25
 133 268 133 268 133 223 c 0,26,27
 133 193 133 193 141 167.5 c 128,-1,28
 149 142 149 142 164 123.5 c 128,-1,29
 179 105 179 105 199.5 94.5 c 128,-1,30
 220 84 220 84 245 84 c 0,31,32
 264 84 264 84 283 89.5 c 128,-1,33
 302 95 302 95 319.5 105 c 128,-1,34
 337 115 337 115 351 128 c 128,-1,35
 365 141 365 141 374 156 c 1,36,-1
 475 124 l 1,37,38
 457 95 457 95 430.5 70.5 c 128,-1,39
 404 46 404 46 372 28 c 128,-1,40
 340 10 340 10 303 0 c 128,-1,41
 266 -10 266 -10 227 -10 c 0,4,5
EndSplineSet
EndChar

StartChar: Ccircumflex
Encoding: 264 264 203
Width: 655
GlyphClass: 2
Flags: W
LayerCount: 2
Fore
SplineSet
345 821 m 1,0,-1
 464 916 l 1,1,-1
 544 916 l 1,2,-1
 622 821 l 1,3,-1
 558 793 l 1,4,-1
 491 856 l 1,5,-1
 397 793 l 1,6,-1
 345 821 l 1,0,-1
294 -6 m 0,7,8
 234 -6 234 -6 186.5 19.5 c 128,-1,9
 139 45 139 45 107 87 c 128,-1,10
 75 129 75 129 58 183 c 128,-1,11
 41 237 41 237 41 295 c 0,12,13
 41 368 41 368 72 442.5 c 128,-1,14
 103 517 103 517 158 577.5 c 128,-1,15
 213 638 213 638 288.5 676 c 128,-1,16
 364 714 364 714 453 714 c 0,17,18
 545 714 545 714 602 671 c 128,-1,19
 659 628 659 628 677 559 c 1,20,-1
 577 500 l 1,21,22
 570 532 570 532 555 554 c 128,-1,23
 540 576 540 576 519.5 589 c 128,-1,24
 499 602 499 602 475 607.5 c 128,-1,25
 451 613 451 613 427 613 c 0,26,27
 366 613 366 613 316 584 c 128,-1,28
 266 555 266 555 230.5 509.5 c 128,-1,29
 195 464 195 464 175.5 409 c 128,-1,30
 156 354 156 354 156 302 c 0,31,32
 156 260 156 260 167 222.5 c 128,-1,33
 178 185 178 185 199 156.5 c 128,-1,34
 220 128 220 128 250.5 111.5 c 128,-1,35
 281 95 281 95 320 95 c 0,36,37
 344 95 344 95 371.5 101.5 c 128,-1,38
 399 108 399 108 425.5 122.5 c 128,-1,39
 452 137 452 137 476.5 159 c 128,-1,40
 501 181 501 181 521 212 c 1,41,-1
 603 159 l 1,42,43
 579 119 579 119 543 88.5 c 128,-1,44
 507 58 507 58 465 37 c 128,-1,45
 423 16 423 16 378.5 5 c 128,-1,46
 334 -6 334 -6 294 -6 c 0,7,8
EndSplineSet
EndChar

StartChar: ccircumflex
Encoding: 265 265 204
Width: 536
GlyphClass: 2
Flags: W
LayerCount: 2
Fore
SplineSet
224 635 m 1,0,-1
 343 730 l 1,1,-1
 423 730 l 1,2,-1
 501 635 l 1,3,-1
 437 607 l 1,4,-1
 370 670 l 1,5,-1
 276 607 l 1,6,-1
 224 635 l 1,0,-1
227 -10 m 0,7,8
 177 -10 177 -10 138 7.5 c 128,-1,9
 99 25 99 25 72.5 55 c 128,-1,10
 46 85 46 85 32.5 125 c 128,-1,11
 19 165 19 165 19 210 c 0,12,13
 19 273 19 273 43.5 331 c 128,-1,14
 68 389 68 389 111.5 433.5 c 128,-1,15
 155 478 155 478 213.5 505 c 128,-1,16
 272 532 272 532 341 532 c 0,17,18
 419 532 419 532 467 496.5 c 128,-1,19
 515 461 515 461 531 402 c 1,20,-1
 417 368 l 1,21,22
 406 401 406 401 380.5 419.5 c 128,-1,23
 355 438 355 438 319 438 c 256,24,25
 283 438 283 438 249.5 421.5 c 128,-1,26
 216 405 216 405 190 375.5 c 128,-1,27
 164 346 164 346 148.5 307 c 128,-1,28
 133 268 133 268 133 223 c 0,29,30
 133 193 133 193 141 167.5 c 128,-1,31
 149 142 149 142 164 123.5 c 128,-1,32
 179 105 179 105 199.5 94.5 c 128,-1,33
 220 84 220 84 245 84 c 0,34,35
 264 84 264 84 283 89.5 c 128,-1,36
 302 95 302 95 319.5 105 c 128,-1,37
 337 115 337 115 351 128 c 128,-1,38
 365 141 365 141 374 156 c 1,39,-1
 475 124 l 1,40,41
 457 95 457 95 430.5 70.5 c 128,-1,42
 404 46 404 46 372 28 c 128,-1,43
 340 10 340 10 303 0 c 128,-1,44
 266 -10 266 -10 227 -10 c 0,7,8
EndSplineSet
EndChar

StartChar: Cdotaccent
Encoding: 266 266 205
Width: 655
GlyphClass: 2
Flags: W
LayerCount: 2
Fore
SplineSet
294 -6 m 0,0,1
 234 -6 234 -6 186.5 19.5 c 128,-1,2
 139 45 139 45 107 87 c 128,-1,3
 75 129 75 129 58 183 c 128,-1,4
 41 237 41 237 41 295 c 0,5,6
 41 368 41 368 72 442.5 c 128,-1,7
 103 517 103 517 158 577.5 c 128,-1,8
 213 638 213 638 288.5 676 c 128,-1,9
 364 714 364 714 453 714 c 0,10,11
 545 714 545 714 602 671 c 128,-1,12
 659 628 659 628 677 559 c 1,13,-1
 577 500 l 1,14,15
 570 532 570 532 555 554 c 128,-1,16
 540 576 540 576 519.5 589 c 128,-1,17
 499 602 499 602 475 607.5 c 128,-1,18
 451 613 451 613 427 613 c 0,19,20
 366 613 366 613 316 584 c 128,-1,21
 266 555 266 555 230.5 509.5 c 128,-1,22
 195 464 195 464 175.5 409 c 128,-1,23
 156 354 156 354 156 302 c 0,24,25
 156 260 156 260 167 222.5 c 128,-1,26
 178 185 178 185 199 156.5 c 128,-1,27
 220 128 220 128 250.5 111.5 c 128,-1,28
 281 95 281 95 320 95 c 0,29,30
 344 95 344 95 371.5 101.5 c 128,-1,31
 399 108 399 108 425.5 122.5 c 128,-1,32
 452 137 452 137 476.5 159 c 128,-1,33
 501 181 501 181 521 212 c 1,34,-1
 603 159 l 1,35,36
 579 119 579 119 543 88.5 c 128,-1,37
 507 58 507 58 465 37 c 128,-1,38
 423 16 423 16 378.5 5 c 128,-1,39
 334 -6 334 -6 294 -6 c 0,0,1
429 801 m 1,40,-1
 454 916 l 1,41,-1
 552 916 l 1,42,-1
 528 801 l 1,43,-1
 429 801 l 1,40,-1
EndSplineSet
EndChar

